999
dxfrw 0.6.3
  0
SECTION
  2
HEADER
  9
$ACADVER
  1
AC1021
  9
$DWGCODEPAGE
  3
ANSI_1252
  9
$INSBASE
 10
0
 20
0
 30
0
  9
$EXTMIN
 10
0
 20
0
 30
0
  9
$EXTMAX
 10
84.3001
 20
131.3001
 30
0
  9
$LIMMIN
 10
0
 20
0
  9
$LIMMAX
 10
420
 20
297
  9
$ORTHOMODE
 70
    0
  9
$REGENMODE
 70
    1
  9
$FILLMODE
 70
    1
  9
$QTEXTMODE
 70
    0
  9
$MIRRTEXT
 70
    0
  9
$LTSCALE
 40
1
  9
$ATTMODE
 70
    0
  9
$TEXTSIZE
 40
2.5
  9
$TRACEWID
 40
15.68
  9
$TEXTSTYLE
  7
STANDARD
  9
$CLAYER
  8
0
  9
$CELTYPE
  6
BYLAYER
  9
$CECOLOR
 62
  256
  9
$CELTSCALE
 40
1
  9
$DISPSILH
 70
    0
  9
$DIMSCALE
 40
2.5
  9
$DIMASZ
 40
2.5
  9
$DIMEXO
 40
0.625
  9
$DIMDLI
 40
3.75
  9
$DIMRND
 40
0
  9
$DIMDLE
 40
0
  9
$DIMEXE
 40
1.25
  9
$DIMTP
 40
0
  9
$DIMTM
 40
0
  9
$DIMTXT
 40
2.5
  9
$DIMCEN
 40
2.5
  9
$DIMTSZ
 40
0
  9
$DIMTOL
 70
    0
  9
$DIMLIM
 70
    0
  9
$DIMTIH
 70
    0
  9
$DIMTOH
 70
    0
  9
$DIMSE1
 70
    0
  9
$DIMSE2
 70
    0
  9
$DIMTAD
 70
    1
  9
$DIMZIN
 70
    8
  9
$DIMBLK
  1

  9
$DIMASO
 70
    1
  9
$DIMSHO
 70
    1
  9
$DIMPOST
  1

  9
$DIMAPOST
  1

  9
$DIMALT
 70
    0
  9
$DIMALTD
 70
    3
  9
$DIMALTF
 40
0.03937
  9
$DIMLFAC
 40
1
  9
$DIMTOFL
 70
    1
  9
$DIMTVP
 40
0
  9
$DIMTIX
 70
    0
  9
$DIMSOXD
 70
    0
  9
$DIMSAH
 70
    0
  9
$DIMBLK1
  1

  9
$DIMBLK2
  1

  9
$DIMSTYLE
  2
Standard
  9
$DIMCLRD
 70
    0
  9
$DIMCLRE
 70
    0
  9
$DIMCLRT
 70
    0
  9
$DIMTFAC
 40
1
  9
$DIMGAP
 40
0.625
  9
$DIMJUST
 70
    0
  9
$DIMSD1
 70
    0
  9
$DIMSD2
 70
    0
  9
$DIMTOLJ
 70
    0
  9
$DIMTZIN
 70
    8
  9
$DIMALTZ
 70
    0
  9
$DIMALTTZ
 70
    0
  9
$DIMUPT
 70
    0
  9
$DIMDEC
 70
    2
  9
$DIMTDEC
 70
    2
  9
$DIMALTU
 70
    2
  9
$DIMALTTD
 70
    3
  9
$DIMTXSTY
  7
STANDARD
  9
$DIMAUNIT
 70
    0
  9
$DIMADEC
 70
    0
  9
$DIMALTRND
 40
0
  9
$DIMAZIN
 70
    0
  9
$DIMDSEP
 70
   44
  9
$DIMATFIT
 70
    3
  9
$DIMFRAC
 70
    0
  9
$DIMLDRBLK
  1
STANDARD
  9
$DIMLUNIT
 70
    2
  9
$DIMLWD
 70
   -2
  9
$DIMLWE
 70
   -2
  9
$DIMTMOVE
 70
    0
  9
$DIMFXL
 40
1
  9
$DIMFXLON
 70
    0
  9
$DIMJOGANG
 40
0.7854
  9
$DIMTFILL
 70
    0
  9
$DIMTFILLCLR
 70
    0
  9
$DIMARCSYM
 70
    0
  9
$DIMLTYPE
  6

  9
$DIMLTEX1
  6

  9
$DIMLTEX2
  6

  9
$LUNITS
 70
    2
  9
$LUPREC
 70
    4
  9
$SKETCHINC
 40
1
  9
$FILLETRAD
 40
0
  9
$AUNITS
 70
    0
  9
$AUPREC
 70
    2
  9
$MENU
  1
.
  9
$ELEVATION
 40
0
  9
$PELEVATION
 40
0
  9
$THICKNESS
 40
0
  9
$LIMCHECK
 70
    0
  9
$CHAMFERA
 40
0
  9
$CHAMFERB
 40
0
  9
$CHAMFERC
 40
0
  9
$CHAMFERD
 40
0
  9
$SKPOLY
 70
    0
  9
$USRTIMER
 70
    1
  9
$ANGBASE
 50
0
  9
$ANGDIR
 70
    0
  9
$PDMODE
 70
   34
  9
$PDSIZE
 40
0
  9
$PLINEWID
 40
0
  9
$SPLFRAME
 70
    0
  9
$SPLINETYPE
 70
    2
  9
$SPLINESEGS
 70
    8
  9
$HANDSEED
  5
20000
  9
$SURFTAB1
 70
    6
  9
$SURFTAB2
 70
    6
  9
$SURFTYPE
 70
    6
  9
$SURFU
 70
    6
  9
$SURFV
 70
    6
  9
$UCSBASE
  2

  9
$UCSNAME
  2

  9
$UCSORG
 10
0
 20
0
 30
0
  9
$UCSXDIR
 10
1
 20
0
 30
0
  9
$UCSYDIR
 10
0
 20
1
 30
0
  9
$UCSORTHOREF
  2

  9
$UCSORTHOVIEW
 70
    0
  9
$UCSORGTOP
 10
0
 20
0
 30
0
  9
$UCSORGBOTTOM
 10
0
 20
0
 30
0
  9
$UCSORGLEFT
 10
0
 20
0
 30
0
  9
$UCSORGRIGHT
 10
0
 20
0
 30
0
  9
$UCSORGFRONT
 10
0
 20
0
 30
0
  9
$UCSORGBACK
 10
0
 20
0
 30
0
  9
$PUCSBASE
  2

  9
$PUCSNAME
  2

  9
$PUCSORG
 10
0
 20
0
 30
0
  9
$PUCSXDIR
 10
1
 20
0
 30
0
  9
$PUCSYDIR
 10
0
 20
1
 30
0
  9
$PUCSORTHOREF
  2

  9
$PUCSORTHOVIEW
 70
    0
  9
$PUCSORGTOP
 10
0
 20
0
 30
0
  9
$PUCSORGBOTTOM
 10
0
 20
0
 30
0
  9
$PUCSORGLEFT
 10
0
 20
0
 30
0
  9
$PUCSORGRIGHT
 10
0
 20
0
 30
0
  9
$PUCSORGFRONT
 10
0
 20
0
 30
0
  9
$PUCSORGBACK
 10
0
 20
0
 30
0
  9
$USERI1
 70
    0
  9
$USERI2
 70
    0
  9
$USERI3
 70
    0
  9
$USERI4
 70
    0
  9
$USERI5
 70
    0
  9
$USERR1
 40
0
  9
$USERR2
 40
0
  9
$USERR3
 40
0
  9
$USERR4
 40
0
  9
$USERR5
 40
0
  9
$WORLDVIEW
 70
    1
  9
$SHADEDGE
 70
    3
  9
$SHADEDIF
 70
   70
  9
$TILEMODE
 70
    1
  9
$MAXACTVP
 70
   64
  9
$PINSBASE
 10
0
 20
0
 30
0
  9
$PLIMCHECK
 70
    0
  9
$PEXTMIN
 10
0
 20
0
 30
0
  9
$PEXTMAX
 10
0
 20
0
 30
0
  9
$SNAPSTYLE
 70
    0
  9
$PLIMMIN
 10
0
 20
0
  9
$PLIMMAX
 10
210
 20
297
  9
$UNITMODE
 70
    0
  9
$VISRETAIN
 70
    1
  9
$PLINEGEN
 70
    0
  9
$PSLTSCALE
 70
    1
  9
$TREEDEPTH
 70
 3020
  9
$CMLSTYLE
  2
Standard
  9
$CMLJUST
 70
    0
  9
$CMLSCALE
 40
20
  9
$PROXYGRAPHICS
 70
    1
  9
$MEASUREMENT
 70
    1
  9
$CELWEIGHT
370
   -1
  9
$ENDCAPS
280
    0
  9
$JOINSTYLE
280
    0
  9
$LWDISPLAY
290
    0
  9
$INSUNITS
 70
    4
  9
$HYPERLINKBASE
  1

  9
$STYLESHEET
  1

  9
$XEDIT
290
    1
  9
$CEPSNTYPE
380
    0
  9
$PSTYLEMODE
290
    1
  9
$EXTNAMES
290
    1
  9
$PSVPSCALE
 40
1
  9
$OLESTARTUP
290
    0
  9
$SORTENTS
280
  127
  9
$INDEXCTL
280
    0
  9
$HIDETEXT
280
    1
  9
$XCLIPFRAME
290
    0
  9
$HALOGAP
280
    0
  9
$OBSCOLOR
 70
  257
  9
$OBSLTYPE
280
    0
  9
$INTERSECTIONDISPLAY
280
    0
  9
$INTERSECTIONCOLOR
 70
  257
  9
$DIMASSOC
280
    1
  9
$PROJECTNAME
  1

  9
$CAMERADISPLAY
290
    0
  9
$LENSLENGTH
 40
50
  9
$CAMERAHEIGHT
 40
0
  9
$STEPSPERSEC
 40
2
  9
$STEPSIZE
 40
50
  9
$3DDWFPREC
 40
2
  9
$PSOLWIDTH
 40
5
  9
$PSOLHEIGHT
 40
80
  9
$LOFTANG1
 40
1.570796326794897
  9
$LOFTANG2
 40
1.570796326794897
  9
$LOFTMAG1
 40
0
  9
$LOFTMAG2
 40
0
  9
$LOFTPARAM
 70
    7
  9
$LOFTNORMALS
280
    1
  9
$LATITUDE
 40
1
  9
$LONGITUDE
 40
1
  9
$NORTHDIRECTION
 40
0
  9
$TIMEZONE
 70
-8000
  9
$LIGHTGLYPHDISPLAY
280
    1
  9
$TILEMODELIGHTSYNCH
280
    1
  9
$SOLIDHIST
280
    1
  9
$SHOWHIST
280
    1
  9
$DWFFRAME
280
    2
  9
$DGNFRAME
280
    0
  9
$REALWORLDSCALE
290
    1
  9
$INTERFERECOLOR
 62
    1
  9
$CSHADOW
280
    0
  9
$SHADOWPLANELOCATION
 40
0
  0
ENDSEC
  0
SECTION
  2
CLASSES
  0
ENDSEC
  0
SECTION
  2
TABLES
  0
TABLE
  2
VPORT
  5
8
330
0
100
AcDbSymbolTable
 70
    1
  0
VPORT
  5
31
330
2
100
AcDbSymbolTableRecord
100
AcDbViewportTableRecord
  2
*ACTIVE
 70
    0
 10
0
 20
0
 11
1
 21
1
 12
52.16430064845635
 22
43.24709730352003
 13
0
 23
0
 14
10
 24
10
 15
10
 25
10
 16
0
 26
0
 36
1
 17
0
 27
0
 37
0
 40
83.81635576471683
 41
1.563578274760383
 42
50
 43
0
 44
0
 50
0
 51
0
 71
    0
 72
  100
 73
    1
 74
    3
 75
    0
 76
    1
 77
    0
 78
    0
281
    0
 65
    1
110
0
120
0
130
0
111
1
121
0
131
0
112
0
122
1
132
0
 79
    0
146
0
348
10020
 60
    7
 61
    5
292
1
282
    1
141
0
142
0
 63
  250
421
3358443
  0
ENDTAB
  0
TABLE
  2
LTYPE
  5
5
330
0
100
AcDbSymbolTable
 70
    4
  0
LTYPE
  5
14
330
5
100
AcDbSymbolTableRecord
100
AcDbLinetypeTableRecord
  2
ByBlock
 70
    0
  3

 72
   65
 73
    0
 40
0
  0
LTYPE
  5
15
330
5
100
AcDbSymbolTableRecord
100
AcDbLinetypeTableRecord
  2
ByLayer
 70
    0
  3

 72
   65
 73
    0
 40
0
  0
LTYPE
  5
16
330
5
100
AcDbSymbolTableRecord
100
AcDbLinetypeTableRecord
  2
Continuous
 70
    0
  3
Solid line
 72
   65
 73
    0
 40
0
  0
LTYPE
  5
32
330
5
100
AcDbSymbolTableRecord
100
AcDbLinetypeTableRecord
  2
DOT
 70
    0
  3
Dot . . . . . . . . . . . . . . . . . . . . . .
 72
   65
 73
    2
 40
6.35
 49
0
 74
    0
 49
-6.35
 74
    0
  0
LTYPE
  5
33
330
5
100
AcDbSymbolTableRecord
100
AcDbLinetypeTableRecord
  2
DOTTINY
 70
    0
  3
Dot (.15x) .....................................
 72
   65
 73
    2
 40
0.9525
 49
0
 74
    0
 49
-0.9525
 74
    0
  0
LTYPE
  5
34
330
5
100
AcDbSymbolTableRecord
100
AcDbLinetypeTableRecord
  2
DOT2
 70
    0
  3
Dot (.5x) .....................................
 72
   65
 73
    2
 40
3.175
 49
0
 74
    0
 49
-3.175
 74
    0
  0
LTYPE
  5
35
330
5
100
AcDbSymbolTableRecord
100
AcDbLinetypeTableRecord
  2
DOTX2
 70
    0
  3
Dot (2x) .  .  .  .  .  .  .  .  .  .  .  .  .
 72
   65
 73
    2
 40
12.7
 49
0
 74
    0
 49
-12.7
 74
    0
  0
LTYPE
  5
36
330
5
100
AcDbSymbolTableRecord
100
AcDbLinetypeTableRecord
  2
DASHED
 70
    0
  3
Dashed _ _ _ _ _ _ _ _ _ _ _ _ _ _ _ _ _
 72
   65
 73
    2
 40
19.05
 49
12.7
 74
    0
 49
-6.35
 74
    0
  0
LTYPE
  5
37
330
5
100
AcDbSymbolTableRecord
100
AcDbLinetypeTableRecord
  2
DASHEDTINY
 70
    0
  3
Dashed (.15x) _ _ _ _ _ _ _ _ _ _ _ _ _ _ _ _ _
 72
   65
 73
    2
 40
2.8575
 49
1.905
 74
    0
 49
-0.9525
 74
    0
  0
LTYPE
  5
38
330
5
100
AcDbSymbolTableRecord
100
AcDbLinetypeTableRecord
  2
DASHED2
 70
    0
  3
Dashed (.5x) _ _ _ _ _ _ _ _ _ _ _ _ _ _ _ _ _
 72
   65
 73
    2
 40
9.524999999999999
 49
6.35
 74
    0
 49
-3.175
 74
    0
  0
LTYPE
  5
39
330
5
100
AcDbSymbolTableRecord
100
AcDbLinetypeTableRecord
  2
DASHEDX2
 70
    0
  3
Dashed (2x) ____  ____  ____  ____  ____  ___
 72
   65
 73
    2
 40
38.09999999999999
 49
25.4
 74
    0
 49
-12.7
 74
    0
  0
LTYPE
  5
3A
330
5
100
AcDbSymbolTableRecord
100
AcDbLinetypeTableRecord
  2
DASHDOT
 70
    0
  3
Dash dot __ . __ . __ . __ . __ . __ . __ . __
 72
   65
 73
    4
 40
25.4
 49
12.7
 74
    0
 49
-6.35
 74
    0
 49
0
 74
    0
 49
-6.35
 74
    0
  0
LTYPE
  5
3B
330
5
100
AcDbSymbolTableRecord
100
AcDbLinetypeTableRecord
  2
DASHDOTTINY
 70
    0
  3
Dash dot (.15x) _._._._._._._._._._._._._._._.
 72
   65
 73
    4
 40
3.81
 49
1.905
 74
    0
 49
-0.9525
 74
    0
 49
0
 74
    0
 49
-0.9525
 74
    0
  0
LTYPE
  5
3C
330
5
100
AcDbSymbolTableRecord
100
AcDbLinetypeTableRecord
  2
DASHDOT2
 70
    0
  3
Dash dot (.5x) _._._._._._._._._._._._._._._.
 72
   65
 73
    4
 40
12.7
 49
6.35
 74
    0
 49
-3.175
 74
    0
 49
0
 74
    0
 49
-3.175
 74
    0
  0
LTYPE
  5
3D
330
5
100
AcDbSymbolTableRecord
100
AcDbLinetypeTableRecord
  2
DASHDOTX2
 70
    0
  3
Dash dot (2x) ____  .  ____  .  ____  .  ___
 72
   65
 73
    4
 40
50.8
 49
25.4
 74
    0
 49
-12.7
 74
    0
 49
0
 74
    0
 49
-12.7
 74
    0
  0
LTYPE
  5
3E
330
5
100
AcDbSymbolTableRecord
100
AcDbLinetypeTableRecord
  2
DIVIDE
 70
    0
  3
Divide ____ . . ____ . . ____ . . ____ . . ____
 72
   65
 73
    6
 40
31.75
 49
12.7
 74
    0
 49
-6.35
 74
    0
 49
0
 74
    0
 49
-6.35
 74
    0
 49
0
 74
    0
 49
-6.35
 74
    0
  0
LTYPE
  5
3F
330
5
100
AcDbSymbolTableRecord
100
AcDbLinetypeTableRecord
  2
DIVIDETINY
 70
    0
  3
Divide (.15x) __..__..__..__..__..__..__..__.._
 72
   65
 73
    6
 40
4.7625
 49
1.905
 74
    0
 49
-0.9525
 74
    0
 49
0
 74
    0
 49
-0.9525
 74
    0
 49
0
 74
    0
 49
-0.9525
 74
    0
  0
LTYPE
  5
40
330
5
100
AcDbSymbolTableRecord
100
AcDbLinetypeTableRecord
  2
DIVIDE2
 70
    0
  3
Divide (.5x) __..__..__..__..__..__..__..__.._
 72
   65
 73
    6
 40
15.875
 49
6.35
 74
    0
 49
-3.175
 74
    0
 49
0
 74
    0
 49
-3.175
 74
    0
 49
0
 74
    0
 49
-3.175
 74
    0
  0
LTYPE
  5
41
330
5
100
AcDbSymbolTableRecord
100
AcDbLinetypeTableRecord
  2
DIVIDEX2
 70
    0
  3
Divide (2x) ________  .  .  ________  .  .  _
 72
   65
 73
    6
 40
63.5
 49
25.4
 74
    0
 49
-12.7
 74
    0
 49
0
 74
    0
 49
-12.7
 74
    0
 49
0
 74
    0
 49
-12.7
 74
    0
  0
LTYPE
  5
42
330
5
100
AcDbSymbolTableRecord
100
AcDbLinetypeTableRecord
  2
BORDER
 70
    0
  3
Border __ __ . __ __ . __ __ . __ __ . __ __ .
 72
   65
 73
    6
 40
44.45
 49
12.7
 74
    0
 49
-6.35
 74
    0
 49
12.7
 74
    0
 49
-6.35
 74
    0
 49
0
 74
    0
 49
-6.35
 74
    0
  0
LTYPE
  5
43
330
5
100
AcDbSymbolTableRecord
100
AcDbLinetypeTableRecord
  2
BORDERTINY
 70
    0
  3
Border (.15x) __.__.__.__.__.__.__.__.__.__.__.
 72
   65
 73
    6
 40
6.6675
 49
1.905
 74
    0
 49
-0.9525
 74
    0
 49
1.905
 74
    0
 49
-0.9525
 74
    0
 49
0
 74
    0
 49
-0.9525
 74
    0
  0
LTYPE
  5
44
330
5
100
AcDbSymbolTableRecord
100
AcDbLinetypeTableRecord
  2
BORDER2
 70
    0
  3
Border (.5x) __.__.__.__.__.__.__.__.__.__.__.
 72
   65
 73
    6
 40
22.225
 49
6.35
 74
    0
 49
-3.175
 74
    0
 49
6.35
 74
    0
 49
-3.175
 74
    0
 49
0
 74
    0
 49
-3.175
 74
    0
  0
LTYPE
  5
45
330
5
100
AcDbSymbolTableRecord
100
AcDbLinetypeTableRecord
  2
BORDERX2
 70
    0
  3
Border (2x) ____  ____  .  ____  ____  .  ___
 72
   65
 73
    6
 40
88.89999999999999
 49
25.4
 74
    0
 49
-12.7
 74
    0
 49
25.4
 74
    0
 49
-12.7
 74
    0
 49
0
 74
    0
 49
-12.7
 74
    0
  0
LTYPE
  5
46
330
5
100
AcDbSymbolTableRecord
100
AcDbLinetypeTableRecord
  2
CENTER
 70
    0
  3
Center ____ _ ____ _ ____ _ ____ _ ____ _ ____
 72
   65
 73
    4
 40
50.8
 49
31.75
 74
    0
 49
-6.35
 74
    0
 49
6.35
 74
    0
 49
-6.35
 74
    0
  0
LTYPE
  5
47
330
5
100
AcDbSymbolTableRecord
100
AcDbLinetypeTableRecord
  2
CENTERTINY
 70
    0
  3
Center (.15x) ___ _ ___ _ ___ _ ___ _ ___ _ ___
 72
   65
 73
    4
 40
7.619999999999999
 49
4.7625
 74
    0
 49
-0.9525
 74
    0
 49
0.9525
 74
    0
 49
-0.9525
 74
    0
  0
LTYPE
  5
48
330
5
100
AcDbSymbolTableRecord
100
AcDbLinetypeTableRecord
  2
CENTER2
 70
    0
  3
Center (.5x) ___ _ ___ _ ___ _ ___ _ ___ _ ___
 72
   65
 73
    4
 40
28.575
 49
19.05
 74
    0
 49
-3.175
 74
    0
 49
3.175
 74
    0
 49
-3.175
 74
    0
  0
LTYPE
  5
49
330
5
100
AcDbSymbolTableRecord
100
AcDbLinetypeTableRecord
  2
CENTERX2
 70
    0
  3
Center (2x) ________  __  ________  __  _____
 72
   65
 73
    4
 40
101.6
 49
63.5
 74
    0
 49
-12.7
 74
    0
 49
12.7
 74
    0
 49
-12.7
 74
    0
  0
ENDTAB
  0
TABLE
  2
LAYER
  5
2
330
0
100
AcDbSymbolTable
 70
    1
  0
LAYER
  5
10
330
2
100
AcDbSymbolTableRecord
100
AcDbLayerTableRecord
  2
0
 70
    0
 62
    7
  6
CONTINUOUS
370
    0
390
F
  0
LAYER
  5
4A
330
2
100
AcDbSymbolTableRecord
100
AcDbLayerTableRecord
  2
case
 70
    0
 62
   22
  6
CONTINUOUS
370
   -3
390
F
  0
ENDTAB
  0
TABLE
  2
STYLE
  5
3
330
0
100
AcDbSymbolTable
 70
    3
  0
STYLE
  5
4B
330
2
100
AcDbSymbolTableRecord
100
AcDbTextStyleTableRecord
  2
Standard
 70
    0
 40
0
 41
1
 50
0
 71
    0
 42
1
  3
txt
  4

  0
ENDTAB
  0
TABLE
  2
VIEW
  5
6
330
0
100
AcDbSymbolTable
 70
    0
  0
ENDTAB
  0
TABLE
  2
UCS
  5
7
330
0
100
AcDbSymbolTable
 70
    0
  0
ENDTAB
  0
TABLE
  2
APPID
  5
9
330
0
100
AcDbSymbolTable
 70
    1
  0
APPID
  5
12
330
9
100
AcDbSymbolTableRecord
100
AcDbRegAppTableRecord
  2
ACAD
 70
    0
  0
APPID
  5
4C
330
9
100
AcDbSymbolTableRecord
100
AcDbRegAppTableRecord
  2
LibreCad
 70
    0
  0
ENDTAB
  0
TABLE
  2
DIMSTYLE
  5
A
330
0
100
AcDbSymbolTable
 70
    1
100
AcDbDimStyleTable
 71
    1
  0
DIMSTYLE
105
4D
330
A
100
AcDbSymbolTableRecord
100
AcDbDimStyleTableRecord
  2
Standard
 70
    0
 40
1
 41
2.5
 42
0.625
 43
0.38
 44
1.25
 45
0
 46
0
 47
0
 48
0
 49
1
140
2.5
141
0.09
142
2.5
143
25.4
144
1
145
0
146
1
147
0.625
148
0
 71
    0
 72
    0
 73
    0
 74
    1
 75
    0
 76
    0
 77
    0
 78
    1
 79
    0
170
    0
171
    2
172
    0
173
    0
174
    0
175
    0
176
    0
177
    0
178
    0
179
    0
271
    2
272
    4
273
    2
274
    2
275
    0
276
    0
277
    2
278
    0
279
    0
280
    0
281
    0
282
    0
283
    1
284
    0
285
    0
286
    0
288
    0
289
    3
340
standard
341

371
   -2
372
   -2
  0
ENDTAB
  0
TABLE
  2
BLOCK_RECORD
  5
1
330
0
100
AcDbSymbolTable
 70
    2
  0
BLOCK_RECORD
  5
1F
330
1
100
AcDbSymbolTableRecord
100
AcDbBlockTableRecord
  2
*Model_Space
 70
    0
280
    1
281
    0
  0
BLOCK_RECORD
  5
1E
330
1
100
AcDbSymbolTableRecord
100
AcDbBlockTableRecord
  2
*Paper_Space
 70
    0
280
    1
281
    0
  0
ENDTAB
  0
ENDSEC
  0
SECTION
  2
BLOCKS
  0
BLOCK
  5
20
330
1F
100
AcDbEntity
  8
0
100
AcDbBlockBegin
  2
*Model_Space
 70
    0
 10
0
 20
0
 30
0
  3
*Model_Space
  1

  0
ENDBLK
  5
21
330
1F
100
AcDbEntity
  8
0
100
AcDbBlockEnd
  0
BLOCK
  5
1C
330
1B
100
AcDbEntity
  8
0
100
AcDbBlockBegin
  2
*Paper_Space
 70
    0
 10
0
 20
0
 30
0
  3
*Paper_Space
  1

  0
ENDBLK
  5
1D
330
1F
100
AcDbEntity
  8
0
100
AcDbBlockEnd
  0
ENDSEC
  0
SECTION
  2
ENTITIES
  0
LWPOLYLINE
  5
4E
100
AcDbEntity
  8
case
  6
CONTINUOUS
 62
  256
370
   -1
100
AcDbPolyline
 90
   21
 70
    0
 43
0
 10
0
 20
8.15
 10
0.0251
 20
7.5106
 10
0.1003
 20
6.8751
 10
0.2252
 20
6.2474
 10
0.3989
 20
5.6315
 10
0.6204
 20
5.0311
 10
0.8883
 20
4.45
 10
1.201
 20
3.8916
 10
1.5565
 20
3.3596
 10
1.9527
 20
2.857
 10
2.3871
 20
2.3871
 10
2.857
 20
1.9527
 10
3.3596
 20
1.5565
 10
3.8916
 20
1.201
 10
4.45
 20
0.8883
 10
5.0311
 20
0.6204
 10
5.6315
 20
0.3989
 10
6.2474
 20
0.2252
 10
6.8751
 20
0.1003
 10
7.5106
 20
0.0251
 10
8.15
 20
0
  0
LWPOLYLINE
  5
4F
100
AcDbEntity
  8
case
  6
CONTINUOUS
 62
  256
370
   -1
100
AcDbPolyline
 90
   21
 70
    0
 43
0
 10
8.15
 20
131.3001
 10
7.5106
 20
131.275
 10
6.8751
 20
131.1997
 10
6.2474
 20
131.0749
 10
5.6315
 20
130.9012
 10
5.0311
 20
130.6797
 10
4.45
 20
130.4118
 10
3.8916
 20
130.0991
 10
3.3596
 20
129.7436
 10
2.857
 20
129.3474
 10
2.3871
 20
128.913
 10
1.9527
 20
128.4431
 10
1.5565
 20
127.9405
 10
1.201
 20
127.4084
 10
0.8883
 20
126.8501
 10
0.6204
 20
126.2689
 10
0.3989
 20
125.6686
 10
0.2252
 20
125.0526
 10
0.1003
 20
124.425
 10
0.0251
 20
123.7895
 10
0
 20
123.15
  0
LWPOLYLINE
  5
50
100
AcDbEntity
  8
case
  6
CONTINUOUS
 62
  256
370
   -1
100
AcDbPolyline
 90
   21
 70
    0
 43
0
 10
84.3001
 20
123.15
 10
84.27500000000001
 20
123.7895
 10
84.1998
 20
124.425
 10
84.0749
 20
125.0526
 10
83.9012
 20
125.6685
 10
83.6797
 20
126.2689
 10
83.4118
 20
126.8501
 10
83.09910000000001
 20
127.4084
 10
82.7436
 20
127.9405
 10
82.34739999999999
 20
128.4431
 10
81.913
 20
128.913
 10
81.4431
 20
129.3474
 10
80.9405
 20
129.7436
 10
80.4084
 20
130.0991
 10
79.8501
 20
130.4118
 10
79.2689
 20
130.6797
 10
78.66849999999999
 20
130.9012
 10
78.0526
 20
131.0749
 10
77.425
 20
131.1998
 10
76.7895
 20
131.275
 10
76.15000000000001
 20
131.3001
  0
LWPOLYLINE
  5
51
100
AcDbEntity
  8
case
  6
CONTINUOUS
 62
  256
370
   -1
100
AcDbPolyline
 90
   21
 70
    0
 43
0
 10
66.15000000000001
 20
0
 10
67.5741
 20
0.056
 10
68.9893
 20
0.2235
 10
70.3871
 20
0.5014999999999999
 10
71.7587
 20
0.8883
 10
73.0958
 20
1.3816
 10
74.39
 20
1.9782
 10
75.63339999999999
 20
2.6746
 10
76.8184
 20
3.4663
 10
77.9376
 20
4.3486
 10
78.9841
 20
5.316
 10
79.9515
 20
6.3625
 10
80.83369999999999
 20
7.4817
 10
81.6255
 20
8.666700000000001
 10
82.3219
 20
9.9101
 10
82.91849999999999
 20
11.2043
 10
83.4118
 20
12.5414
 10
83.79859999999999
 20
13.913
 10
84.0766
 20
15.3107
 10
84.2441
 20
16.726
 10
84.3001
 20
18.15
  0
LWPOLYLINE
  5
52
100
AcDbEntity
  8
case
  6
CONTINUOUS
 62
  256
370
   -1
100
AcDbPolyline
 90
    2
 70
    0
 43
0
 10
8.15
 20
131.3
 10
76.15000000000001
 20
131.3
  0
LWPOLYLINE
  5
53
100
AcDbEntity
  8
case
  6
CONTINUOUS
 62
  256
370
   -1
100
AcDbPolyline
 90
    2
 70
    0
 43
0
 10
0
 20
123.15
 10
0
 20
8.15
  0
LWPOLYLINE
  5
54
100
AcDbEntity
  8
case
  6
CONTINUOUS
 62
  256
370
   -1
100
AcDbPolyline
 90
    2
 70
    0
 43
0
 10
84.3
 20
18.15
 10
84.3
 20
123.15
  0
LWPOLYLINE
  5
55
100
AcDbEntity
  8
case
  6
CONTINUOUS
 62
  256
370
   -1
100
AcDbPolyline
 90
    2
 70
    0
 43
0
 10
8.15
 20
0
 10
66.15000000000001
 20
0
  0
LWPOLYLINE
  5
56
100
AcDbEntity
  8
case
  6
CONTINUOUS
 62
  256
370
   -1
100
AcDbPolyline
 90
   13
 70
    0
 43
0
 10
12.65
 20
59.15
 10
12.65
 20
66.15000000000001
 10
19.65
 20
66.15000000000001
 10
19.65
 20
59.15
 10
26.65
 20
59.15
 10
26.65
 20
52.15
 10
19.65
 20
52.15
 10
19.65
 20
45.15
 10
12.65
 20
45.15
 10
12.65
 20
52.15
 10
5.65
 20
52.15
 10
5.65
 20
59.15
 10
12.65
 20
59.15
  0
LWPOLYLINE
  5
57
100
AcDbEntity
  8
case
  6
CONTINUOUS
 62
  256
370
   -1
100
AcDbPolyline
 90
   51
 70
    0
 43
0
 10
7.95
 20
28.65
 10
8.035600000000001
 20
29.9553
 10
8.290800000000001
 20
31.2382
 10
8.7112
 20
32.4769
 10
9.2898
 20
33.65
 10
10.0165
 20
34.7377
 10
10.879
 20
35.7211
 10
11.8624
 20
36.5836
 10
12.95
 20
37.3103
 10
14.1232
 20
37.8888
 10
15.3619
 20
38.3093
 10
16.6448
 20
38.5645
 10
17.95
 20
38.65
 10
19.2553
 20
38.5645
 10
20.5382
 20
38.3093
 10
21.7769
 20
37.8888
 10
22.95
 20
37.3103
 10
24.0377
 20
36.5836
 10
25.0211
 20
35.7211
 10
25.8836
 20
34.7377
 10
26.6103
 20
33.65
 10
27.1888
 20
32.4769
 10
27.6093
 20
31.2382
 10
27.8645
 20
29.9553
 10
27.95
 20
28.65
 10
27.95
 20
28.65
 10
27.8645
 20
27.3448
 10
27.6093
 20
26.0619
 10
27.1888
 20
24.8232
 10
26.6103
 20
23.65
 10
25.8836
 20
22.5624
 10
25.0211
 20
21.579
 10
24.0377
 20
20.7165
 10
22.95
 20
19.9898
 10
21.7769
 20
19.4112
 10
20.5382
 20
18.9908
 10
19.2553
 20
18.7356
 10
17.95
 20
18.65
 10
16.6448
 20
18.7356
 10
15.3619
 20
18.9908
 10
14.1232
 20
19.4112
 10
12.95
 20
19.9898
 10
11.8624
 20
20.7165
 10
10.879
 20
21.579
 10
10.0165
 20
22.5624
 10
9.2898
 20
23.65
 10
8.7112
 20
24.8232
 10
8.290800000000001
 20
26.0619
 10
8.035600000000001
 20
27.3448
 10
7.95
 20
28.65
 10
7.95
 20
28.65
  0
LWPOLYLINE
  5
58
100
AcDbEntity
  8
case
  6
CONTINUOUS
 62
  256
370
   -1
100
AcDbPolyline
 90
   51
 70
    0
 43
0
 10
57.15
 20
59.15
 10
57.1928
 20
59.8027
 10
57.3204
 20
60.4441
 10
57.5306
 20
61.0635
 10
57.8199
 20
61.65
 10
58.1833
 20
62.1938
 10
58.6145
 20
62.6856
 10
59.1062
 20
63.1168
 10
59.65
 20
63.4802
 10
60.2366
 20
63.7694
 10
60.8559
 20
63.9797
 10
61.4974
 20
64.1073
 10
62.15
 20
64.15000000000001
 10
62.8027
 20
64.1073
 10
63.4441
 20
63.9797
 10
64.0635
 20
63.7694
 10
64.65000000000001
 20
63.4802
 10
65.1938
 20
63.1168
 10
65.68559999999999
 20
62.6856
 10
66.1168
 20
62.1938
 10
66.4802
 20
61.65
 10
66.7694
 20
61.0635
 10
66.97969999999999
 20
60.4441
 10
67.1073
 20
59.8027
 10
67.15000000000001
 20
59.15
 10
67.15000000000001
 20
59.15
 10
67.1073
 20
58.4974
 10
66.97969999999999
 20
57.8559
 10
66.7694
 20
57.2366
 10
66.4802
 20
56.65
 10
66.1168
 20
56.1062
 10
65.68559999999999
 20
55.6145
 10
65.1938
 20
55.1833
 10
64.65000000000001
 20
54.8199
 10
64.0635
 20
54.5306
 10
63.4441
 20
54.3204
 10
62.8027
 20
54.1928
 10
62.15
 20
54.15
 10
61.4974
 20
54.1928
 10
60.8559
 20
54.3204
 10
60.2366
 20
54.5306
 10
59.65
 20
54.8199
 10
59.1062
 20
55.1833
 10
58.6145
 20
55.6145
 10
58.1833
 20
56.1062
 10
57.8199
 20
56.65
 10
57.5306
 20
57.2366
 10
57.3204
 20
57.8559
 10
57.1928
 20
58.4974
 10
57.15
 20
59.15
 10
57.15
 20
59.15
  0
LWPOLYLINE
  5
59
100
AcDbEntity
  8
case
  6
CONTINUOUS
 62
  256
370
   -1
100
AcDbPolyline
 90
   51
 70
    0
 43
0
 10
69.15000000000001
 20
47.15
 10
69.19280000000001
 20
47.8027
 10
69.32040000000001
 20
48.4441
 10
69.53060000000001
 20
49.0635
 10
69.8199
 20
49.65
 10
70.1833
 20
50.1938
 10
70.61450000000001
 20
50.6856
 10
71.1062
 20
51.1168
 10
71.65000000000001
 20
51.4802
 10
72.2366
 20
51.7694
 10
72.85590000000001
 20
51.9797
 10
73.4974
 20
52.1073
 10
74.15000000000001
 20
52.15
 10
74.8027
 20
52.1073
 10
75.44410000000001
 20
51.9797
 10
76.0635
 20
51.7694
 10
76.65000000000001
 20
51.4802
 10
77.1938
 20
51.1168
 10
77.68559999999999
 20
50.6856
 10
78.1168
 20
50.1938
 10
78.4802
 20
49.65
 10
78.7694
 20
49.0635
 10
78.97969999999999
 20
48.4441
 10
79.1073
 20
47.8027
 10
79.15000000000001
 20
47.15
 10
79.15000000000001
 20
47.15
 10
79.1073
 20
46.4974
 10
78.97969999999999
 20
45.8559
 10
78.7694
 20
45.2366
 10
78.4802
 20
44.65
 10
78.1168
 20
44.1062
 10
77.68559999999999
 20
43.6145
 10
77.1938
 20
43.1833
 10
76.65000000000001
 20
42.8199
 10
76.0635
 20
42.5306
 10
75.44410000000001
 20
42.3204
 10
74.8027
 20
42.1928
 10
74.15000000000001
 20
42.15
 10
73.4974
 20
42.1928
 10
72.85590000000001
 20
42.3204
 10
72.2366
 20
42.5306
 10
71.65000000000001
 20
42.8199
 10
71.1062
 20
43.1833
 10
70.61450000000001
 20
43.6145
 10
70.1833
 20
44.1062
 10
69.8199
 20
44.65
 10
69.53060000000001
 20
45.2366
 10
69.32040000000001
 20
45.8559
 10
69.19280000000001
 20
46.4974
 10
69.15000000000001
 20
47.15
 10
69.15000000000001
 20
47.15
  0
LWPOLYLINE
  5
5A
100
AcDbEntity
  8
case
  6
CONTINUOUS
 62
  256
370
   -1
100
AcDbPolyline
 90
   51
 70
    0
 43
0
 10
45.15
 20
47.15
 10
45.1928
 20
47.8027
 10
45.3204
 20
48.4441
 10
45.5306
 20
49.0635
 10
45.8199
 20
49.65
 10
46.1833
 20
50.1938
 10
46.6145
 20
50.6856
 10
47.1062
 20
51.1168
 10
47.65
 20
51.4802
 10
48.2366
 20
51.7694
 10
48.8559
 20
51.9797
 10
49.4974
 20
52.1073
 10
50.15
 20
52.15
 10
50.8027
 20
52.1073
 10
51.4441
 20
51.9797
 10
52.0635
 20
51.7694
 10
52.65
 20
51.4802
 10
53.1938
 20
51.1168
 10
53.6856
 20
50.6856
 10
54.1168
 20
50.1938
 10
54.4802
 20
49.65
 10
54.7694
 20
49.0635
 10
54.9797
 20
48.4441
 10
55.1073
 20
47.8027
 10
55.15
 20
47.15
 10
55.15
 20
47.15
 10
55.1073
 20
46.4974
 10
54.9797
 20
45.8559
 10
54.7694
 20
45.2366
 10
54.4802
 20
44.65
 10
54.1168
 20
44.1062
 10
53.6856
 20
43.6145
 10
53.1938
 20
43.1833
 10
52.65
 20
42.8199
 10
52.0635
 20
42.5306
 10
51.4441
 20
42.3204
 10
50.8027
 20
42.1928
 10
50.15
 20
42.15
 10
49.4974
 20
42.1928
 10
48.8559
 20
42.3204
 10
48.2366
 20
42.5306
 10
47.65
 20
42.8199
 10
47.1062
 20
43.1833
 10
46.6145
 20
43.6145
 10
46.1833
 20
44.1062
 10
45.8199
 20
44.65
 10
45.5306
 20
45.2366
 10
45.3204
 20
45.8559
 10
45.1928
 20
46.4974
 10
45.15
 20
47.15
 10
45.15
 20
47.15
  0
LWPOLYLINE
  5
5B
100
AcDbEntity
  8
case
  6
CONTINUOUS
 62
  256
370
   -1
100
AcDbPolyline
 90
   51
 70
    0
 43
0
 10
57.15
 20
35.15
 10
57.1928
 20
35.8027
 10
57.3204
 20
36.4441
 10
57.5306
 20
37.0635
 10
57.8199
 20
37.65
 10
58.1833
 20
38.1938
 10
58.6145
 20
38.6856
 10
59.1062
 20
39.1168
 10
59.65
 20
39.4802
 10
60.2366
 20
39.7694
 10
60.8559
 20
39.9797
 10
61.4974
 20
40.1073
 10
62.15
 20
40.15
 10
62.8027
 20
40.1073
 10
63.4441
 20
39.9797
 10
64.0635
 20
39.7694
 10
64.65000000000001
 20
39.4802
 10
65.1938
 20
39.1168
 10
65.68559999999999
 20
38.6856
 10
66.1168
 20
38.1938
 10
66.4802
 20
37.65
 10
66.7694
 20
37.0635
 10
66.97969999999999
 20
36.4441
 10
67.1073
 20
35.8027
 10
67.15000000000001
 20
35.15
 10
67.15000000000001
 20
35.15
 10
67.1073
 20
34.4974
 10
66.97969999999999
 20
33.8559
 10
66.7694
 20
33.2366
 10
66.4802
 20
32.65
 10
66.1168
 20
32.1062
 10
65.68559999999999
 20
31.6145
 10
65.1938
 20
31.1833
 10
64.65000000000001
 20
30.8199
 10
64.0635
 20
30.5306
 10
63.4441
 20
30.3204
 10
62.8027
 20
30.1928
 10
62.15
 20
30.15
 10
61.4974
 20
30.1928
 10
60.8559
 20
30.3204
 10
60.2366
 20
30.5306
 10
59.65
 20
30.8199
 10
59.1062
 20
31.1833
 10
58.6145
 20
31.6145
 10
58.1833
 20
32.1062
 10
57.8199
 20
32.65
 10
57.5306
 20
33.2366
 10
57.3204
 20
33.8559
 10
57.1928
 20
34.4974
 10
57.15
 20
35.15
 10
57.15
 20
35.15
  0
LWPOLYLINE
  5
5C
100
AcDbEntity
  8
case
  6
CONTINUOUS
 62
  256
370
   -1
100
AcDbPolyline
 90
   51
 70
    0
 43
0
 10
25.65
 20
14.65
 10
25.6714
 20
14.9764
 10
25.7352
 20
15.2971
 10
25.8403
 20
15.6068
 10
25.985
 20
15.9
 10
26.1667
 20
16.1719
 10
26.3823
 20
16.4178
 10
26.6281
 20
16.6334
 10
26.9
 20
16.8151
 10
27.1933
 20
16.9597
 10
27.503
 20
17.0649
 10
27.8237
 20
17.1287
 10
28.15
 20
17.15
 10
28.4764
 20
17.1287
 10
28.7971
 20
17.0649
 10
29.1068
 20
16.9597
 10
29.4
 20
16.8151
 10
29.6719
 20
16.6334
 10
29.9178
 20
16.4178
 10
30.1334
 20
16.1719
 10
30.3151
 20
15.9
 10
30.4597
 20
15.6068
 10
30.5649
 20
15.2971
 10
30.6287
 20
14.9764
 10
30.65
 20
14.65
 10
30.65
 20
9.65
 10
30.6287
 20
9.323700000000001
 10
30.5649
 20
9.003
 10
30.4597
 20
8.693300000000001
 10
30.3151
 20
8.4
 10
30.1334
 20
8.1281
 10
29.9178
 20
7.8823
 10
29.6719
 20
7.6667
 10
29.4
 20
7.485
 10
29.1068
 20
7.3403
 10
28.7971
 20
7.2352
 10
28.4764
 20
7.1714
 10
28.15
 20
7.15
 10
27.8237
 20
7.1714
 10
27.503
 20
7.2352
 10
27.1933
 20
7.3403
 10
26.9
 20
7.485
 10
26.6281
 20
7.6667
 10
26.3823
 20
7.8823
 10
26.1667
 20
8.1281
 10
25.985
 20
8.4
 10
25.8403
 20
8.693300000000001
 10
25.7352
 20
9.003
 10
25.6714
 20
9.323700000000001
 10
25.65
 20
9.65
 10
25.65
 20
14.65
  0
LWPOLYLINE
  5
5D
100
AcDbEntity
  8
case
  6
CONTINUOUS
 62
  256
370
   -1
100
AcDbPolyline
 90
   51
 70
    0
 43
0
 10
53.65
 20
9.65
 10
53.3237
 20
9.6714
 10
53.003
 20
9.735200000000001
 10
52.6933
 20
9.840299999999999
 10
52.4
 20
9.984999999999999
 10
52.1281
 20
10.1667
 10
51.8823
 20
10.3823
 10
51.6667
 20
10.6281
 10
51.485
 20
10.9
 10
51.3403
 20
11.1933
 10
51.2352
 20
11.503
 10
51.1714
 20
11.8237
 10
51.15
 20
12.15
 10
51.1714
 20
12.4764
 10
51.2352
 20
12.7971
 10
51.3403
 20
13.1068
 10
51.485
 20
13.4
 10
51.6667
 20
13.6719
 10
51.8823
 20
13.9178
 10
52.1281
 20
14.1334
 10
52.4
 20
14.3151
 10
52.6933
 20
14.4597
 10
53.003
 20
14.5649
 10
53.3237
 20
14.6287
 10
53.65
 20
14.65
 10
58.65
 20
14.65
 10
58.9764
 20
14.6287
 10
59.2971
 20
14.5649
 10
59.6068
 20
14.4597
 10
59.9
 20
14.3151
 10
60.1719
 20
14.1334
 10
60.4178
 20
13.9178
 10
60.6334
 20
13.6719
 10
60.8151
 20
13.4
 10
60.9597
 20
13.1068
 10
61.0649
 20
12.7971
 10
61.1287
 20
12.4764
 10
61.15
 20
12.15
 10
61.1287
 20
11.8237
 10
61.0649
 20
11.503
 10
60.9597
 20
11.1933
 10
60.8151
 20
10.9
 10
60.6334
 20
10.6281
 10
60.4178
 20
10.3823
 10
60.1719
 20
10.1667
 10
59.9
 20
9.984999999999999
 10
59.6068
 20
9.840299999999999
 10
59.2971
 20
9.735200000000001
 10
58.9764
 20
9.6714
 10
58.65
 20
9.65
 10
53.65
 20
9.65
  0
LWPOLYLINE
  5
5E
100
AcDbEntity
  8
case
  6
CONTINUOUS
 62
  256
370
   -1
100
AcDbPolyline
 90
   51
 70
    0
 43
0
 10
41.15
 20
21.65
 10
41.1586
 20
21.7806
 10
41.1841
 20
21.9089
 10
41.2262
 20
22.0327
 10
41.284
 20
22.15
 10
41.3567
 20
22.2588
 10
41.4429
 20
22.3571
 10
41.5413
 20
22.4434
 10
41.65
 20
22.5161
 10
41.7674
 20
22.5739
 10
41.8912
 20
22.616
 10
42.0195
 20
22.6415
 10
42.15
 20
22.65
 10
42.2806
 20
22.6415
 10
42.4089
 20
22.616
 10
42.5327
 20
22.5739
 10
42.65
 20
22.5161
 10
42.7588
 20
22.4434
 10
42.8571
 20
22.3571
 10
42.9434
 20
22.2588
 10
43.0161
 20
22.15
 10
43.0739
 20
22.0327
 10
43.116
 20
21.9089
 10
43.1415
 20
21.7806
 10
43.15
 20
21.65
 10
43.15
 20
21.65
 10
43.1415
 20
21.5195
 10
43.116
 20
21.3912
 10
43.0739
 20
21.2674
 10
43.0161
 20
21.15
 10
42.9434
 20
21.0413
 10
42.8571
 20
20.9429
 10
42.7588
 20
20.8567
 10
42.65
 20
20.784
 10
42.5327
 20
20.7262
 10
42.4089
 20
20.6841
 10
42.2806
 20
20.6586
 10
42.15
 20
20.65
 10
42.0195
 20
20.6586
 10
41.8912
 20
20.6841
 10
41.7674
 20
20.7262
 10
41.65
 20
20.784
 10
41.5413
 20
20.8567
 10
41.4429
 20
20.9429
 10
41.3567
 20
21.0413
 10
41.284
 20
21.15
 10
41.2262
 20
21.2674
 10
41.1841
 20
21.3912
 10
41.1586
 20
21.5195
 10
41.15
 20
21.65
 10
41.15
 20
21.65
  0
LWPOLYLINE
  5
5F
100
AcDbEntity
  8
case
  6
CONTINUOUS
 62
  256
370
   -1
100
AcDbPolyline
 90
   51
 70
    0
 43
0
 10
46.15
 20
21.65
 10
46.1586
 20
21.7806
 10
46.1841
 20
21.9089
 10
46.2262
 20
22.0327
 10
46.284
 20
22.15
 10
46.3567
 20
22.2588
 10
46.4429
 20
22.3571
 10
46.5413
 20
22.4434
 10
46.65
 20
22.5161
 10
46.7674
 20
22.5739
 10
46.8912
 20
22.616
 10
47.0195
 20
22.6415
 10
47.15
 20
22.65
 10
47.2806
 20
22.6415
 10
47.4089
 20
22.616
 10
47.5327
 20
22.5739
 10
47.65
 20
22.5161
 10
47.7588
 20
22.4434
 10
47.8571
 20
22.3571
 10
47.9434
 20
22.2588
 10
48.0161
 20
22.15
 10
48.0739
 20
22.0327
 10
48.116
 20
21.9089
 10
48.1415
 20
21.7806
 10
48.15
 20
21.65
 10
48.15
 20
21.65
 10
48.1415
 20
21.5195
 10
48.116
 20
21.3912
 10
48.0739
 20
21.2674
 10
48.0161
 20
21.15
 10
47.9434
 20
21.0413
 10
47.8571
 20
20.9429
 10
47.7588
 20
20.8567
 10
47.65
 20
20.784
 10
47.5327
 20
20.7262
 10
47.4089
 20
20.6841
 10
47.2806
 20
20.6586
 10
47.15
 20
20.65
 10
47.0195
 20
20.6586
 10
46.8912
 20
20.6841
 10
46.7674
 20
20.7262
 10
46.65
 20
20.784
 10
46.5413
 20
20.8567
 10
46.4429
 20
20.9429
 10
46.3567
 20
21.0413
 10
46.284
 20
21.15
 10
46.2262
 20
21.2674
 10
46.1841
 20
21.3912
 10
46.1586
 20
21.5195
 10
46.15
 20
21.65
 10
46.15
 20
21.65
  0
LWPOLYLINE
  5
60
100
AcDbEntity
  8
case
  6
CONTINUOUS
 62
  256
370
   -1
100
AcDbPolyline
 90
   51
 70
    0
 43
0
 10
36.15
 20
21.65
 10
36.1586
 20
21.7806
 10
36.1841
 20
21.9089
 10
36.2262
 20
22.0327
 10
36.284
 20
22.15
 10
36.3567
 20
22.2588
 10
36.4429
 20
22.3571
 10
36.5413
 20
22.4434
 10
36.65
 20
22.5161
 10
36.7674
 20
22.5739
 10
36.8912
 20
22.616
 10
37.0195
 20
22.6415
 10
37.15
 20
22.65
 10
37.2806
 20
22.6415
 10
37.4089
 20
22.616
 10
37.5327
 20
22.5739
 10
37.65
 20
22.5161
 10
37.7588
 20
22.4434
 10
37.8571
 20
22.3571
 10
37.9434
 20
22.2588
 10
38.0161
 20
22.15
 10
38.0739
 20
22.0327
 10
38.116
 20
21.9089
 10
38.1415
 20
21.7806
 10
38.15
 20
21.65
 10
38.15
 20
21.65
 10
38.1415
 20
21.5195
 10
38.116
 20
21.3912
 10
38.0739
 20
21.2674
 10
38.0161
 20
21.15
 10
37.9434
 20
21.0413
 10
37.8571
 20
20.9429
 10
37.7588
 20
20.8567
 10
37.65
 20
20.784
 10
37.5327
 20
20.7262
 10
37.4089
 20
20.6841
 10
37.2806
 20
20.6586
 10
37.15
 20
20.65
 10
37.0195
 20
20.6586
 10
36.8912
 20
20.6841
 10
36.7674
 20
20.7262
 10
36.65
 20
20.784
 10
36.5413
 20
20.8567
 10
36.4429
 20
20.9429
 10
36.3567
 20
21.0413
 10
36.284
 20
21.15
 10
36.2262
 20
21.2674
 10
36.1841
 20
21.3912
 10
36.1586
 20
21.5195
 10
36.15
 20
21.65
 10
36.15
 20
21.65
  0
LWPOLYLINE
  5
61
100
AcDbEntity
  8
case
  6
CONTINUOUS
 62
  256
370
   -1
100
AcDbPolyline
 90
   51
 70
    0
 43
0
 10
43.65
 20
24.15
 10
43.6586
 20
24.2806
 10
43.6841
 20
24.4089
 10
43.7262
 20
24.5327
 10
43.784
 20
24.65
 10
43.8567
 20
24.7588
 10
43.9429
 20
24.8571
 10
44.0413
 20
24.9434
 10
44.15
 20
25.0161
 10
44.2674
 20
25.0739
 10
44.3912
 20
25.116
 10
44.5195
 20
25.1415
 10
44.65
 20
25.15
 10
44.7806
 20
25.1415
 10
44.9089
 20
25.116
 10
45.0327
 20
25.0739
 10
45.15
 20
25.0161
 10
45.2588
 20
24.9434
 10
45.3571
 20
24.8571
 10
45.4434
 20
24.7588
 10
45.5161
 20
24.65
 10
45.5739
 20
24.5327
 10
45.616
 20
24.4089
 10
45.6415
 20
24.2806
 10
45.65
 20
24.15
 10
45.65
 20
24.15
 10
45.6415
 20
24.0195
 10
45.616
 20
23.8912
 10
45.5739
 20
23.7674
 10
45.5161
 20
23.65
 10
45.4434
 20
23.5413
 10
45.3571
 20
23.4429
 10
45.2588
 20
23.3567
 10
45.15
 20
23.284
 10
45.0327
 20
23.2262
 10
44.9089
 20
23.1841
 10
44.7806
 20
23.1586
 10
44.65
 20
23.15
 10
44.5195
 20
23.1586
 10
44.3912
 20
23.1841
 10
44.2674
 20
23.2262
 10
44.15
 20
23.284
 10
44.0413
 20
23.3567
 10
43.9429
 20
23.4429
 10
43.8567
 20
23.5413
 10
43.784
 20
23.65
 10
43.7262
 20
23.7674
 10
43.6841
 20
23.8912
 10
43.6586
 20
24.0195
 10
43.65
 20
24.15
 10
43.65
 20
24.15
  0
LWPOLYLINE
  5
62
100
AcDbEntity
  8
case
  6
CONTINUOUS
 62
  256
370
   -1
100
AcDbPolyline
 90
   51
 70
    0
 43
0
 10
48.65
 20
24.15
 10
48.6586
 20
24.2806
 10
48.6841
 20
24.4089
 10
48.7262
 20
24.5327
 10
48.784
 20
24.65
 10
48.8567
 20
24.7588
 10
48.9429
 20
24.8571
 10
49.0413
 20
24.9434
 10
49.15
 20
25.0161
 10
49.2674
 20
25.0739
 10
49.3912
 20
25.116
 10
49.5195
 20
25.1415
 10
49.65
 20
25.15
 10
49.7806
 20
25.1415
 10
49.9089
 20
25.116
 10
50.0327
 20
25.0739
 10
50.15
 20
25.0161
 10
50.2588
 20
24.9434
 10
50.3571
 20
24.8571
 10
50.4434
 20
24.7588
 10
50.5161
 20
24.65
 10
50.5739
 20
24.5327
 10
50.616
 20
24.4089
 10
50.6415
 20
24.2806
 10
50.65
 20
24.15
 10
50.65
 20
24.15
 10
50.6415
 20
24.0195
 10
50.616
 20
23.8912
 10
50.5739
 20
23.7674
 10
50.5161
 20
23.65
 10
50.4434
 20
23.5413
 10
50.3571
 20
23.4429
 10
50.2588
 20
23.3567
 10
50.15
 20
23.284
 10
50.0327
 20
23.2262
 10
49.9089
 20
23.1841
 10
49.7806
 20
23.1586
 10
49.65
 20
23.15
 10
49.5195
 20
23.1586
 10
49.3912
 20
23.1841
 10
49.2674
 20
23.2262
 10
49.15
 20
23.284
 10
49.0413
 20
23.3567
 10
48.9429
 20
23.4429
 10
48.8567
 20
23.5413
 10
48.784
 20
23.65
 10
48.7262
 20
23.7674
 10
48.6841
 20
23.8912
 10
48.6586
 20
24.0195
 10
48.65
 20
24.15
 10
48.65
 20
24.15
  0
LWPOLYLINE
  5
63
100
AcDbEntity
  8
case
  6
CONTINUOUS
 62
  256
370
   -1
100
AcDbPolyline
 90
   51
 70
    0
 43
0
 10
33.65
 20
24.15
 10
33.6586
 20
24.2806
 10
33.6841
 20
24.4089
 10
33.7262
 20
24.5327
 10
33.784
 20
24.65
 10
33.8567
 20
24.7588
 10
33.9429
 20
24.8571
 10
34.0413
 20
24.9434
 10
34.15
 20
25.0161
 10
34.2674
 20
25.0739
 10
34.3912
 20
25.116
 10
34.5195
 20
25.1415
 10
34.65
 20
25.15
 10
34.7806
 20
25.1415
 10
34.9089
 20
25.116
 10
35.0327
 20
25.0739
 10
35.15
 20
25.0161
 10
35.2588
 20
24.9434
 10
35.3571
 20
24.8571
 10
35.4434
 20
24.7588
 10
35.5161
 20
24.65
 10
35.5739
 20
24.5327
 10
35.616
 20
24.4089
 10
35.6415
 20
24.2806
 10
35.65
 20
24.15
 10
35.65
 20
24.15
 10
35.6415
 20
24.0195
 10
35.616
 20
23.8912
 10
35.5739
 20
23.7674
 10
35.5161
 20
23.65
 10
35.4434
 20
23.5413
 10
35.3571
 20
23.4429
 10
35.2588
 20
23.3567
 10
35.15
 20
23.284
 10
35.0327
 20
23.2262
 10
34.9089
 20
23.1841
 10
34.7806
 20
23.1586
 10
34.65
 20
23.15
 10
34.5195
 20
23.1586
 10
34.3912
 20
23.1841
 10
34.2674
 20
23.2262
 10
34.15
 20
23.284
 10
34.0413
 20
23.3567
 10
33.9429
 20
23.4429
 10
33.8567
 20
23.5413
 10
33.784
 20
23.65
 10
33.7262
 20
23.7674
 10
33.6841
 20
23.8912
 10
33.6586
 20
24.0195
 10
33.65
 20
24.15
 10
33.65
 20
24.15
  0
LWPOLYLINE
  5
64
100
AcDbEntity
  8
case
  6
CONTINUOUS
 62
  256
370
   -1
100
AcDbPolyline
 90
   51
 70
    0
 43
0
 10
38.65
 20
24.15
 10
38.6586
 20
24.2806
 10
38.6841
 20
24.4089
 10
38.7262
 20
24.5327
 10
38.784
 20
24.65
 10
38.8567
 20
24.7588
 10
38.9429
 20
24.8571
 10
39.0413
 20
24.9434
 10
39.15
 20
25.0161
 10
39.2674
 20
25.0739
 10
39.3912
 20
25.116
 10
39.5195
 20
25.1415
 10
39.65
 20
25.15
 10
39.7806
 20
25.1415
 10
39.9089
 20
25.116
 10
40.0327
 20
25.0739
 10
40.15
 20
25.0161
 10
40.2588
 20
24.9434
 10
40.3571
 20
24.8571
 10
40.4434
 20
24.7588
 10
40.5161
 20
24.65
 10
40.5739
 20
24.5327
 10
40.616
 20
24.4089
 10
40.6415
 20
24.2806
 10
40.65
 20
24.15
 10
40.65
 20
24.15
 10
40.6415
 20
24.0195
 10
40.616
 20
23.8912
 10
40.5739
 20
23.7674
 10
40.5161
 20
23.65
 10
40.4434
 20
23.5413
 10
40.3571
 20
23.4429
 10
40.2588
 20
23.3567
 10
40.15
 20
23.284
 10
40.0327
 20
23.2262
 10
39.9089
 20
23.1841
 10
39.7806
 20
23.1586
 10
39.65
 20
23.15
 10
39.5195
 20
23.1586
 10
39.3912
 20
23.1841
 10
39.2674
 20
23.2262
 10
39.15
 20
23.284
 10
39.0413
 20
23.3567
 10
38.9429
 20
23.4429
 10
38.8567
 20
23.5413
 10
38.784
 20
23.65
 10
38.7262
 20
23.7674
 10
38.6841
 20
23.8912
 10
38.6586
 20
24.0195
 10
38.65
 20
24.15
 10
38.65
 20
24.15
  0
LWPOLYLINE
  5
65
100
AcDbEntity
  8
case
  6
CONTINUOUS
 62
  256
370
   -1
100
AcDbPolyline
 90
   51
 70
    0
 43
0
 10
41.15
 20
26.65
 10
41.1586
 20
26.7806
 10
41.1841
 20
26.9089
 10
41.2262
 20
27.0327
 10
41.284
 20
27.15
 10
41.3567
 20
27.2588
 10
41.4429
 20
27.3571
 10
41.5413
 20
27.4434
 10
41.65
 20
27.5161
 10
41.7674
 20
27.5739
 10
41.8912
 20
27.616
 10
42.0195
 20
27.6415
 10
42.15
 20
27.65
 10
42.2806
 20
27.6415
 10
42.4089
 20
27.616
 10
42.5327
 20
27.5739
 10
42.65
 20
27.5161
 10
42.7588
 20
27.4434
 10
42.8571
 20
27.3571
 10
42.9434
 20
27.2588
 10
43.0161
 20
27.15
 10
43.0739
 20
27.0327
 10
43.116
 20
26.9089
 10
43.1415
 20
26.7806
 10
43.15
 20
26.65
 10
43.15
 20
26.65
 10
43.1415
 20
26.5195
 10
43.116
 20
26.3912
 10
43.0739
 20
26.2674
 10
43.0161
 20
26.15
 10
42.9434
 20
26.0413
 10
42.8571
 20
25.9429
 10
42.7588
 20
25.8567
 10
42.65
 20
25.784
 10
42.5327
 20
25.7262
 10
42.4089
 20
25.6841
 10
42.2806
 20
25.6586
 10
42.15
 20
25.65
 10
42.0195
 20
25.6586
 10
41.8912
 20
25.6841
 10
41.7674
 20
25.7262
 10
41.65
 20
25.784
 10
41.5413
 20
25.8567
 10
41.4429
 20
25.9429
 10
41.3567
 20
26.0413
 10
41.284
 20
26.15
 10
41.2262
 20
26.2674
 10
41.1841
 20
26.3912
 10
41.1586
 20
26.5195
 10
41.15
 20
26.65
 10
41.15
 20
26.65
  0
LWPOLYLINE
  5
66
100
AcDbEntity
  8
case
  6
CONTINUOUS
 62
  256
370
   -1
100
AcDbPolyline
 90
   51
 70
    0
 43
0
 10
46.15
 20
26.65
 10
46.1586
 20
26.7806
 10
46.1841
 20
26.9089
 10
46.2262
 20
27.0327
 10
46.284
 20
27.15
 10
46.3567
 20
27.2588
 10
46.4429
 20
27.3571
 10
46.5413
 20
27.4434
 10
46.65
 20
27.5161
 10
46.7674
 20
27.5739
 10
46.8912
 20
27.616
 10
47.0195
 20
27.6415
 10
47.15
 20
27.65
 10
47.2806
 20
27.6415
 10
47.4089
 20
27.616
 10
47.5327
 20
27.5739
 10
47.65
 20
27.5161
 10
47.7588
 20
27.4434
 10
47.8571
 20
27.3571
 10
47.9434
 20
27.2588
 10
48.0161
 20
27.15
 10
48.0739
 20
27.0327
 10
48.116
 20
26.9089
 10
48.1415
 20
26.7806
 10
48.15
 20
26.65
 10
48.15
 20
26.65
 10
48.1415
 20
26.5195
 10
48.116
 20
26.3912
 10
48.0739
 20
26.2674
 10
48.0161
 20
26.15
 10
47.9434
 20
26.0413
 10
47.8571
 20
25.9429
 10
47.7588
 20
25.8567
 10
47.65
 20
25.784
 10
47.5327
 20
25.7262
 10
47.4089
 20
25.6841
 10
47.2806
 20
25.6586
 10
47.15
 20
25.65
 10
47.0195
 20
25.6586
 10
46.8912
 20
25.6841
 10
46.7674
 20
25.7262
 10
46.65
 20
25.784
 10
46.5413
 20
25.8567
 10
46.4429
 20
25.9429
 10
46.3567
 20
26.0413
 10
46.284
 20
26.15
 10
46.2262
 20
26.2674
 10
46.1841
 20
26.3912
 10
46.1586
 20
26.5195
 10
46.15
 20
26.65
 10
46.15
 20
26.65
  0
LWPOLYLINE
  5
67
100
AcDbEntity
  8
case
  6
CONTINUOUS
 62
  256
370
   -1
100
AcDbPolyline
 90
   51
 70
    0
 43
0
 10
36.15
 20
26.65
 10
36.1586
 20
26.7806
 10
36.1841
 20
26.9089
 10
36.2262
 20
27.0327
 10
36.284
 20
27.15
 10
36.3567
 20
27.2588
 10
36.4429
 20
27.3571
 10
36.5413
 20
27.4434
 10
36.65
 20
27.5161
 10
36.7674
 20
27.5739
 10
36.8912
 20
27.616
 10
37.0195
 20
27.6415
 10
37.15
 20
27.65
 10
37.2806
 20
27.6415
 10
37.4089
 20
27.616
 10
37.5327
 20
27.5739
 10
37.65
 20
27.5161
 10
37.7588
 20
27.4434
 10
37.8571
 20
27.3571
 10
37.9434
 20
27.2588
 10
38.0161
 20
27.15
 10
38.0739
 20
27.0327
 10
38.116
 20
26.9089
 10
38.1415
 20
26.7806
 10
38.15
 20
26.65
 10
38.15
 20
26.65
 10
38.1415
 20
26.5195
 10
38.116
 20
26.3912
 10
38.0739
 20
26.2674
 10
38.0161
 20
26.15
 10
37.9434
 20
26.0413
 10
37.8571
 20
25.9429
 10
37.7588
 20
25.8567
 10
37.65
 20
25.784
 10
37.5327
 20
25.7262
 10
37.4089
 20
25.6841
 10
37.2806
 20
25.6586
 10
37.15
 20
25.65
 10
37.0195
 20
25.6586
 10
36.8912
 20
25.6841
 10
36.7674
 20
25.7262
 10
36.65
 20
25.784
 10
36.5413
 20
25.8567
 10
36.4429
 20
25.9429
 10
36.3567
 20
26.0413
 10
36.284
 20
26.15
 10
36.2262
 20
26.2674
 10
36.1841
 20
26.3912
 10
36.1586
 20
26.5195
 10
36.15
 20
26.65
 10
36.15
 20
26.65
  0
LWPOLYLINE
  5
68
100
AcDbEntity
  8
case
  6
CONTINUOUS
 62
  256
370
   -1
100
AcDbPolyline
 90
   51
 70
    0
 43
0
 10
43.65
 20
29.15
 10
43.6586
 20
29.2806
 10
43.6841
 20
29.4089
 10
43.7262
 20
29.5327
 10
43.784
 20
29.65
 10
43.8567
 20
29.7588
 10
43.9429
 20
29.8571
 10
44.0413
 20
29.9434
 10
44.15
 20
30.0161
 10
44.2674
 20
30.0739
 10
44.3912
 20
30.116
 10
44.5195
 20
30.1415
 10
44.65
 20
30.15
 10
44.7806
 20
30.1415
 10
44.9089
 20
30.116
 10
45.0327
 20
30.0739
 10
45.15
 20
30.0161
 10
45.2588
 20
29.9434
 10
45.3571
 20
29.8571
 10
45.4434
 20
29.7588
 10
45.5161
 20
29.65
 10
45.5739
 20
29.5327
 10
45.616
 20
29.4089
 10
45.6415
 20
29.2806
 10
45.65
 20
29.15
 10
45.65
 20
29.15
 10
45.6415
 20
29.0195
 10
45.616
 20
28.8912
 10
45.5739
 20
28.7674
 10
45.5161
 20
28.65
 10
45.4434
 20
28.5413
 10
45.3571
 20
28.4429
 10
45.2588
 20
28.3567
 10
45.15
 20
28.284
 10
45.0327
 20
28.2262
 10
44.9089
 20
28.1841
 10
44.7806
 20
28.1586
 10
44.65
 20
28.15
 10
44.5195
 20
28.1586
 10
44.3912
 20
28.1841
 10
44.2674
 20
28.2262
 10
44.15
 20
28.284
 10
44.0413
 20
28.3567
 10
43.9429
 20
28.4429
 10
43.8567
 20
28.5413
 10
43.784
 20
28.65
 10
43.7262
 20
28.7674
 10
43.6841
 20
28.8912
 10
43.6586
 20
29.0195
 10
43.65
 20
29.15
 10
43.65
 20
29.15
  0
LWPOLYLINE
  5
69
100
AcDbEntity
  8
case
  6
CONTINUOUS
 62
  256
370
   -1
100
AcDbPolyline
 90
   51
 70
    0
 43
0
 10
48.65
 20
29.15
 10
48.6586
 20
29.2806
 10
48.6841
 20
29.4089
 10
48.7262
 20
29.5327
 10
48.784
 20
29.65
 10
48.8567
 20
29.7588
 10
48.9429
 20
29.8571
 10
49.0413
 20
29.9434
 10
49.15
 20
30.0161
 10
49.2674
 20
30.0739
 10
49.3912
 20
30.116
 10
49.5195
 20
30.1415
 10
49.65
 20
30.15
 10
49.7806
 20
30.1415
 10
49.9089
 20
30.116
 10
50.0327
 20
30.0739
 10
50.15
 20
30.0161
 10
50.2588
 20
29.9434
 10
50.3571
 20
29.8571
 10
50.4434
 20
29.7588
 10
50.5161
 20
29.65
 10
50.5739
 20
29.5327
 10
50.616
 20
29.4089
 10
50.6415
 20
29.2806
 10
50.65
 20
29.15
 10
50.65
 20
29.15
 10
50.6415
 20
29.0195
 10
50.616
 20
28.8912
 10
50.5739
 20
28.7674
 10
50.5161
 20
28.65
 10
50.4434
 20
28.5413
 10
50.3571
 20
28.4429
 10
50.2588
 20
28.3567
 10
50.15
 20
28.284
 10
50.0327
 20
28.2262
 10
49.9089
 20
28.1841
 10
49.7806
 20
28.1586
 10
49.65
 20
28.15
 10
49.5195
 20
28.1586
 10
49.3912
 20
28.1841
 10
49.2674
 20
28.2262
 10
49.15
 20
28.284
 10
49.0413
 20
28.3567
 10
48.9429
 20
28.4429
 10
48.8567
 20
28.5413
 10
48.784
 20
28.65
 10
48.7262
 20
28.7674
 10
48.6841
 20
28.8912
 10
48.6586
 20
29.0195
 10
48.65
 20
29.15
 10
48.65
 20
29.15
  0
LWPOLYLINE
  5
6A
100
AcDbEntity
  8
case
  6
CONTINUOUS
 62
  256
370
   -1
100
AcDbPolyline
 90
   51
 70
    0
 43
0
 10
33.65
 20
29.15
 10
33.6586
 20
29.2806
 10
33.6841
 20
29.4089
 10
33.7262
 20
29.5327
 10
33.784
 20
29.65
 10
33.8567
 20
29.7588
 10
33.9429
 20
29.8571
 10
34.0413
 20
29.9434
 10
34.15
 20
30.0161
 10
34.2674
 20
30.0739
 10
34.3912
 20
30.116
 10
34.5195
 20
30.1415
 10
34.65
 20
30.15
 10
34.7806
 20
30.1415
 10
34.9089
 20
30.116
 10
35.0327
 20
30.0739
 10
35.15
 20
30.0161
 10
35.2588
 20
29.9434
 10
35.3571
 20
29.8571
 10
35.4434
 20
29.7588
 10
35.5161
 20
29.65
 10
35.5739
 20
29.5327
 10
35.616
 20
29.4089
 10
35.6415
 20
29.2806
 10
35.65
 20
29.15
 10
35.65
 20
29.15
 10
35.6415
 20
29.0195
 10
35.616
 20
28.8912
 10
35.5739
 20
28.7674
 10
35.5161
 20
28.65
 10
35.4434
 20
28.5413
 10
35.3571
 20
28.4429
 10
35.2588
 20
28.3567
 10
35.15
 20
28.284
 10
35.0327
 20
28.2262
 10
34.9089
 20
28.1841
 10
34.7806
 20
28.1586
 10
34.65
 20
28.15
 10
34.5195
 20
28.1586
 10
34.3912
 20
28.1841
 10
34.2674
 20
28.2262
 10
34.15
 20
28.284
 10
34.0413
 20
28.3567
 10
33.9429
 20
28.4429
 10
33.8567
 20
28.5413
 10
33.784
 20
28.65
 10
33.7262
 20
28.7674
 10
33.6841
 20
28.8912
 10
33.6586
 20
29.0195
 10
33.65
 20
29.15
 10
33.65
 20
29.15
  0
LWPOLYLINE
  5
6B
100
AcDbEntity
  8
case
  6
CONTINUOUS
 62
  256
370
   -1
100
AcDbPolyline
 90
   51
 70
    0
 43
0
 10
38.65
 20
29.15
 10
38.6586
 20
29.2806
 10
38.6841
 20
29.4089
 10
38.7262
 20
29.5327
 10
38.784
 20
29.65
 10
38.8567
 20
29.7588
 10
38.9429
 20
29.8571
 10
39.0413
 20
29.9434
 10
39.15
 20
30.0161
 10
39.2674
 20
30.0739
 10
39.3912
 20
30.116
 10
39.5195
 20
30.1415
 10
39.65
 20
30.15
 10
39.7806
 20
30.1415
 10
39.9089
 20
30.116
 10
40.0327
 20
30.0739
 10
40.15
 20
30.0161
 10
40.2588
 20
29.9434
 10
40.3571
 20
29.8571
 10
40.4434
 20
29.7588
 10
40.5161
 20
29.65
 10
40.5739
 20
29.5327
 10
40.616
 20
29.4089
 10
40.6415
 20
29.2806
 10
40.65
 20
29.15
 10
40.65
 20
29.15
 10
40.6415
 20
29.0195
 10
40.616
 20
28.8912
 10
40.5739
 20
28.7674
 10
40.5161
 20
28.65
 10
40.4434
 20
28.5413
 10
40.3571
 20
28.4429
 10
40.2588
 20
28.3567
 10
40.15
 20
28.284
 10
40.0327
 20
28.2262
 10
39.9089
 20
28.1841
 10
39.7806
 20
28.1586
 10
39.65
 20
28.15
 10
39.5195
 20
28.1586
 10
39.3912
 20
28.1841
 10
39.2674
 20
28.2262
 10
39.15
 20
28.284
 10
39.0413
 20
28.3567
 10
38.9429
 20
28.4429
 10
38.8567
 20
28.5413
 10
38.784
 20
28.65
 10
38.7262
 20
28.7674
 10
38.6841
 20
28.8912
 10
38.6586
 20
29.0195
 10
38.65
 20
29.15
 10
38.65
 20
29.15
  0
LWPOLYLINE
  5
6C
100
AcDbEntity
  8
case
  6
CONTINUOUS
 62
  256
370
   -1
100
AcDbPolyline
 90
   51
 70
    0
 43
0
 10
41.15
 20
31.65
 10
41.1586
 20
31.7806
 10
41.1841
 20
31.9089
 10
41.2262
 20
32.0327
 10
41.284
 20
32.15
 10
41.3567
 20
32.2588
 10
41.4429
 20
32.3571
 10
41.5413
 20
32.4434
 10
41.65
 20
32.5161
 10
41.7674
 20
32.5739
 10
41.8912
 20
32.616
 10
42.0195
 20
32.6415
 10
42.15
 20
32.65
 10
42.2806
 20
32.6415
 10
42.4089
 20
32.616
 10
42.5327
 20
32.5739
 10
42.65
 20
32.5161
 10
42.7588
 20
32.4434
 10
42.8571
 20
32.3571
 10
42.9434
 20
32.2588
 10
43.0161
 20
32.15
 10
43.0739
 20
32.0327
 10
43.116
 20
31.9089
 10
43.1415
 20
31.7806
 10
43.15
 20
31.65
 10
43.15
 20
31.65
 10
43.1415
 20
31.5195
 10
43.116
 20
31.3912
 10
43.0739
 20
31.2674
 10
43.0161
 20
31.15
 10
42.9434
 20
31.0413
 10
42.8571
 20
30.9429
 10
42.7588
 20
30.8567
 10
42.65
 20
30.784
 10
42.5327
 20
30.7262
 10
42.4089
 20
30.6841
 10
42.2806
 20
30.6586
 10
42.15
 20
30.65
 10
42.0195
 20
30.6586
 10
41.8912
 20
30.6841
 10
41.7674
 20
30.7262
 10
41.65
 20
30.784
 10
41.5413
 20
30.8567
 10
41.4429
 20
30.9429
 10
41.3567
 20
31.0413
 10
41.284
 20
31.15
 10
41.2262
 20
31.2674
 10
41.1841
 20
31.3912
 10
41.1586
 20
31.5195
 10
41.15
 20
31.65
 10
41.15
 20
31.65
  0
LWPOLYLINE
  5
6D
100
AcDbEntity
  8
case
  6
CONTINUOUS
 62
  256
370
   -1
100
AcDbPolyline
 90
   51
 70
    0
 43
0
 10
46.15
 20
31.65
 10
46.1586
 20
31.7806
 10
46.1841
 20
31.9089
 10
46.2262
 20
32.0327
 10
46.284
 20
32.15
 10
46.3567
 20
32.2588
 10
46.4429
 20
32.3571
 10
46.5413
 20
32.4434
 10
46.65
 20
32.5161
 10
46.7674
 20
32.5739
 10
46.8912
 20
32.616
 10
47.0195
 20
32.6415
 10
47.15
 20
32.65
 10
47.2806
 20
32.6415
 10
47.4089
 20
32.616
 10
47.5327
 20
32.5739
 10
47.65
 20
32.5161
 10
47.7588
 20
32.4434
 10
47.8571
 20
32.3571
 10
47.9434
 20
32.2588
 10
48.0161
 20
32.15
 10
48.0739
 20
32.0327
 10
48.116
 20
31.9089
 10
48.1415
 20
31.7806
 10
48.15
 20
31.65
 10
48.15
 20
31.65
 10
48.1415
 20
31.5195
 10
48.116
 20
31.3912
 10
48.0739
 20
31.2674
 10
48.0161
 20
31.15
 10
47.9434
 20
31.0413
 10
47.8571
 20
30.9429
 10
47.7588
 20
30.8567
 10
47.65
 20
30.784
 10
47.5327
 20
30.7262
 10
47.4089
 20
30.6841
 10
47.2806
 20
30.6586
 10
47.15
 20
30.65
 10
47.0195
 20
30.6586
 10
46.8912
 20
30.6841
 10
46.7674
 20
30.7262
 10
46.65
 20
30.784
 10
46.5413
 20
30.8567
 10
46.4429
 20
30.9429
 10
46.3567
 20
31.0413
 10
46.284
 20
31.15
 10
46.2262
 20
31.2674
 10
46.1841
 20
31.3912
 10
46.1586
 20
31.5195
 10
46.15
 20
31.65
 10
46.15
 20
31.65
  0
LWPOLYLINE
  5
6E
100
AcDbEntity
  8
case
  6
CONTINUOUS
 62
  256
370
   -1
100
AcDbPolyline
 90
   51
 70
    0
 43
0
 10
36.15
 20
31.65
 10
36.1586
 20
31.7806
 10
36.1841
 20
31.9089
 10
36.2262
 20
32.0327
 10
36.284
 20
32.15
 10
36.3567
 20
32.2588
 10
36.4429
 20
32.3571
 10
36.5413
 20
32.4434
 10
36.65
 20
32.5161
 10
36.7674
 20
32.5739
 10
36.8912
 20
32.616
 10
37.0195
 20
32.6415
 10
37.15
 20
32.65
 10
37.2806
 20
32.6415
 10
37.4089
 20
32.616
 10
37.5327
 20
32.5739
 10
37.65
 20
32.5161
 10
37.7588
 20
32.4434
 10
37.8571
 20
32.3571
 10
37.9434
 20
32.2588
 10
38.0161
 20
32.15
 10
38.0739
 20
32.0327
 10
38.116
 20
31.9089
 10
38.1415
 20
31.7806
 10
38.15
 20
31.65
 10
38.15
 20
31.65
 10
38.1415
 20
31.5195
 10
38.116
 20
31.3912
 10
38.0739
 20
31.2674
 10
38.0161
 20
31.15
 10
37.9434
 20
31.0413
 10
37.8571
 20
30.9429
 10
37.7588
 20
30.8567
 10
37.65
 20
30.784
 10
37.5327
 20
30.7262
 10
37.4089
 20
30.6841
 10
37.2806
 20
30.6586
 10
37.15
 20
30.65
 10
37.0195
 20
30.6586
 10
36.8912
 20
30.6841
 10
36.7674
 20
30.7262
 10
36.65
 20
30.784
 10
36.5413
 20
30.8567
 10
36.4429
 20
30.9429
 10
36.3567
 20
31.0413
 10
36.284
 20
31.15
 10
36.2262
 20
31.2674
 10
36.1841
 20
31.3912
 10
36.1586
 20
31.5195
 10
36.15
 20
31.65
 10
36.15
 20
31.65
  0
LWPOLYLINE
  5
6F
100
AcDbEntity
  8
case
  6
CONTINUOUS
 62
  256
370
   -1
100
AcDbPolyline
 90
    2
 70
    0
 43
0
 10
38.6145
 20
9.5642
 10
40.7358
 20
11.6856
  0
LWPOLYLINE
  5
70
100
AcDbEntity
  8
case
  6
CONTINUOUS
 62
  256
370
   -1
100
AcDbPolyline
 90
    2
 70
    0
 43
0
 10
43.5642
 20
11.6856
 10
45.6856
 20
9.5642
  0
LWPOLYLINE
  5
71
100
AcDbEntity
  8
case
  6
CONTINUOUS
 62
  256
370
   -1
100
AcDbPolyline
 90
    2
 70
    0
 43
0
 10
45.6856
 20
6.7358
 10
43.5642
 20
4.6145
  0
LWPOLYLINE
  5
72
100
AcDbEntity
  8
case
  6
CONTINUOUS
 62
  256
370
   -1
100
AcDbPolyline
 90
    2
 70
    0
 43
0
 10
40.7358
 20
4.6145
 10
38.6145
 20
6.7358
  0
LWPOLYLINE
  5
73
100
AcDbEntity
  8
case
  6
CONTINUOUS
 62
  256
370
   -1
100
AcDbPolyline
 90
   21
 70
    0
 43
0
 10
38.6145
 20
9.5642
 10
38.5079
 20
9.4489
 10
38.4107
 20
9.3256
 10
38.3234
 20
9.195
 10
38.2467
 20
9.058
 10
38.181
 20
8.9154
 10
38.1266
 20
8.7681
 10
38.084
 20
8.616899999999999
 10
38.0533
 20
8.462899999999999
 10
38.0349
 20
8.307
 10
38.0287
 20
8.15
 10
38.0349
 20
7.9931
 10
38.0533
 20
7.8372
 10
38.084
 20
7.6832
 10
38.1266
 20
7.532
 10
38.181
 20
7.3847
 10
38.2467
 20
7.2421
 10
38.3234
 20
7.1051
 10
38.4107
 20
6.9745
 10
38.5079
 20
6.8512
 10
38.6145
 20
6.7358
  0
LWPOLYLINE
  5
74
100
AcDbEntity
  8
case
  6
CONTINUOUS
 62
  256
370
   -1
100
AcDbPolyline
 90
   21
 70
    0
 43
0
 10
40.7358
 20
4.6145
 10
40.8512
 20
4.5079
 10
40.9745
 20
4.4107
 10
41.1051
 20
4.3234
 10
41.2421
 20
4.2467
 10
41.3847
 20
4.181
 10
41.532
 20
4.1266
 10
41.6832
 20
4.084
 10
41.8372
 20
4.0533
 10
41.9931
 20
4.0349
 10
42.15
 20
4.0287
 10
42.307
 20
4.0349
 10
42.4629
 20
4.0533
 10
42.6169
 20
4.084
 10
42.7681
 20
4.1266
 10
42.9154
 20
4.181
 10
43.058
 20
4.2467
 10
43.195
 20
4.3234
 10
43.3256
 20
4.4107
 10
43.4489
 20
4.5079
 10
43.5642
 20
4.6145
  0
LWPOLYLINE
  5
75
100
AcDbEntity
  8
case
  6
CONTINUOUS
 62
  256
370
   -1
100
AcDbPolyline
 90
   21
 70
    0
 43
0
 10
45.6856
 20
6.7358
 10
45.7922
 20
6.8512
 10
45.8894
 20
6.9745
 10
45.9766
 20
7.1051
 10
46.0534
 20
7.2421
 10
46.1191
 20
7.3847
 10
46.1735
 20
7.532
 10
46.2161
 20
7.6832
 10
46.2468
 20
7.8372
 10
46.2652
 20
7.9931
 10
46.2714
 20
8.15
 10
46.2652
 20
8.307
 10
46.2468
 20
8.462899999999999
 10
46.2161
 20
8.616899999999999
 10
46.1735
 20
8.7681
 10
46.1191
 20
8.9154
 10
46.0534
 20
9.058
 10
45.9766
 20
9.195
 10
45.8894
 20
9.3256
 10
45.7922
 20
9.4489
 10
45.6856
 20
9.5642
  0
LWPOLYLINE
  5
76
100
AcDbEntity
  8
case
  6
CONTINUOUS
 62
  256
370
   -1
100
AcDbPolyline
 90
   21
 70
    0
 43
0
 10
43.5642
 20
11.6856
 10
43.4489
 20
11.7922
 10
43.3256
 20
11.8894
 10
43.195
 20
11.9766
 10
43.058
 20
12.0534
 10
42.9154
 20
12.1191
 10
42.7681
 20
12.1735
 10
42.6169
 20
12.2161
 10
42.4629
 20
12.2468
 10
42.307
 20
12.2652
 10
42.15
 20
12.2714
 10
41.9931
 20
12.2652
 10
41.8372
 20
12.2468
 10
41.6832
 20
12.2161
 10
41.532
 20
12.1735
 10
41.3847
 20
12.1191
 10
41.2421
 20
12.0534
 10
41.1051
 20
11.9766
 10
40.9745
 20
11.8894
 10
40.8512
 20
11.7922
 10
40.7358
 20
11.6856
  0
LWPOLYLINE
  5
77
100
AcDbEntity
  8
case
  6
CONTINUOUS
 62
  256
370
   -1
100
AcDbPolyline
 90
   51
 70
    0
 43
0
 10
72.84999999999999
 20
8.35
 10
72.8586
 20
8.480600000000001
 10
72.8841
 20
8.6089
 10
72.92619999999999
 20
8.732699999999999
 10
72.98399999999999
 20
8.85
 10
73.05670000000001
 20
8.9588
 10
73.1429
 20
9.0571
 10
73.2413
 20
9.1434
 10
73.34999999999999
 20
9.216100000000001
 10
73.4674
 20
9.273899999999999
 10
73.5912
 20
9.316000000000001
 10
73.7195
 20
9.3415
 10
73.84999999999999
 20
9.35
 10
73.9806
 20
9.3415
 10
74.10890000000001
 20
9.316000000000001
 10
74.23269999999999
 20
9.273899999999999
 10
74.34999999999999
 20
9.216100000000001
 10
74.4588
 20
9.1434
 10
74.55710000000001
 20
9.0571
 10
74.6434
 20
8.9588
 10
74.7161
 20
8.85
 10
74.7739
 20
8.732699999999999
 10
74.816
 20
8.6089
 10
74.8415
 20
8.480600000000001
 10
74.84999999999999
 20
8.35
 10
74.84999999999999
 20
8.35
 10
74.8415
 20
8.2195
 10
74.816
 20
8.091200000000001
 10
74.7739
 20
7.9674
 10
74.7161
 20
7.85
 10
74.6434
 20
7.7413
 10
74.55710000000001
 20
7.6429
 10
74.4588
 20
7.5567
 10
74.34999999999999
 20
7.484
 10
74.23269999999999
 20
7.4262
 10
74.10890000000001
 20
7.3841
 10
73.9806
 20
7.3586
 10
73.84999999999999
 20
7.35
 10
73.7195
 20
7.3586
 10
73.5912
 20
7.3841
 10
73.4674
 20
7.4262
 10
73.34999999999999
 20
7.484
 10
73.2413
 20
7.5567
 10
73.1429
 20
7.6429
 10
73.05670000000001
 20
7.7413
 10
72.98399999999999
 20
7.85
 10
72.92619999999999
 20
7.9674
 10
72.8841
 20
8.091200000000001
 10
72.8586
 20
8.2195
 10
72.84999999999999
 20
8.35
 10
72.84999999999999
 20
8.35
  0
ENDSEC
  0
SECTION
  2
OBJECTS
  0
DICTIONARY
  5
C
330
0
100
AcDbDictionary
281
    1
  3
ACAD_GROUP
350
D
  0
DICTIONARY
  5
D
330
C
100
AcDbDictionary
281
    1
  0
PLOTSETTINGS
  5
78
100
AcDbPlotSettings
  6
1x1
 40
0
 41
0
 42
0
 43
0
  0
ENDSEC
  0
EOF
