  0
SECTION
  2
HEADER
  9
$ACADVER
  1
AC1009
  9
$ANGDIR
  70
0
  9
$CECOLOR
  62
256
  9
$CELTYPE
  6
BYLAYER
  9
$EXTMIN
  10
0.0
  20
0.0
  9
$EXTMAX
  10
3.3071
  20
5.1575
  9
$FILLMODE
  70
1
  9
$MIRRTEXT
  70
0
  0
ENDSEC
  0
SECTION
  2
TABLES
  0
TABLE
  2
LAYER
  70
24
  0
LAYER
  2
case
  70
64
  62
22
  6
CONTINUOUS
  0
ENDTAB
  0
ENDSEC
  0
SECTION
  2
ENTITIES
  0
POLYLINE
  8
case
  6
CONTINUOUS
  66
1
  70
0
  40
0.0047
  41
0.0047
  0
VERTEX
  8
case
  10
0.0
  20
0.315
  42
0
  0
VERTEX
  8
case
  10
0.001
  20
0.2902
  42
0
  0
VERTEX
  8
case
  10
0.0039
  20
0.2657
  42
0
  0
VERTEX
  8
case
  10
0.0087
  20
0.2414
  42
0
  0
VERTEX
  8
case
  10
0.0154
  20
0.2176
  42
0
  0
VERTEX
  8
case
  10
0.024
  20
0.1944
  42
0
  0
VERTEX
  8
case
  10
0.0343
  20
0.172
  42
0
  0
VERTEX
  8
case
  10
0.0464
  20
0.1504
  42
0
  0
VERTEX
  8
case
  10
0.0602
  20
0.1298
  42
0
  0
VERTEX
  8
case
  10
0.0755
  20
0.1104
  42
0
  0
VERTEX
  8
case
  10
0.0922
  20
0.0922
  42
0
  0
VERTEX
  8
case
  10
0.1104
  20
0.0755
  42
0
  0
VERTEX
  8
case
  10
0.1298
  20
0.0602
  42
0
  0
VERTEX
  8
case
  10
0.1504
  20
0.0464
  42
0
  0
VERTEX
  8
case
  10
0.172
  20
0.0343
  42
0
  0
VERTEX
  8
case
  10
0.1944
  20
0.024
  42
0
  0
VERTEX
  8
case
  10
0.2176
  20
0.0154
  42
0
  0
VERTEX
  8
case
  10
0.2414
  20
0.0087
  42
0
  0
VERTEX
  8
case
  10
0.2657
  20
0.0039
  42
0
  0
VERTEX
  8
case
  10
0.2902
  20
0.001
  42
0
  0
VERTEX
  8
case
  10
0.315
  20
0.0
  42
0
  0
SEQEND
  0
POLYLINE
  8
case
  6
CONTINUOUS
  66
1
  70
0
  40
0.0047
  41
0.0047
  0
VERTEX
  8
case
  10
0.315
  20
5.1575
  42
0
  0
VERTEX
  8
case
  10
0.2902
  20
5.1565
  42
0
  0
VERTEX
  8
case
  10
0.2657
  20
5.1536
  42
0
  0
VERTEX
  8
case
  10
0.2414
  20
5.1488
  42
0
  0
VERTEX
  8
case
  10
0.2176
  20
5.1421
  42
0
  0
VERTEX
  8
case
  10
0.1944
  20
5.1335
  42
0
  0
VERTEX
  8
case
  10
0.172
  20
5.1232
  42
0
  0
VERTEX
  8
case
  10
0.1504
  20
5.1111
  42
0
  0
VERTEX
  8
case
  10
0.1298
  20
5.0973
  42
0
  0
VERTEX
  8
case
  10
0.1104
  20
5.082
  42
0
  0
VERTEX
  8
case
  10
0.0922
  20
5.0652
  42
0
  0
VERTEX
  8
case
  10
0.0755
  20
5.0471
  42
0
  0
VERTEX
  8
case
  10
0.0602
  20
5.0276
  42
0
  0
VERTEX
  8
case
  10
0.0464
  20
5.0071
  42
0
  0
VERTEX
  8
case
  10
0.0343
  20
4.9855
  42
0
  0
VERTEX
  8
case
  10
0.024
  20
4.9631
  42
0
  0
VERTEX
  8
case
  10
0.0154
  20
4.9398
  42
0
  0
VERTEX
  8
case
  10
0.0087
  20
4.916
  42
0
  0
VERTEX
  8
case
  10
0.0039
  20
4.8918
  42
0
  0
VERTEX
  8
case
  10
0.001
  20
4.8672
  42
0
  0
VERTEX
  8
case
  10
0.0
  20
4.8425
  42
0
  0
SEQEND
  0
POLYLINE
  8
case
  6
CONTINUOUS
  66
1
  70
0
  40
0.0047
  41
0.0047
  0
VERTEX
  8
case
  10
3.3071
  20
4.8425
  42
0
  0
VERTEX
  8
case
  10
3.3061
  20
4.8672
  42
0
  0
VERTEX
  8
case
  10
3.3032
  20
4.8918
  42
0
  0
VERTEX
  8
case
  10
3.2984
  20
4.916
  42
0
  0
VERTEX
  8
case
  10
3.2917
  20
4.9398
  42
0
  0
VERTEX
  8
case
  10
3.2831
  20
4.9631
  42
0
  0
VERTEX
  8
case
  10
3.2728
  20
4.9855
  42
0
  0
VERTEX
  8
case
  10
3.2607
  20
5.0071
  42
0
  0
VERTEX
  8
case
  10
3.2469
  20
5.0276
  42
0
  0
VERTEX
  8
case
  10
3.2316
  20
5.0471
  42
0
  0
VERTEX
  8
case
  10
3.2148
  20
5.0652
  42
0
  0
VERTEX
  8
case
  10
3.1967
  20
5.082
  42
0
  0
VERTEX
  8
case
  10
3.1773
  20
5.0973
  42
0
  0
VERTEX
  8
case
  10
3.1567
  20
5.1111
  42
0
  0
VERTEX
  8
case
  10
3.1351
  20
5.1232
  42
0
  0
VERTEX
  8
case
  10
3.1127
  20
5.1335
  42
0
  0
VERTEX
  8
case
  10
3.0895
  20
5.1421
  42
0
  0
VERTEX
  8
case
  10
3.0657
  20
5.1488
  42
0
  0
VERTEX
  8
case
  10
3.0414
  20
5.1536
  42
0
  0
VERTEX
  8
case
  10
3.0168
  20
5.1565
  42
0
  0
VERTEX
  8
case
  10
2.9921
  20
5.1575
  42
0
  0
SEQEND
  0
POLYLINE
  8
case
  6
CONTINUOUS
  66
1
  70
0
  40
0.0047
  41
0.0047
  0
VERTEX
  8
case
  10
2.5984
  20
0.0
  42
0
  0
VERTEX
  8
case
  10
2.654
  20
0.0022
  42
0
  0
VERTEX
  8
case
  10
2.7093
  20
0.0087
  42
0
  0
VERTEX
  8
case
  10
2.7639
  20
0.0196
  42
0
  0
VERTEX
  8
case
  10
2.8174
  20
0.0347
  42
0
  0
VERTEX
  8
case
  10
2.8696
  20
0.0539
  42
0
  0
VERTEX
  8
case
  10
2.9202
  20
0.0772
  42
0
  0
VERTEX
  8
case
  10
2.9687
  20
0.1044
  42
0
  0
VERTEX
  8
case
  10
3.015
  20
0.1353
  42
0
  0
VERTEX
  8
case
  10
3.0587
  20
0.1698
  42
0
  0
VERTEX
  8
case
  10
3.0995
  20
0.2076
  42
0
  0
VERTEX
  8
case
  10
3.1373
  20
0.2484
  42
0
  0
VERTEX
  8
case
  10
3.1717
  20
0.2921
  42
0
  0
VERTEX
  8
case
  10
3.2027
  20
0.3384
  42
0
  0
VERTEX
  8
case
  10
3.2298
  20
0.3869
  42
0
  0
VERTEX
  8
case
  10
3.2531
  20
0.4375
  42
0
  0
VERTEX
  8
case
  10
3.2724
  20
0.4897
  42
0
  0
VERTEX
  8
case
  10
3.2875
  20
0.5432
  42
0
  0
VERTEX
  8
case
  10
3.2984
  20
0.5978
  42
0
  0
VERTEX
  8
case
  10
3.3049
  20
0.6531
  42
0
  0
VERTEX
  8
case
  10
3.3071
  20
0.7087
  42
0
  0
SEQEND
  0
POLYLINE
  8
case
  6
CONTINUOUS
  66
1
  70
0
  40
0.0047
  41
0.0047
  0
VERTEX
  8
case
  10
0.315
  20
5.1575
  42
0
  0
VERTEX
  8
case
  10
2.9921
  20
5.1575
  42
0
  0
SEQEND
  0
POLYLINE
  8
case
  6
CONTINUOUS
  66
1
  70
0
  40
0.0047
  41
0.0047
  0
VERTEX
  8
case
  10
0.0
  20
4.8425
  42
0
  0
VERTEX
  8
case
  10
0.0
  20
0.315
  42
0
  0
SEQEND
  0
POLYLINE
  8
case
  6
CONTINUOUS
  66
1
  70
0
  40
0.0047
  41
0.0047
  0
VERTEX
  8
case
  10
3.3071
  20
0.7087
  42
0
  0
VERTEX
  8
case
  10
3.3071
  20
4.8425
  42
0
  0
SEQEND
  0
POLYLINE
  8
case
  6
CONTINUOUS
  66
1
  70
0
  40
0.0047
  41
0.0047
  0
VERTEX
  8
case
  10
0.315
  20
0.0
  42
0
  0
VERTEX
  8
case
  10
2.5984
  20
0.0
  42
0
  0
SEQEND
  0
POLYLINE
  8
case
  6
CONTINUOUS
  66
1
  70
0
  40
0.0047
  41
0.0047
  0
VERTEX
  8
case
  10
0.4921
  20
2.3228
  42
0
  0
VERTEX
  8
case
  10
0.4921
  20
2.5984
  42
0
  0
VERTEX
  8
case
  10
0.7677
  20
2.5984
  42
0
  0
VERTEX
  8
case
  10
0.7677
  20
2.3228
  42
0
  0
VERTEX
  8
case
  10
1.0433
  20
2.3228
  42
0
  0
VERTEX
  8
case
  10
1.0433
  20
2.0472
  42
0
  0
VERTEX
  8
case
  10
0.7677
  20
2.0472
  42
0
  0
VERTEX
  8
case
  10
0.7677
  20
1.7717
  42
0
  0
VERTEX
  8
case
  10
0.4921
  20
1.7717
  42
0
  0
VERTEX
  8
case
  10
0.4921
  20
2.0472
  42
0
  0
VERTEX
  8
case
  10
0.2165
  20
2.0472
  42
0
  0
VERTEX
  8
case
  10
0.2165
  20
2.3228
  42
0
  0
VERTEX
  8
case
  10
0.4921
  20
2.3228
  42
0
  0
SEQEND
  0
POLYLINE
  8
case
  6
CONTINUOUS
  66
1
  70
0
  40
0.0047
  41
0.0047
  0
VERTEX
  8
case
  10
0.3071
  20
1.122
  42
0
  0
VERTEX
  8
case
  10
0.3105
  20
1.1734
  42
0
  0
VERTEX
  8
case
  10
0.3205
  20
1.2239
  42
0
  0
VERTEX
  8
case
  10
0.3371
  20
1.2727
  42
0
  0
VERTEX
  8
case
  10
0.3598
  20
1.3189
  42
0
  0
VERTEX
  8
case
  10
0.3884
  20
1.3617
  42
0
  0
VERTEX
  8
case
  10
0.4224
  20
1.4004
  42
0
  0
VERTEX
  8
case
  10
0.4611
  20
1.4344
  42
0
  0
VERTEX
  8
case
  10
0.5039
  20
1.463
  42
0
  0
VERTEX
  8
case
  10
0.5501
  20
1.4858
  42
0
  0
VERTEX
  8
case
  10
0.5989
  20
1.5023
  42
0
  0
VERTEX
  8
case
  10
0.6494
  20
1.5124
  42
0
  0
VERTEX
  8
case
  10
0.7008
  20
1.5157
  42
0
  0
VERTEX
  8
case
  10
0.7522
  20
1.5124
  42
0
  0
VERTEX
  8
case
  10
0.8027
  20
1.5023
  42
0
  0
VERTEX
  8
case
  10
0.8515
  20
1.4858
  42
0
  0
VERTEX
  8
case
  10
0.8976
  20
1.463
  42
0
  0
VERTEX
  8
case
  10
0.9405
  20
1.4344
  42
0
  0
VERTEX
  8
case
  10
0.9792
  20
1.4004
  42
0
  0
VERTEX
  8
case
  10
1.0131
  20
1.3617
  42
0
  0
VERTEX
  8
case
  10
1.0417
  20
1.3189
  42
0
  0
VERTEX
  8
case
  10
1.0645
  20
1.2727
  42
0
  0
VERTEX
  8
case
  10
1.0811
  20
1.2239
  42
0
  0
VERTEX
  8
case
  10
1.0911
  20
1.1734
  42
0
  0
VERTEX
  8
case
  10
1.0945
  20
1.122
  42
0
  0
VERTEX
  8
case
  10
1.0945
  20
1.122
  42
0
  0
VERTEX
  8
case
  10
1.0911
  20
1.0707
  42
0
  0
VERTEX
  8
case
  10
1.0811
  20
1.0201
  42
0
  0
VERTEX
  8
case
  10
1.0645
  20
0.9714
  42
0
  0
VERTEX
  8
case
  10
1.0417
  20
0.9252
  42
0
  0
VERTEX
  8
case
  10
1.0131
  20
0.8824
  42
0
  0
VERTEX
  8
case
  10
0.9792
  20
0.8437
  42
0
  0
VERTEX
  8
case
  10
0.9405
  20
0.8097
  42
0
  0
VERTEX
  8
case
  10
0.8976
  20
0.7811
  42
0
  0
VERTEX
  8
case
  10
0.8515
  20
0.7583
  42
0
  0
VERTEX
  8
case
  10
0.8027
  20
0.7418
  42
0
  0
VERTEX
  8
case
  10
0.7522
  20
0.7317
  42
0
  0
VERTEX
  8
case
  10
0.7008
  20
0.7283
  42
0
  0
VERTEX
  8
case
  10
0.6494
  20
0.7317
  42
0
  0
VERTEX
  8
case
  10
0.5989
  20
0.7418
  42
0
  0
VERTEX
  8
case
  10
0.5501
  20
0.7583
  42
0
  0
VERTEX
  8
case
  10
0.5039
  20
0.7811
  42
0
  0
VERTEX
  8
case
  10
0.4611
  20
0.8097
  42
0
  0
VERTEX
  8
case
  10
0.4224
  20
0.8437
  42
0
  0
VERTEX
  8
case
  10
0.3884
  20
0.8824
  42
0
  0
VERTEX
  8
case
  10
0.3598
  20
0.9252
  42
0
  0
VERTEX
  8
case
  10
0.3371
  20
0.9714
  42
0
  0
VERTEX
  8
case
  10
0.3205
  20
1.0201
  42
0
  0
VERTEX
  8
case
  10
0.3105
  20
1.0707
  42
0
  0
VERTEX
  8
case
  10
0.3071
  20
1.122
  42
0
  0
VERTEX
  8
case
  10
0.3071
  20
1.122
  42
0
  0
SEQEND
  0
POLYLINE
  8
case
  6
CONTINUOUS
  66
1
  70
0
  40
0.0047
  41
0.0047
  0
VERTEX
  8
case
  10
2.2441
  20
2.3228
  42
0
  0
VERTEX
  8
case
  10
2.2458
  20
2.3485
  42
0
  0
VERTEX
  8
case
  10
2.2508
  20
2.3738
  42
0
  0
VERTEX
  8
case
  10
2.2591
  20
2.3982
  42
0
  0
VERTEX
  8
case
  10
2.2705
  20
2.4213
  42
0
  0
VERTEX
  8
case
  10
2.2848
  20
2.4427
  42
0
  0
VERTEX
  8
case
  10
2.3018
  20
2.462
  42
0
  0
VERTEX
  8
case
  10
2.3211
  20
2.479
  42
0
  0
VERTEX
  8
case
  10
2.3425
  20
2.4933
  42
0
  0
VERTEX
  8
case
  10
2.3656
  20
2.5047
  42
0
  0
VERTEX
  8
case
  10
2.39
  20
2.513
  42
0
  0
VERTEX
  8
case
  10
2.4153
  20
2.518
  42
0
  0
VERTEX
  8
case
  10
2.4409
  20
2.5197
  42
0
  0
VERTEX
  8
case
  10
2.4666
  20
2.518
  42
0
  0
VERTEX
  8
case
  10
2.4919
  20
2.513
  42
0
  0
VERTEX
  8
case
  10
2.5163
  20
2.5047
  42
0
  0
VERTEX
  8
case
  10
2.5394
  20
2.4933
  42
0
  0
VERTEX
  8
case
  10
2.5608
  20
2.479
  42
0
  0
VERTEX
  8
case
  10
2.5801
  20
2.462
  42
0
  0
VERTEX
  8
case
  10
2.5971
  20
2.4427
  42
0
  0
VERTEX
  8
case
  10
2.6114
  20
2.4213
  42
0
  0
VERTEX
  8
case
  10
2.6228
  20
2.3982
  42
0
  0
VERTEX
  8
case
  10
2.6311
  20
2.3738
  42
0
  0
VERTEX
  8
case
  10
2.6361
  20
2.3485
  42
0
  0
VERTEX
  8
case
  10
2.6378
  20
2.3228
  42
0
  0
VERTEX
  8
case
  10
2.6378
  20
2.3228
  42
0
  0
VERTEX
  8
case
  10
2.6361
  20
2.2971
  42
0
  0
VERTEX
  8
case
  10
2.6311
  20
2.2719
  42
0
  0
VERTEX
  8
case
  10
2.6228
  20
2.2475
  42
0
  0
VERTEX
  8
case
  10
2.6114
  20
2.2244
  42
0
  0
VERTEX
  8
case
  10
2.5971
  20
2.203
  42
0
  0
VERTEX
  8
case
  10
2.5801
  20
2.1836
  42
0
  0
VERTEX
  8
case
  10
2.5608
  20
2.1667
  42
0
  0
VERTEX
  8
case
  10
2.5394
  20
2.1524
  42
0
  0
VERTEX
  8
case
  10
2.5163
  20
2.141
  42
0
  0
VERTEX
  8
case
  10
2.4919
  20
2.1327
  42
0
  0
VERTEX
  8
case
  10
2.4666
  20
2.1277
  42
0
  0
VERTEX
  8
case
  10
2.4409
  20
2.126
  42
0
  0
VERTEX
  8
case
  10
2.4153
  20
2.1277
  42
0
  0
VERTEX
  8
case
  10
2.39
  20
2.1327
  42
0
  0
VERTEX
  8
case
  10
2.3656
  20
2.141
  42
0
  0
VERTEX
  8
case
  10
2.3425
  20
2.1524
  42
0
  0
VERTEX
  8
case
  10
2.3211
  20
2.1667
  42
0
  0
VERTEX
  8
case
  10
2.3018
  20
2.1836
  42
0
  0
VERTEX
  8
case
  10
2.2848
  20
2.203
  42
0
  0
VERTEX
  8
case
  10
2.2705
  20
2.2244
  42
0
  0
VERTEX
  8
case
  10
2.2591
  20
2.2475
  42
0
  0
VERTEX
  8
case
  10
2.2508
  20
2.2719
  42
0
  0
VERTEX
  8
case
  10
2.2458
  20
2.2971
  42
0
  0
VERTEX
  8
case
  10
2.2441
  20
2.3228
  42
0
  0
VERTEX
  8
case
  10
2.2441
  20
2.3228
  42
0
  0
SEQEND
  0
POLYLINE
  8
case
  6
CONTINUOUS
  66
1
  70
0
  40
0.0047
  41
0.0047
  0
VERTEX
  8
case
  10
2.7165
  20
1.8504
  42
0
  0
VERTEX
  8
case
  10
2.7182
  20
1.8761
  42
0
  0
VERTEX
  8
case
  10
2.7232
  20
1.9013
  42
0
  0
VERTEX
  8
case
  10
2.7315
  20
1.9257
  42
0
  0
VERTEX
  8
case
  10
2.7429
  20
1.9488
  42
0
  0
VERTEX
  8
case
  10
2.7572
  20
1.9702
  42
0
  0
VERTEX
  8
case
  10
2.7742
  20
1.9896
  42
0
  0
VERTEX
  8
case
  10
2.7936
  20
2.0066
  42
0
  0
VERTEX
  8
case
  10
2.815
  20
2.0209
  42
0
  0
VERTEX
  8
case
  10
2.8381
  20
2.0323
  42
0
  0
VERTEX
  8
case
  10
2.8624
  20
2.0405
  42
0
  0
VERTEX
  8
case
  10
2.8877
  20
2.0456
  42
0
  0
VERTEX
  8
case
  10
2.9134
  20
2.0472
  42
0
  0
VERTEX
  8
case
  10
2.9391
  20
2.0456
  42
0
  0
VERTEX
  8
case
  10
2.9643
  20
2.0405
  42
0
  0
VERTEX
  8
case
  10
2.9887
  20
2.0323
  42
0
  0
VERTEX
  8
case
  10
3.0118
  20
2.0209
  42
0
  0
VERTEX
  8
case
  10
3.0332
  20
2.0066
  42
0
  0
VERTEX
  8
case
  10
3.0526
  20
1.9896
  42
0
  0
VERTEX
  8
case
  10
3.0696
  20
1.9702
  42
0
  0
VERTEX
  8
case
  10
3.0839
  20
1.9488
  42
0
  0
VERTEX
  8
case
  10
3.0953
  20
1.9257
  42
0
  0
VERTEX
  8
case
  10
3.1035
  20
1.9013
  42
0
  0
VERTEX
  8
case
  10
3.1086
  20
1.8761
  42
0
  0
VERTEX
  8
case
  10
3.1102
  20
1.8504
  42
0
  0
VERTEX
  8
case
  10
3.1102
  20
1.8504
  42
0
  0
VERTEX
  8
case
  10
3.1086
  20
1.8247
  42
0
  0
VERTEX
  8
case
  10
3.1035
  20
1.7994
  42
0
  0
VERTEX
  8
case
  10
3.0953
  20
1.7751
  42
0
  0
VERTEX
  8
case
  10
3.0839
  20
1.752
  42
0
  0
VERTEX
  8
case
  10
3.0696
  20
1.7306
  42
0
  0
VERTEX
  8
case
  10
3.0526
  20
1.7112
  42
0
  0
VERTEX
  8
case
  10
3.0332
  20
1.6942
  42
0
  0
VERTEX
  8
case
  10
3.0118
  20
1.6799
  42
0
  0
VERTEX
  8
case
  10
2.9887
  20
1.6685
  42
0
  0
VERTEX
  8
case
  10
2.9643
  20
1.6603
  42
0
  0
VERTEX
  8
case
  10
2.9391
  20
1.6552
  42
0
  0
VERTEX
  8
case
  10
2.9134
  20
1.6535
  42
0
  0
VERTEX
  8
case
  10
2.8877
  20
1.6552
  42
0
  0
VERTEX
  8
case
  10
2.8624
  20
1.6603
  42
0
  0
VERTEX
  8
case
  10
2.8381
  20
1.6685
  42
0
  0
VERTEX
  8
case
  10
2.815
  20
1.6799
  42
0
  0
VERTEX
  8
case
  10
2.7936
  20
1.6942
  42
0
  0
VERTEX
  8
case
  10
2.7742
  20
1.7112
  42
0
  0
VERTEX
  8
case
  10
2.7572
  20
1.7306
  42
0
  0
VERTEX
  8
case
  10
2.7429
  20
1.752
  42
0
  0
VERTEX
  8
case
  10
2.7315
  20
1.7751
  42
0
  0
VERTEX
  8
case
  10
2.7232
  20
1.7994
  42
0
  0
VERTEX
  8
case
  10
2.7182
  20
1.8247
  42
0
  0
VERTEX
  8
case
  10
2.7165
  20
1.8504
  42
0
  0
VERTEX
  8
case
  10
2.7165
  20
1.8504
  42
0
  0
SEQEND
  0
POLYLINE
  8
case
  6
CONTINUOUS
  66
1
  70
0
  40
0.0047
  41
0.0047
  0
VERTEX
  8
case
  10
1.7717
  20
1.8504
  42
0
  0
VERTEX
  8
case
  10
1.7733
  20
1.8761
  42
0
  0
VERTEX
  8
case
  10
1.7784
  20
1.9013
  42
0
  0
VERTEX
  8
case
  10
1.7866
  20
1.9257
  42
0
  0
VERTEX
  8
case
  10
1.798
  20
1.9488
  42
0
  0
VERTEX
  8
case
  10
1.8123
  20
1.9702
  42
0
  0
VERTEX
  8
case
  10
1.8293
  20
1.9896
  42
0
  0
VERTEX
  8
case
  10
1.8487
  20
2.0066
  42
0
  0
VERTEX
  8
case
  10
1.8701
  20
2.0209
  42
0
  0
VERTEX
  8
case
  10
1.8932
  20
2.0323
  42
0
  0
VERTEX
  8
case
  10
1.9176
  20
2.0405
  42
0
  0
VERTEX
  8
case
  10
1.9428
  20
2.0456
  42
0
  0
VERTEX
  8
case
  10
1.9685
  20
2.0472
  42
0
  0
VERTEX
  8
case
  10
1.9942
  20
2.0456
  42
0
  0
VERTEX
  8
case
  10
2.0195
  20
2.0405
  42
0
  0
VERTEX
  8
case
  10
2.0438
  20
2.0323
  42
0
  0
VERTEX
  8
case
  10
2.0669
  20
2.0209
  42
0
  0
VERTEX
  8
case
  10
2.0883
  20
2.0066
  42
0
  0
VERTEX
  8
case
  10
2.1077
  20
1.9896
  42
0
  0
VERTEX
  8
case
  10
2.1247
  20
1.9702
  42
0
  0
VERTEX
  8
case
  10
2.139
  20
1.9488
  42
0
  0
VERTEX
  8
case
  10
2.1504
  20
1.9257
  42
0
  0
VERTEX
  8
case
  10
2.1586
  20
1.9013
  42
0
  0
VERTEX
  8
case
  10
2.1637
  20
1.8761
  42
0
  0
VERTEX
  8
case
  10
2.1654
  20
1.8504
  42
0
  0
VERTEX
  8
case
  10
2.1654
  20
1.8504
  42
0
  0
VERTEX
  8
case
  10
2.1637
  20
1.8247
  42
0
  0
VERTEX
  8
case
  10
2.1586
  20
1.7994
  42
0
  0
VERTEX
  8
case
  10
2.1504
  20
1.7751
  42
0
  0
VERTEX
  8
case
  10
2.139
  20
1.752
  42
0
  0
VERTEX
  8
case
  10
2.1247
  20
1.7306
  42
0
  0
VERTEX
  8
case
  10
2.1077
  20
1.7112
  42
0
  0
VERTEX
  8
case
  10
2.0883
  20
1.6942
  42
0
  0
VERTEX
  8
case
  10
2.0669
  20
1.6799
  42
0
  0
VERTEX
  8
case
  10
2.0438
  20
1.6685
  42
0
  0
VERTEX
  8
case
  10
2.0195
  20
1.6603
  42
0
  0
VERTEX
  8
case
  10
1.9942
  20
1.6552
  42
0
  0
VERTEX
  8
case
  10
1.9685
  20
1.6535
  42
0
  0
VERTEX
  8
case
  10
1.9428
  20
1.6552
  42
0
  0
VERTEX
  8
case
  10
1.9176
  20
1.6603
  42
0
  0
VERTEX
  8
case
  10
1.8932
  20
1.6685
  42
0
  0
VERTEX
  8
case
  10
1.8701
  20
1.6799
  42
0
  0
VERTEX
  8
case
  10
1.8487
  20
1.6942
  42
0
  0
VERTEX
  8
case
  10
1.8293
  20
1.7112
  42
0
  0
VERTEX
  8
case
  10
1.8123
  20
1.7306
  42
0
  0
VERTEX
  8
case
  10
1.798
  20
1.752
  42
0
  0
VERTEX
  8
case
  10
1.7866
  20
1.7751
  42
0
  0
VERTEX
  8
case
  10
1.7784
  20
1.7994
  42
0
  0
VERTEX
  8
case
  10
1.7733
  20
1.8247
  42
0
  0
VERTEX
  8
case
  10
1.7717
  20
1.8504
  42
0
  0
VERTEX
  8
case
  10
1.7717
  20
1.8504
  42
0
  0
SEQEND
  0
POLYLINE
  8
case
  6
CONTINUOUS
  66
1
  70
0
  40
0.0047
  41
0.0047
  0
VERTEX
  8
case
  10
2.2441
  20
1.378
  42
0
  0
VERTEX
  8
case
  10
2.2458
  20
1.4036
  42
0
  0
VERTEX
  8
case
  10
2.2508
  20
1.4289
  42
0
  0
VERTEX
  8
case
  10
2.2591
  20
1.4533
  42
0
  0
VERTEX
  8
case
  10
2.2705
  20
1.4764
  42
0
  0
VERTEX
  8
case
  10
2.2848
  20
1.4978
  42
0
  0
VERTEX
  8
case
  10
2.3018
  20
1.5171
  42
0
  0
VERTEX
  8
case
  10
2.3211
  20
1.5341
  42
0
  0
VERTEX
  8
case
  10
2.3425
  20
1.5484
  42
0
  0
VERTEX
  8
case
  10
2.3656
  20
1.5598
  42
0
  0
VERTEX
  8
case
  10
2.39
  20
1.5681
  42
0
  0
VERTEX
  8
case
  10
2.4153
  20
1.5731
  42
0
  0
VERTEX
  8
case
  10
2.4409
  20
1.5748
  42
0
  0
VERTEX
  8
case
  10
2.4666
  20
1.5731
  42
0
  0
VERTEX
  8
case
  10
2.4919
  20
1.5681
  42
0
  0
VERTEX
  8
case
  10
2.5163
  20
1.5598
  42
0
  0
VERTEX
  8
case
  10
2.5394
  20
1.5484
  42
0
  0
VERTEX
  8
case
  10
2.5608
  20
1.5341
  42
0
  0
VERTEX
  8
case
  10
2.5801
  20
1.5171
  42
0
  0
VERTEX
  8
case
  10
2.5971
  20
1.4978
  42
0
  0
VERTEX
  8
case
  10
2.6114
  20
1.4764
  42
0
  0
VERTEX
  8
case
  10
2.6228
  20
1.4533
  42
0
  0
VERTEX
  8
case
  10
2.6311
  20
1.4289
  42
0
  0
VERTEX
  8
case
  10
2.6361
  20
1.4036
  42
0
  0
VERTEX
  8
case
  10
2.6378
  20
1.378
  42
0
  0
VERTEX
  8
case
  10
2.6378
  20
1.378
  42
0
  0
VERTEX
  8
case
  10
2.6361
  20
1.3523
  42
0
  0
VERTEX
  8
case
  10
2.6311
  20
1.327
  42
0
  0
VERTEX
  8
case
  10
2.6228
  20
1.3026
  42
0
  0
VERTEX
  8
case
  10
2.6114
  20
1.2795
  42
0
  0
VERTEX
  8
case
  10
2.5971
  20
1.2581
  42
0
  0
VERTEX
  8
case
  10
2.5801
  20
1.2388
  42
0
  0
VERTEX
  8
case
  10
2.5608
  20
1.2218
  42
0
  0
VERTEX
  8
case
  10
2.5394
  20
1.2075
  42
0
  0
VERTEX
  8
case
  10
2.5163
  20
1.1961
  42
0
  0
VERTEX
  8
case
  10
2.4919
  20
1.1878
  42
0
  0
VERTEX
  8
case
  10
2.4666
  20
1.1828
  42
0
  0
VERTEX
  8
case
  10
2.4409
  20
1.1811
  42
0
  0
VERTEX
  8
case
  10
2.4153
  20
1.1828
  42
0
  0
VERTEX
  8
case
  10
2.39
  20
1.1878
  42
0
  0
VERTEX
  8
case
  10
2.3656
  20
1.1961
  42
0
  0
VERTEX
  8
case
  10
2.3425
  20
1.2075
  42
0
  0
VERTEX
  8
case
  10
2.3211
  20
1.2218
  42
0
  0
VERTEX
  8
case
  10
2.3018
  20
1.2388
  42
0
  0
VERTEX
  8
case
  10
2.2848
  20
1.2581
  42
0
  0
VERTEX
  8
case
  10
2.2705
  20
1.2795
  42
0
  0
VERTEX
  8
case
  10
2.2591
  20
1.3026
  42
0
  0
VERTEX
  8
case
  10
2.2508
  20
1.327
  42
0
  0
VERTEX
  8
case
  10
2.2458
  20
1.3523
  42
0
  0
VERTEX
  8
case
  10
2.2441
  20
1.378
  42
0
  0
VERTEX
  8
case
  10
2.2441
  20
1.378
  42
0
  0
SEQEND
  0
ENDSEC
  0
EOF
