  0
SECTION
  2
HEADER
  9
$ACADVER
  1
AC1009
  9
$ANGDIR
  70
0
  9
$CECOLOR
  62
256
  9
$CELTYPE
  6
BYLAYER
  9
$EXTMIN
  10
0.0
  20
0.0
  9
$EXTMAX
  10
84.0
  20
131.0
  9
$FILLMODE
  70
1
  9
$MIRRTEXT
  70
0
  0
ENDSEC
  0
SECTION
  2
TABLES
  0
TABLE
  2
LAYER
  70
24
  0
LAYER
  2
case
  70
64
  62
22
  6
CONTINUOUS
  0
ENDTAB
  0
ENDSEC
  0
SECTION
  2
ENTITIES
  0
POLYLINE
  8
case
  6
CONTINUOUS
  66
1
  70
0
  40
0.0
  41
0.0
  0
VERTEX
  8
case
  10
0.0
  20
8.0
  42
0
  0
VERTEX
  8
case
  10
0.0247
  20
7.3723
  42
0
  0
VERTEX
  8
case
  10
0.0985
  20
6.7485
  42
0
  0
VERTEX
  8
case
  10
0.221
  20
6.1324
  42
0
  0
VERTEX
  8
case
  10
0.3915
  20
5.5279
  42
0
  0
VERTEX
  8
case
  10
0.609
  20
4.9385
  42
0
  0
VERTEX
  8
case
  10
0.8719
  20
4.3681
  42
0
  0
VERTEX
  8
case
  10
1.1789
  20
3.82
  42
0
  0
VERTEX
  8
case
  10
1.5279
  20
3.2977
  42
0
  0
VERTEX
  8
case
  10
1.9167
  20
2.8044
  42
0
  0
VERTEX
  8
case
  10
2.3431
  20
2.3431
  42
0
  0
VERTEX
  8
case
  10
2.8044
  20
1.9167
  42
0
  0
VERTEX
  8
case
  10
3.2977
  20
1.5279
  42
0
  0
VERTEX
  8
case
  10
3.82
  20
1.1789
  42
0
  0
VERTEX
  8
case
  10
4.3681
  20
0.8719
  42
0
  0
VERTEX
  8
case
  10
4.9385
  20
0.609
  42
0
  0
VERTEX
  8
case
  10
5.5279
  20
0.3915
  42
0
  0
VERTEX
  8
case
  10
6.1324
  20
0.221
  42
0
  0
VERTEX
  8
case
  10
6.7485
  20
0.0985
  42
0
  0
VERTEX
  8
case
  10
7.3723
  20
0.0247
  42
0
  0
VERTEX
  8
case
  10
8.0
  20
0.0
  42
0
  0
SEQEND
  0
POLYLINE
  8
case
  6
CONTINUOUS
  66
1
  70
0
  40
0.0
  41
0.0
  0
VERTEX
  8
case
  10
8.0
  20
131.0
  42
0
  0
VERTEX
  8
case
  10
7.3723
  20
130.9753
  42
0
  0
VERTEX
  8
case
  10
6.7485
  20
130.9015
  42
0
  0
VERTEX
  8
case
  10
6.1324
  20
130.779
  42
0
  0
VERTEX
  8
case
  10
5.5279
  20
130.6085
  42
0
  0
VERTEX
  8
case
  10
4.9385
  20
130.391
  42
0
  0
VERTEX
  8
case
  10
4.3681
  20
130.1281
  42
0
  0
VERTEX
  8
case
  10
3.82
  20
129.8211
  42
0
  0
VERTEX
  8
case
  10
3.2977
  20
129.4721
  42
0
  0
VERTEX
  8
case
  10
2.8044
  20
129.0833
  42
0
  0
VERTEX
  8
case
  10
2.3431
  20
128.6569
  42
0
  0
VERTEX
  8
case
  10
1.9167
  20
128.1956
  42
0
  0
VERTEX
  8
case
  10
1.5279
  20
127.7023
  42
0
  0
VERTEX
  8
case
  10
1.1789
  20
127.18
  42
0
  0
VERTEX
  8
case
  10
0.8719
  20
126.6319
  42
0
  0
VERTEX
  8
case
  10
0.609
  20
126.0615
  42
0
  0
VERTEX
  8
case
  10
0.3915
  20
125.4721
  42
0
  0
VERTEX
  8
case
  10
0.221
  20
124.8676
  42
0
  0
VERTEX
  8
case
  10
0.0985
  20
124.2515
  42
0
  0
VERTEX
  8
case
  10
0.0247
  20
123.6277
  42
0
  0
VERTEX
  8
case
  10
0.0
  20
123.0
  42
0
  0
SEQEND
  0
POLYLINE
  8
case
  6
CONTINUOUS
  66
1
  70
0
  40
0.0
  41
0.0
  0
VERTEX
  8
case
  10
84.0
  20
123.0
  42
0
  0
VERTEX
  8
case
  10
83.9753
  20
123.6277
  42
0
  0
VERTEX
  8
case
  10
83.9015
  20
124.2515
  42
0
  0
VERTEX
  8
case
  10
83.779
  20
124.8676
  42
0
  0
VERTEX
  8
case
  10
83.6085
  20
125.4721
  42
0
  0
VERTEX
  8
case
  10
83.391
  20
126.0615
  42
0
  0
VERTEX
  8
case
  10
83.1281
  20
126.6319
  42
0
  0
VERTEX
  8
case
  10
82.8211
  20
127.18
  42
0
  0
VERTEX
  8
case
  10
82.4721
  20
127.7023
  42
0
  0
VERTEX
  8
case
  10
82.0833
  20
128.1956
  42
0
  0
VERTEX
  8
case
  10
81.6569
  20
128.6569
  42
0
  0
VERTEX
  8
case
  10
81.1956
  20
129.0833
  42
0
  0
VERTEX
  8
case
  10
80.7023
  20
129.4721
  42
0
  0
VERTEX
  8
case
  10
80.18
  20
129.8211
  42
0
  0
VERTEX
  8
case
  10
79.6319
  20
130.1281
  42
0
  0
VERTEX
  8
case
  10
79.0615
  20
130.391
  42
0
  0
VERTEX
  8
case
  10
78.4721
  20
130.6085
  42
0
  0
VERTEX
  8
case
  10
77.8676
  20
130.779
  42
0
  0
VERTEX
  8
case
  10
77.2515
  20
130.9015
  42
0
  0
VERTEX
  8
case
  10
76.6277
  20
130.9753
  42
0
  0
VERTEX
  8
case
  10
76.0
  20
131.0
  42
0
  0
SEQEND
  0
POLYLINE
  8
case
  6
CONTINUOUS
  66
1
  70
0
  40
0.0
  41
0.0
  0
VERTEX
  8
case
  10
66.0
  20
0.0
  42
0
  0
VERTEX
  8
case
  10
67.4123
  20
0.0555
  42
0
  0
VERTEX
  8
case
  10
68.8158
  20
0.2216
  42
0
  0
VERTEX
  8
case
  10
70.202
  20
0.4973
  42
0
  0
VERTEX
  8
case
  10
71.5623
  20
0.881
  42
0
  0
VERTEX
  8
case
  10
72.8883
  20
1.3702
  42
0
  0
VERTEX
  8
case
  10
74.1718
  20
1.9619
  42
0
  0
VERTEX
  8
case
  10
75.405
  20
2.6525
  42
0
  0
VERTEX
  8
case
  10
76.5801
  20
3.4377
  42
0
  0
VERTEX
  8
case
  10
77.6901
  20
4.3127
  42
0
  0
VERTEX
  8
case
  10
78.7279
  20
5.2721
  42
0
  0
VERTEX
  8
case
  10
79.6873
  20
6.3099
  42
0
  0
VERTEX
  8
case
  10
80.5623
  20
7.4199
  42
0
  0
VERTEX
  8
case
  10
81.3475
  20
8.595
  42
0
  0
VERTEX
  8
case
  10
82.0381
  20
9.8282
  42
0
  0
VERTEX
  8
case
  10
82.6298
  20
11.1117
  42
0
  0
VERTEX
  8
case
  10
83.119
  20
12.4377
  42
0
  0
VERTEX
  8
case
  10
83.5027
  20
13.798
  42
0
  0
VERTEX
  8
case
  10
83.7784
  20
15.1842
  42
0
  0
VERTEX
  8
case
  10
83.9445
  20
16.5877
  42
0
  0
VERTEX
  8
case
  10
84.0
  20
18.0
  42
0
  0
SEQEND
  0
POLYLINE
  8
case
  6
CONTINUOUS
  66
1
  70
0
  40
0.0
  41
0.0
  0
VERTEX
  8
case
  10
8.0
  20
131.0
  42
0
  0
VERTEX
  8
case
  10
76.0
  20
131.0
  42
0
  0
SEQEND
  0
POLYLINE
  8
case
  6
CONTINUOUS
  66
1
  70
0
  40
0.0
  41
0.0
  0
VERTEX
  8
case
  10
0.0
  20
123.0
  42
0
  0
VERTEX
  8
case
  10
0.0
  20
8.0
  42
0
  0
SEQEND
  0
POLYLINE
  8
case
  6
CONTINUOUS
  66
1
  70
0
  40
0.0
  41
0.0
  0
VERTEX
  8
case
  10
84.0
  20
18.0
  42
0
  0
VERTEX
  8
case
  10
84.0
  20
123.0
  42
0
  0
SEQEND
  0
POLYLINE
  8
case
  6
CONTINUOUS
  66
1
  70
0
  40
0.0
  41
0.0
  0
VERTEX
  8
case
  10
8.0
  20
0.0
  42
0
  0
VERTEX
  8
case
  10
66.0
  20
0.0
  42
0
  0
SEQEND
  0
POLYLINE
  8
case
  6
CONTINUOUS
  66
1
  70
0
  40
0.0
  41
0.0
  0
VERTEX
  8
case
  10
12.5
  20
59.0
  42
0
  0
VERTEX
  8
case
  10
12.5
  20
66.0
  42
0
  0
VERTEX
  8
case
  10
19.5
  20
66.0
  42
0
  0
VERTEX
  8
case
  10
19.5
  20
59.0
  42
0
  0
VERTEX
  8
case
  10
26.5
  20
59.0
  42
0
  0
VERTEX
  8
case
  10
26.5
  20
52.0
  42
0
  0
VERTEX
  8
case
  10
19.5
  20
52.0
  42
0
  0
VERTEX
  8
case
  10
19.5
  20
45.0
  42
0
  0
VERTEX
  8
case
  10
12.5
  20
45.0
  42
0
  0
VERTEX
  8
case
  10
12.5
  20
52.0
  42
0
  0
VERTEX
  8
case
  10
5.5
  20
52.0
  42
0
  0
VERTEX
  8
case
  10
5.5
  20
59.0
  42
0
  0
VERTEX
  8
case
  10
12.5
  20
59.0
  42
0
  0
SEQEND
  0
POLYLINE
  8
case
  6
CONTINUOUS
  66
1
  70
0
  40
0.0
  41
0.0
  0
VERTEX
  8
case
  10
7.8
  20
28.5
  42
0
  0
VERTEX
  8
case
  10
7.8856
  20
29.8053
  42
0
  0
VERTEX
  8
case
  10
8.1407
  20
31.0882
  42
0
  0
VERTEX
  8
case
  10
8.5612
  20
32.3268
  42
0
  0
VERTEX
  8
case
  10
9.1397
  20
33.5
  42
0
  0
VERTEX
  8
case
  10
9.8665
  20
34.5876
  42
0
  0
VERTEX
  8
case
  10
10.7289
  20
35.5711
  42
0
  0
VERTEX
  8
case
  10
11.7124
  20
36.4335
  42
0
  0
VERTEX
  8
case
  10
12.8
  20
37.1603
  42
0
  0
VERTEX
  8
case
  10
13.9732
  20
37.7388
  42
0
  0
VERTEX
  8
case
  10
15.2118
  20
38.1593
  42
0
  0
VERTEX
  8
case
  10
16.4947
  20
38.4144
  42
0
  0
VERTEX
  8
case
  10
17.8
  20
38.5
  42
0
  0
VERTEX
  8
case
  10
19.1053
  20
38.4144
  42
0
  0
VERTEX
  8
case
  10
20.3882
  20
38.1593
  42
0
  0
VERTEX
  8
case
  10
21.6268
  20
37.7388
  42
0
  0
VERTEX
  8
case
  10
22.8
  20
37.1603
  42
0
  0
VERTEX
  8
case
  10
23.8876
  20
36.4335
  42
0
  0
VERTEX
  8
case
  10
24.8711
  20
35.5711
  42
0
  0
VERTEX
  8
case
  10
25.7335
  20
34.5876
  42
0
  0
VERTEX
  8
case
  10
26.4603
  20
33.5
  42
0
  0
VERTEX
  8
case
  10
27.0388
  20
32.3268
  42
0
  0
VERTEX
  8
case
  10
27.4593
  20
31.0882
  42
0
  0
VERTEX
  8
case
  10
27.7144
  20
29.8053
  42
0
  0
VERTEX
  8
case
  10
27.8
  20
28.5
  42
0
  0
VERTEX
  8
case
  10
27.8
  20
28.5
  42
0
  0
VERTEX
  8
case
  10
27.7144
  20
27.1947
  42
0
  0
VERTEX
  8
case
  10
27.4593
  20
25.9118
  42
0
  0
VERTEX
  8
case
  10
27.0388
  20
24.6732
  42
0
  0
VERTEX
  8
case
  10
26.4603
  20
23.5
  42
0
  0
VERTEX
  8
case
  10
25.7335
  20
22.4124
  42
0
  0
VERTEX
  8
case
  10
24.8711
  20
21.4289
  42
0
  0
VERTEX
  8
case
  10
23.8876
  20
20.5665
  42
0
  0
VERTEX
  8
case
  10
22.8
  20
19.8397
  42
0
  0
VERTEX
  8
case
  10
21.6268
  20
19.2612
  42
0
  0
VERTEX
  8
case
  10
20.3882
  20
18.8407
  42
0
  0
VERTEX
  8
case
  10
19.1053
  20
18.5856
  42
0
  0
VERTEX
  8
case
  10
17.8
  20
18.5
  42
0
  0
VERTEX
  8
case
  10
16.4947
  20
18.5856
  42
0
  0
VERTEX
  8
case
  10
15.2118
  20
18.8407
  42
0
  0
VERTEX
  8
case
  10
13.9732
  20
19.2612
  42
0
  0
VERTEX
  8
case
  10
12.8
  20
19.8397
  42
0
  0
VERTEX
  8
case
  10
11.7124
  20
20.5665
  42
0
  0
VERTEX
  8
case
  10
10.7289
  20
21.4289
  42
0
  0
VERTEX
  8
case
  10
9.8665
  20
22.4124
  42
0
  0
VERTEX
  8
case
  10
9.1397
  20
23.5
  42
0
  0
VERTEX
  8
case
  10
8.5612
  20
24.6732
  42
0
  0
VERTEX
  8
case
  10
8.1407
  20
25.9118
  42
0
  0
VERTEX
  8
case
  10
7.8856
  20
27.1947
  42
0
  0
VERTEX
  8
case
  10
7.8
  20
28.5
  42
0
  0
VERTEX
  8
case
  10
7.8
  20
28.5
  42
0
  0
SEQEND
  0
POLYLINE
  8
case
  6
CONTINUOUS
  66
1
  70
0
  40
0.0
  41
0.0
  0
VERTEX
  8
case
  10
57.0
  20
59.0
  42
0
  0
VERTEX
  8
case
  10
57.0428
  20
59.6526
  42
0
  0
VERTEX
  8
case
  10
57.1704
  20
60.2941
  42
0
  0
VERTEX
  8
case
  10
57.3806
  20
60.9134
  42
0
  0
VERTEX
  8
case
  10
57.6699
  20
61.5
  42
0
  0
VERTEX
  8
case
  10
58.0332
  20
62.0438
  42
0
  0
VERTEX
  8
case
  10
58.4645
  20
62.5355
  42
0
  0
VERTEX
  8
case
  10
58.9562
  20
62.9668
  42
0
  0
VERTEX
  8
case
  10
59.5
  20
63.3301
  42
0
  0
VERTEX
  8
case
  10
60.0866
  20
63.6194
  42
0
  0
VERTEX
  8
case
  10
60.7059
  20
63.8296
  42
0
  0
VERTEX
  8
case
  10
61.3474
  20
63.9572
  42
0
  0
VERTEX
  8
case
  10
62.0
  20
64.0
  42
0
  0
VERTEX
  8
case
  10
62.6526
  20
63.9572
  42
0
  0
VERTEX
  8
case
  10
63.2941
  20
63.8296
  42
0
  0
VERTEX
  8
case
  10
63.9134
  20
63.6194
  42
0
  0
VERTEX
  8
case
  10
64.5
  20
63.3301
  42
0
  0
VERTEX
  8
case
  10
65.0438
  20
62.9668
  42
0
  0
VERTEX
  8
case
  10
65.5355
  20
62.5355
  42
0
  0
VERTEX
  8
case
  10
65.9668
  20
62.0438
  42
0
  0
VERTEX
  8
case
  10
66.3301
  20
61.5
  42
0
  0
VERTEX
  8
case
  10
66.6194
  20
60.9134
  42
0
  0
VERTEX
  8
case
  10
66.8296
  20
60.2941
  42
0
  0
VERTEX
  8
case
  10
66.9572
  20
59.6526
  42
0
  0
VERTEX
  8
case
  10
67.0
  20
59.0
  42
0
  0
VERTEX
  8
case
  10
67.0
  20
59.0
  42
0
  0
VERTEX
  8
case
  10
66.9572
  20
58.3474
  42
0
  0
VERTEX
  8
case
  10
66.8296
  20
57.7059
  42
0
  0
VERTEX
  8
case
  10
66.6194
  20
57.0866
  42
0
  0
VERTEX
  8
case
  10
66.3301
  20
56.5
  42
0
  0
VERTEX
  8
case
  10
65.9668
  20
55.9562
  42
0
  0
VERTEX
  8
case
  10
65.5355
  20
55.4645
  42
0
  0
VERTEX
  8
case
  10
65.0438
  20
55.0332
  42
0
  0
VERTEX
  8
case
  10
64.5
  20
54.6699
  42
0
  0
VERTEX
  8
case
  10
63.9134
  20
54.3806
  42
0
  0
VERTEX
  8
case
  10
63.2941
  20
54.1704
  42
0
  0
VERTEX
  8
case
  10
62.6526
  20
54.0428
  42
0
  0
VERTEX
  8
case
  10
62.0
  20
54.0
  42
0
  0
VERTEX
  8
case
  10
61.3474
  20
54.0428
  42
0
  0
VERTEX
  8
case
  10
60.7059
  20
54.1704
  42
0
  0
VERTEX
  8
case
  10
60.0866
  20
54.3806
  42
0
  0
VERTEX
  8
case
  10
59.5
  20
54.6699
  42
0
  0
VERTEX
  8
case
  10
58.9562
  20
55.0332
  42
0
  0
VERTEX
  8
case
  10
58.4645
  20
55.4645
  42
0
  0
VERTEX
  8
case
  10
58.0332
  20
55.9562
  42
0
  0
VERTEX
  8
case
  10
57.6699
  20
56.5
  42
0
  0
VERTEX
  8
case
  10
57.3806
  20
57.0866
  42
0
  0
VERTEX
  8
case
  10
57.1704
  20
57.7059
  42
0
  0
VERTEX
  8
case
  10
57.0428
  20
58.3474
  42
0
  0
VERTEX
  8
case
  10
57.0
  20
59.0
  42
0
  0
VERTEX
  8
case
  10
57.0
  20
59.0
  42
0
  0
SEQEND
  0
POLYLINE
  8
case
  6
CONTINUOUS
  66
1
  70
0
  40
0.0
  41
0.0
  0
VERTEX
  8
case
  10
69.0
  20
47.0
  42
0
  0
VERTEX
  8
case
  10
69.0428
  20
47.6526
  42
0
  0
VERTEX
  8
case
  10
69.1704
  20
48.2941
  42
0
  0
VERTEX
  8
case
  10
69.3806
  20
48.9134
  42
0
  0
VERTEX
  8
case
  10
69.6699
  20
49.5
  42
0
  0
VERTEX
  8
case
  10
70.0332
  20
50.0438
  42
0
  0
VERTEX
  8
case
  10
70.4645
  20
50.5355
  42
0
  0
VERTEX
  8
case
  10
70.9562
  20
50.9668
  42
0
  0
VERTEX
  8
case
  10
71.5
  20
51.3301
  42
0
  0
VERTEX
  8
case
  10
72.0866
  20
51.6194
  42
0
  0
VERTEX
  8
case
  10
72.7059
  20
51.8296
  42
0
  0
VERTEX
  8
case
  10
73.3474
  20
51.9572
  42
0
  0
VERTEX
  8
case
  10
74.0
  20
52.0
  42
0
  0
VERTEX
  8
case
  10
74.6526
  20
51.9572
  42
0
  0
VERTEX
  8
case
  10
75.2941
  20
51.8296
  42
0
  0
VERTEX
  8
case
  10
75.9134
  20
51.6194
  42
0
  0
VERTEX
  8
case
  10
76.5
  20
51.3301
  42
0
  0
VERTEX
  8
case
  10
77.0438
  20
50.9668
  42
0
  0
VERTEX
  8
case
  10
77.5355
  20
50.5355
  42
0
  0
VERTEX
  8
case
  10
77.9668
  20
50.0438
  42
0
  0
VERTEX
  8
case
  10
78.3301
  20
49.5
  42
0
  0
VERTEX
  8
case
  10
78.6194
  20
48.9134
  42
0
  0
VERTEX
  8
case
  10
78.8296
  20
48.2941
  42
0
  0
VERTEX
  8
case
  10
78.9572
  20
47.6526
  42
0
  0
VERTEX
  8
case
  10
79.0
  20
47.0
  42
0
  0
VERTEX
  8
case
  10
79.0
  20
47.0
  42
0
  0
VERTEX
  8
case
  10
78.9572
  20
46.3474
  42
0
  0
VERTEX
  8
case
  10
78.8296
  20
45.7059
  42
0
  0
VERTEX
  8
case
  10
78.6194
  20
45.0866
  42
0
  0
VERTEX
  8
case
  10
78.3301
  20
44.5
  42
0
  0
VERTEX
  8
case
  10
77.9668
  20
43.9562
  42
0
  0
VERTEX
  8
case
  10
77.5355
  20
43.4645
  42
0
  0
VERTEX
  8
case
  10
77.0438
  20
43.0332
  42
0
  0
VERTEX
  8
case
  10
76.5
  20
42.6699
  42
0
  0
VERTEX
  8
case
  10
75.9134
  20
42.3806
  42
0
  0
VERTEX
  8
case
  10
75.2941
  20
42.1704
  42
0
  0
VERTEX
  8
case
  10
74.6526
  20
42.0428
  42
0
  0
VERTEX
  8
case
  10
74.0
  20
42.0
  42
0
  0
VERTEX
  8
case
  10
73.3474
  20
42.0428
  42
0
  0
VERTEX
  8
case
  10
72.7059
  20
42.1704
  42
0
  0
VERTEX
  8
case
  10
72.0866
  20
42.3806
  42
0
  0
VERTEX
  8
case
  10
71.5
  20
42.6699
  42
0
  0
VERTEX
  8
case
  10
70.9562
  20
43.0332
  42
0
  0
VERTEX
  8
case
  10
70.4645
  20
43.4645
  42
0
  0
VERTEX
  8
case
  10
70.0332
  20
43.9562
  42
0
  0
VERTEX
  8
case
  10
69.6699
  20
44.5
  42
0
  0
VERTEX
  8
case
  10
69.3806
  20
45.0866
  42
0
  0
VERTEX
  8
case
  10
69.1704
  20
45.7059
  42
0
  0
VERTEX
  8
case
  10
69.0428
  20
46.3474
  42
0
  0
VERTEX
  8
case
  10
69.0
  20
47.0
  42
0
  0
VERTEX
  8
case
  10
69.0
  20
47.0
  42
0
  0
SEQEND
  0
POLYLINE
  8
case
  6
CONTINUOUS
  66
1
  70
0
  40
0.0
  41
0.0
  0
VERTEX
  8
case
  10
45.0
  20
47.0
  42
0
  0
VERTEX
  8
case
  10
45.0428
  20
47.6526
  42
0
  0
VERTEX
  8
case
  10
45.1704
  20
48.2941
  42
0
  0
VERTEX
  8
case
  10
45.3806
  20
48.9134
  42
0
  0
VERTEX
  8
case
  10
45.6699
  20
49.5
  42
0
  0
VERTEX
  8
case
  10
46.0332
  20
50.0438
  42
0
  0
VERTEX
  8
case
  10
46.4645
  20
50.5355
  42
0
  0
VERTEX
  8
case
  10
46.9562
  20
50.9668
  42
0
  0
VERTEX
  8
case
  10
47.5
  20
51.3301
  42
0
  0
VERTEX
  8
case
  10
48.0866
  20
51.6194
  42
0
  0
VERTEX
  8
case
  10
48.7059
  20
51.8296
  42
0
  0
VERTEX
  8
case
  10
49.3474
  20
51.9572
  42
0
  0
VERTEX
  8
case
  10
50.0
  20
52.0
  42
0
  0
VERTEX
  8
case
  10
50.6526
  20
51.9572
  42
0
  0
VERTEX
  8
case
  10
51.2941
  20
51.8296
  42
0
  0
VERTEX
  8
case
  10
51.9134
  20
51.6194
  42
0
  0
VERTEX
  8
case
  10
52.5
  20
51.3301
  42
0
  0
VERTEX
  8
case
  10
53.0438
  20
50.9668
  42
0
  0
VERTEX
  8
case
  10
53.5355
  20
50.5355
  42
0
  0
VERTEX
  8
case
  10
53.9668
  20
50.0438
  42
0
  0
VERTEX
  8
case
  10
54.3301
  20
49.5
  42
0
  0
VERTEX
  8
case
  10
54.6194
  20
48.9134
  42
0
  0
VERTEX
  8
case
  10
54.8296
  20
48.2941
  42
0
  0
VERTEX
  8
case
  10
54.9572
  20
47.6526
  42
0
  0
VERTEX
  8
case
  10
55.0
  20
47.0
  42
0
  0
VERTEX
  8
case
  10
55.0
  20
47.0
  42
0
  0
VERTEX
  8
case
  10
54.9572
  20
46.3474
  42
0
  0
VERTEX
  8
case
  10
54.8296
  20
45.7059
  42
0
  0
VERTEX
  8
case
  10
54.6194
  20
45.0866
  42
0
  0
VERTEX
  8
case
  10
54.3301
  20
44.5
  42
0
  0
VERTEX
  8
case
  10
53.9668
  20
43.9562
  42
0
  0
VERTEX
  8
case
  10
53.5355
  20
43.4645
  42
0
  0
VERTEX
  8
case
  10
53.0438
  20
43.0332
  42
0
  0
VERTEX
  8
case
  10
52.5
  20
42.6699
  42
0
  0
VERTEX
  8
case
  10
51.9134
  20
42.3806
  42
0
  0
VERTEX
  8
case
  10
51.2941
  20
42.1704
  42
0
  0
VERTEX
  8
case
  10
50.6526
  20
42.0428
  42
0
  0
VERTEX
  8
case
  10
50.0
  20
42.0
  42
0
  0
VERTEX
  8
case
  10
49.3474
  20
42.0428
  42
0
  0
VERTEX
  8
case
  10
48.7059
  20
42.1704
  42
0
  0
VERTEX
  8
case
  10
48.0866
  20
42.3806
  42
0
  0
VERTEX
  8
case
  10
47.5
  20
42.6699
  42
0
  0
VERTEX
  8
case
  10
46.9562
  20
43.0332
  42
0
  0
VERTEX
  8
case
  10
46.4645
  20
43.4645
  42
0
  0
VERTEX
  8
case
  10
46.0332
  20
43.9562
  42
0
  0
VERTEX
  8
case
  10
45.6699
  20
44.5
  42
0
  0
VERTEX
  8
case
  10
45.3806
  20
45.0866
  42
0
  0
VERTEX
  8
case
  10
45.1704
  20
45.7059
  42
0
  0
VERTEX
  8
case
  10
45.0428
  20
46.3474
  42
0
  0
VERTEX
  8
case
  10
45.0
  20
47.0
  42
0
  0
VERTEX
  8
case
  10
45.0
  20
47.0
  42
0
  0
SEQEND
  0
POLYLINE
  8
case
  6
CONTINUOUS
  66
1
  70
0
  40
0.0
  41
0.0
  0
VERTEX
  8
case
  10
57.0
  20
35.0
  42
0
  0
VERTEX
  8
case
  10
57.0428
  20
35.6526
  42
0
  0
VERTEX
  8
case
  10
57.1704
  20
36.2941
  42
0
  0
VERTEX
  8
case
  10
57.3806
  20
36.9134
  42
0
  0
VERTEX
  8
case
  10
57.6699
  20
37.5
  42
0
  0
VERTEX
  8
case
  10
58.0332
  20
38.0438
  42
0
  0
VERTEX
  8
case
  10
58.4645
  20
38.5355
  42
0
  0
VERTEX
  8
case
  10
58.9562
  20
38.9668
  42
0
  0
VERTEX
  8
case
  10
59.5
  20
39.3301
  42
0
  0
VERTEX
  8
case
  10
60.0866
  20
39.6194
  42
0
  0
VERTEX
  8
case
  10
60.7059
  20
39.8296
  42
0
  0
VERTEX
  8
case
  10
61.3474
  20
39.9572
  42
0
  0
VERTEX
  8
case
  10
62.0
  20
40.0
  42
0
  0
VERTEX
  8
case
  10
62.6526
  20
39.9572
  42
0
  0
VERTEX
  8
case
  10
63.2941
  20
39.8296
  42
0
  0
VERTEX
  8
case
  10
63.9134
  20
39.6194
  42
0
  0
VERTEX
  8
case
  10
64.5
  20
39.3301
  42
0
  0
VERTEX
  8
case
  10
65.0438
  20
38.9668
  42
0
  0
VERTEX
  8
case
  10
65.5355
  20
38.5355
  42
0
  0
VERTEX
  8
case
  10
65.9668
  20
38.0438
  42
0
  0
VERTEX
  8
case
  10
66.3301
  20
37.5
  42
0
  0
VERTEX
  8
case
  10
66.6194
  20
36.9134
  42
0
  0
VERTEX
  8
case
  10
66.8296
  20
36.2941
  42
0
  0
VERTEX
  8
case
  10
66.9572
  20
35.6526
  42
0
  0
VERTEX
  8
case
  10
67.0
  20
35.0
  42
0
  0
VERTEX
  8
case
  10
67.0
  20
35.0
  42
0
  0
VERTEX
  8
case
  10
66.9572
  20
34.3474
  42
0
  0
VERTEX
  8
case
  10
66.8296
  20
33.7059
  42
0
  0
VERTEX
  8
case
  10
66.6194
  20
33.0866
  42
0
  0
VERTEX
  8
case
  10
66.3301
  20
32.5
  42
0
  0
VERTEX
  8
case
  10
65.9668
  20
31.9562
  42
0
  0
VERTEX
  8
case
  10
65.5355
  20
31.4645
  42
0
  0
VERTEX
  8
case
  10
65.0438
  20
31.0332
  42
0
  0
VERTEX
  8
case
  10
64.5
  20
30.6699
  42
0
  0
VERTEX
  8
case
  10
63.9134
  20
30.3806
  42
0
  0
VERTEX
  8
case
  10
63.2941
  20
30.1704
  42
0
  0
VERTEX
  8
case
  10
62.6526
  20
30.0428
  42
0
  0
VERTEX
  8
case
  10
62.0
  20
30.0
  42
0
  0
VERTEX
  8
case
  10
61.3474
  20
30.0428
  42
0
  0
VERTEX
  8
case
  10
60.7059
  20
30.1704
  42
0
  0
VERTEX
  8
case
  10
60.0866
  20
30.3806
  42
0
  0
VERTEX
  8
case
  10
59.5
  20
30.6699
  42
0
  0
VERTEX
  8
case
  10
58.9562
  20
31.0332
  42
0
  0
VERTEX
  8
case
  10
58.4645
  20
31.4645
  42
0
  0
VERTEX
  8
case
  10
58.0332
  20
31.9562
  42
0
  0
VERTEX
  8
case
  10
57.6699
  20
32.5
  42
0
  0
VERTEX
  8
case
  10
57.3806
  20
33.0866
  42
0
  0
VERTEX
  8
case
  10
57.1704
  20
33.7059
  42
0
  0
VERTEX
  8
case
  10
57.0428
  20
34.3474
  42
0
  0
VERTEX
  8
case
  10
57.0
  20
35.0
  42
0
  0
VERTEX
  8
case
  10
57.0
  20
35.0
  42
0
  0
SEQEND
  0
POLYLINE
  8
case
  6
CONTINUOUS
  66
1
  70
0
  40
0.0
  41
0.0
  0
VERTEX
  8
case
  10
25.5
  20
14.5
  42
0
  0
VERTEX
  8
case
  10
25.5214
  20
14.8263
  42
0
  0
VERTEX
  8
case
  10
25.5852
  20
15.147
  42
0
  0
VERTEX
  8
case
  10
25.6903
  20
15.4567
  42
0
  0
VERTEX
  8
case
  10
25.8349
  20
15.75
  42
0
  0
VERTEX
  8
case
  10
26.0166
  20
16.0219
  42
0
  0
VERTEX
  8
case
  10
26.2322
  20
16.2678
  42
0
  0
VERTEX
  8
case
  10
26.4781
  20
16.4834
  42
0
  0
VERTEX
  8
case
  10
26.75
  20
16.6651
  42
0
  0
VERTEX
  8
case
  10
27.0433
  20
16.8097
  42
0
  0
VERTEX
  8
case
  10
27.353
  20
16.9148
  42
0
  0
VERTEX
  8
case
  10
27.6737
  20
16.9786
  42
0
  0
VERTEX
  8
case
  10
28.0
  20
17.0
  42
0
  0
VERTEX
  8
case
  10
28.3263
  20
16.9786
  42
0
  0
VERTEX
  8
case
  10
28.647
  20
16.9148
  42
0
  0
VERTEX
  8
case
  10
28.9567
  20
16.8097
  42
0
  0
VERTEX
  8
case
  10
29.25
  20
16.6651
  42
0
  0
VERTEX
  8
case
  10
29.5219
  20
16.4834
  42
0
  0
VERTEX
  8
case
  10
29.7678
  20
16.2678
  42
0
  0
VERTEX
  8
case
  10
29.9834
  20
16.0219
  42
0
  0
VERTEX
  8
case
  10
30.1651
  20
15.75
  42
0
  0
VERTEX
  8
case
  10
30.3097
  20
15.4567
  42
0
  0
VERTEX
  8
case
  10
30.4148
  20
15.147
  42
0
  0
VERTEX
  8
case
  10
30.4786
  20
14.8263
  42
0
  0
VERTEX
  8
case
  10
30.5
  20
14.5
  42
0
  0
VERTEX
  8
case
  10
30.5
  20
9.5
  42
0
  0
VERTEX
  8
case
  10
30.4786
  20
9.1737
  42
0
  0
VERTEX
  8
case
  10
30.4148
  20
8.853
  42
0
  0
VERTEX
  8
case
  10
30.3097
  20
8.5433
  42
0
  0
VERTEX
  8
case
  10
30.1651
  20
8.25
  42
0
  0
VERTEX
  8
case
  10
29.9834
  20
7.9781
  42
0
  0
VERTEX
  8
case
  10
29.7678
  20
7.7322
  42
0
  0
VERTEX
  8
case
  10
29.5219
  20
7.5166
  42
0
  0
VERTEX
  8
case
  10
29.25
  20
7.3349
  42
0
  0
VERTEX
  8
case
  10
28.9567
  20
7.1903
  42
0
  0
VERTEX
  8
case
  10
28.647
  20
7.0852
  42
0
  0
VERTEX
  8
case
  10
28.3263
  20
7.0214
  42
0
  0
VERTEX
  8
case
  10
28.0
  20
7.0
  42
0
  0
VERTEX
  8
case
  10
27.6737
  20
7.0214
  42
0
  0
VERTEX
  8
case
  10
27.353
  20
7.0852
  42
0
  0
VERTEX
  8
case
  10
27.0433
  20
7.1903
  42
0
  0
VERTEX
  8
case
  10
26.75
  20
7.3349
  42
0
  0
VERTEX
  8
case
  10
26.4781
  20
7.5166
  42
0
  0
VERTEX
  8
case
  10
26.2322
  20
7.7322
  42
0
  0
VERTEX
  8
case
  10
26.0166
  20
7.9781
  42
0
  0
VERTEX
  8
case
  10
25.8349
  20
8.25
  42
0
  0
VERTEX
  8
case
  10
25.6903
  20
8.5433
  42
0
  0
VERTEX
  8
case
  10
25.5852
  20
8.853
  42
0
  0
VERTEX
  8
case
  10
25.5214
  20
9.1737
  42
0
  0
VERTEX
  8
case
  10
25.5
  20
9.5
  42
0
  0
VERTEX
  8
case
  10
25.5
  20
14.5
  42
0
  0
SEQEND
  0
POLYLINE
  8
case
  6
CONTINUOUS
  66
1
  70
0
  40
0.0
  41
0.0
  0
VERTEX
  8
case
  10
53.5
  20
9.5
  42
0
  0
VERTEX
  8
case
  10
53.1737
  20
9.5214
  42
0
  0
VERTEX
  8
case
  10
52.853
  20
9.5852
  42
0
  0
VERTEX
  8
case
  10
52.5433
  20
9.6903
  42
0
  0
VERTEX
  8
case
  10
52.25
  20
9.8349
  42
0
  0
VERTEX
  8
case
  10
51.9781
  20
10.0166
  42
0
  0
VERTEX
  8
case
  10
51.7322
  20
10.2322
  42
0
  0
VERTEX
  8
case
  10
51.5166
  20
10.4781
  42
0
  0
VERTEX
  8
case
  10
51.3349
  20
10.75
  42
0
  0
VERTEX
  8
case
  10
51.1903
  20
11.0433
  42
0
  0
VERTEX
  8
case
  10
51.0852
  20
11.353
  42
0
  0
VERTEX
  8
case
  10
51.0214
  20
11.6737
  42
0
  0
VERTEX
  8
case
  10
51.0
  20
12.0
  42
0
  0
VERTEX
  8
case
  10
51.0214
  20
12.3263
  42
0
  0
VERTEX
  8
case
  10
51.0852
  20
12.647
  42
0
  0
VERTEX
  8
case
  10
51.1903
  20
12.9567
  42
0
  0
VERTEX
  8
case
  10
51.3349
  20
13.25
  42
0
  0
VERTEX
  8
case
  10
51.5166
  20
13.5219
  42
0
  0
VERTEX
  8
case
  10
51.7322
  20
13.7678
  42
0
  0
VERTEX
  8
case
  10
51.9781
  20
13.9834
  42
0
  0
VERTEX
  8
case
  10
52.25
  20
14.1651
  42
0
  0
VERTEX
  8
case
  10
52.5433
  20
14.3097
  42
0
  0
VERTEX
  8
case
  10
52.853
  20
14.4148
  42
0
  0
VERTEX
  8
case
  10
53.1737
  20
14.4786
  42
0
  0
VERTEX
  8
case
  10
53.5
  20
14.5
  42
0
  0
VERTEX
  8
case
  10
58.5
  20
14.5
  42
0
  0
VERTEX
  8
case
  10
58.8263
  20
14.4786
  42
0
  0
VERTEX
  8
case
  10
59.147
  20
14.4148
  42
0
  0
VERTEX
  8
case
  10
59.4567
  20
14.3097
  42
0
  0
VERTEX
  8
case
  10
59.75
  20
14.1651
  42
0
  0
VERTEX
  8
case
  10
60.0219
  20
13.9834
  42
0
  0
VERTEX
  8
case
  10
60.2678
  20
13.7678
  42
0
  0
VERTEX
  8
case
  10
60.4834
  20
13.5219
  42
0
  0
VERTEX
  8
case
  10
60.6651
  20
13.25
  42
0
  0
VERTEX
  8
case
  10
60.8097
  20
12.9567
  42
0
  0
VERTEX
  8
case
  10
60.9148
  20
12.647
  42
0
  0
VERTEX
  8
case
  10
60.9786
  20
12.3263
  42
0
  0
VERTEX
  8
case
  10
61.0
  20
12.0
  42
0
  0
VERTEX
  8
case
  10
60.9786
  20
11.6737
  42
0
  0
VERTEX
  8
case
  10
60.9148
  20
11.353
  42
0
  0
VERTEX
  8
case
  10
60.8097
  20
11.0433
  42
0
  0
VERTEX
  8
case
  10
60.6651
  20
10.75
  42
0
  0
VERTEX
  8
case
  10
60.4834
  20
10.4781
  42
0
  0
VERTEX
  8
case
  10
60.2678
  20
10.2322
  42
0
  0
VERTEX
  8
case
  10
60.0219
  20
10.0166
  42
0
  0
VERTEX
  8
case
  10
59.75
  20
9.8349
  42
0
  0
VERTEX
  8
case
  10
59.4567
  20
9.6903
  42
0
  0
VERTEX
  8
case
  10
59.147
  20
9.5852
  42
0
  0
VERTEX
  8
case
  10
58.8263
  20
9.5214
  42
0
  0
VERTEX
  8
case
  10
58.5
  20
9.5
  42
0
  0
VERTEX
  8
case
  10
53.5
  20
9.5
  42
0
  0
SEQEND
  0
POLYLINE
  8
case
  6
CONTINUOUS
  66
1
  70
0
  40
0.0
  41
0.0
  0
VERTEX
  8
case
  10
41.0
  20
21.5
  42
0
  0
VERTEX
  8
case
  10
41.0086
  20
21.6305
  42
0
  0
VERTEX
  8
case
  10
41.0341
  20
21.7588
  42
0
  0
VERTEX
  8
case
  10
41.0761
  20
21.8827
  42
0
  0
VERTEX
  8
case
  10
41.134
  20
22.0
  42
0
  0
VERTEX
  8
case
  10
41.2066
  20
22.1088
  42
0
  0
VERTEX
  8
case
  10
41.2929
  20
22.2071
  42
0
  0
VERTEX
  8
case
  10
41.3912
  20
22.2934
  42
0
  0
VERTEX
  8
case
  10
41.5
  20
22.366
  42
0
  0
VERTEX
  8
case
  10
41.6173
  20
22.4239
  42
0
  0
VERTEX
  8
case
  10
41.7412
  20
22.4659
  42
0
  0
VERTEX
  8
case
  10
41.8695
  20
22.4914
  42
0
  0
VERTEX
  8
case
  10
42.0
  20
22.5
  42
0
  0
VERTEX
  8
case
  10
42.1305
  20
22.4914
  42
0
  0
VERTEX
  8
case
  10
42.2588
  20
22.4659
  42
0
  0
VERTEX
  8
case
  10
42.3827
  20
22.4239
  42
0
  0
VERTEX
  8
case
  10
42.5
  20
22.366
  42
0
  0
VERTEX
  8
case
  10
42.6088
  20
22.2934
  42
0
  0
VERTEX
  8
case
  10
42.7071
  20
22.2071
  42
0
  0
VERTEX
  8
case
  10
42.7934
  20
22.1088
  42
0
  0
VERTEX
  8
case
  10
42.866
  20
22.0
  42
0
  0
VERTEX
  8
case
  10
42.9239
  20
21.8827
  42
0
  0
VERTEX
  8
case
  10
42.9659
  20
21.7588
  42
0
  0
VERTEX
  8
case
  10
42.9914
  20
21.6305
  42
0
  0
VERTEX
  8
case
  10
43.0
  20
21.5
  42
0
  0
VERTEX
  8
case
  10
43.0
  20
21.5
  42
0
  0
VERTEX
  8
case
  10
42.9914
  20
21.3695
  42
0
  0
VERTEX
  8
case
  10
42.9659
  20
21.2412
  42
0
  0
VERTEX
  8
case
  10
42.9239
  20
21.1173
  42
0
  0
VERTEX
  8
case
  10
42.866
  20
21.0
  42
0
  0
VERTEX
  8
case
  10
42.7934
  20
20.8912
  42
0
  0
VERTEX
  8
case
  10
42.7071
  20
20.7929
  42
0
  0
VERTEX
  8
case
  10
42.6088
  20
20.7066
  42
0
  0
VERTEX
  8
case
  10
42.5
  20
20.634
  42
0
  0
VERTEX
  8
case
  10
42.3827
  20
20.5761
  42
0
  0
VERTEX
  8
case
  10
42.2588
  20
20.5341
  42
0
  0
VERTEX
  8
case
  10
42.1305
  20
20.5086
  42
0
  0
VERTEX
  8
case
  10
42.0
  20
20.5
  42
0
  0
VERTEX
  8
case
  10
41.8695
  20
20.5086
  42
0
  0
VERTEX
  8
case
  10
41.7412
  20
20.5341
  42
0
  0
VERTEX
  8
case
  10
41.6173
  20
20.5761
  42
0
  0
VERTEX
  8
case
  10
41.5
  20
20.634
  42
0
  0
VERTEX
  8
case
  10
41.3912
  20
20.7066
  42
0
  0
VERTEX
  8
case
  10
41.2929
  20
20.7929
  42
0
  0
VERTEX
  8
case
  10
41.2066
  20
20.8912
  42
0
  0
VERTEX
  8
case
  10
41.134
  20
21.0
  42
0
  0
VERTEX
  8
case
  10
41.0761
  20
21.1173
  42
0
  0
VERTEX
  8
case
  10
41.0341
  20
21.2412
  42
0
  0
VERTEX
  8
case
  10
41.0086
  20
21.3695
  42
0
  0
VERTEX
  8
case
  10
41.0
  20
21.5
  42
0
  0
VERTEX
  8
case
  10
41.0
  20
21.5
  42
0
  0
SEQEND
  0
POLYLINE
  8
case
  6
CONTINUOUS
  66
1
  70
0
  40
0.0
  41
0.0
  0
VERTEX
  8
case
  10
46.0
  20
21.5
  42
0
  0
VERTEX
  8
case
  10
46.0086
  20
21.6305
  42
0
  0
VERTEX
  8
case
  10
46.0341
  20
21.7588
  42
0
  0
VERTEX
  8
case
  10
46.0761
  20
21.8827
  42
0
  0
VERTEX
  8
case
  10
46.134
  20
22.0
  42
0
  0
VERTEX
  8
case
  10
46.2066
  20
22.1088
  42
0
  0
VERTEX
  8
case
  10
46.2929
  20
22.2071
  42
0
  0
VERTEX
  8
case
  10
46.3912
  20
22.2934
  42
0
  0
VERTEX
  8
case
  10
46.5
  20
22.366
  42
0
  0
VERTEX
  8
case
  10
46.6173
  20
22.4239
  42
0
  0
VERTEX
  8
case
  10
46.7412
  20
22.4659
  42
0
  0
VERTEX
  8
case
  10
46.8695
  20
22.4914
  42
0
  0
VERTEX
  8
case
  10
47.0
  20
22.5
  42
0
  0
VERTEX
  8
case
  10
47.1305
  20
22.4914
  42
0
  0
VERTEX
  8
case
  10
47.2588
  20
22.4659
  42
0
  0
VERTEX
  8
case
  10
47.3827
  20
22.4239
  42
0
  0
VERTEX
  8
case
  10
47.5
  20
22.366
  42
0
  0
VERTEX
  8
case
  10
47.6088
  20
22.2934
  42
0
  0
VERTEX
  8
case
  10
47.7071
  20
22.2071
  42
0
  0
VERTEX
  8
case
  10
47.7934
  20
22.1088
  42
0
  0
VERTEX
  8
case
  10
47.866
  20
22.0
  42
0
  0
VERTEX
  8
case
  10
47.9239
  20
21.8827
  42
0
  0
VERTEX
  8
case
  10
47.9659
  20
21.7588
  42
0
  0
VERTEX
  8
case
  10
47.9914
  20
21.6305
  42
0
  0
VERTEX
  8
case
  10
48.0
  20
21.5
  42
0
  0
VERTEX
  8
case
  10
48.0
  20
21.5
  42
0
  0
VERTEX
  8
case
  10
47.9914
  20
21.3695
  42
0
  0
VERTEX
  8
case
  10
47.9659
  20
21.2412
  42
0
  0
VERTEX
  8
case
  10
47.9239
  20
21.1173
  42
0
  0
VERTEX
  8
case
  10
47.866
  20
21.0
  42
0
  0
VERTEX
  8
case
  10
47.7934
  20
20.8912
  42
0
  0
VERTEX
  8
case
  10
47.7071
  20
20.7929
  42
0
  0
VERTEX
  8
case
  10
47.6088
  20
20.7066
  42
0
  0
VERTEX
  8
case
  10
47.5
  20
20.634
  42
0
  0
VERTEX
  8
case
  10
47.3827
  20
20.5761
  42
0
  0
VERTEX
  8
case
  10
47.2588
  20
20.5341
  42
0
  0
VERTEX
  8
case
  10
47.1305
  20
20.5086
  42
0
  0
VERTEX
  8
case
  10
47.0
  20
20.5
  42
0
  0
VERTEX
  8
case
  10
46.8695
  20
20.5086
  42
0
  0
VERTEX
  8
case
  10
46.7412
  20
20.5341
  42
0
  0
VERTEX
  8
case
  10
46.6173
  20
20.5761
  42
0
  0
VERTEX
  8
case
  10
46.5
  20
20.634
  42
0
  0
VERTEX
  8
case
  10
46.3912
  20
20.7066
  42
0
  0
VERTEX
  8
case
  10
46.2929
  20
20.7929
  42
0
  0
VERTEX
  8
case
  10
46.2066
  20
20.8912
  42
0
  0
VERTEX
  8
case
  10
46.134
  20
21.0
  42
0
  0
VERTEX
  8
case
  10
46.0761
  20
21.1173
  42
0
  0
VERTEX
  8
case
  10
46.0341
  20
21.2412
  42
0
  0
VERTEX
  8
case
  10
46.0086
  20
21.3695
  42
0
  0
VERTEX
  8
case
  10
46.0
  20
21.5
  42
0
  0
VERTEX
  8
case
  10
46.0
  20
21.5
  42
0
  0
SEQEND
  0
POLYLINE
  8
case
  6
CONTINUOUS
  66
1
  70
0
  40
0.0
  41
0.0
  0
VERTEX
  8
case
  10
36.0
  20
21.5
  42
0
  0
VERTEX
  8
case
  10
36.0086
  20
21.6305
  42
0
  0
VERTEX
  8
case
  10
36.0341
  20
21.7588
  42
0
  0
VERTEX
  8
case
  10
36.0761
  20
21.8827
  42
0
  0
VERTEX
  8
case
  10
36.134
  20
22.0
  42
0
  0
VERTEX
  8
case
  10
36.2066
  20
22.1088
  42
0
  0
VERTEX
  8
case
  10
36.2929
  20
22.2071
  42
0
  0
VERTEX
  8
case
  10
36.3912
  20
22.2934
  42
0
  0
VERTEX
  8
case
  10
36.5
  20
22.366
  42
0
  0
VERTEX
  8
case
  10
36.6173
  20
22.4239
  42
0
  0
VERTEX
  8
case
  10
36.7412
  20
22.4659
  42
0
  0
VERTEX
  8
case
  10
36.8695
  20
22.4914
  42
0
  0
VERTEX
  8
case
  10
37.0
  20
22.5
  42
0
  0
VERTEX
  8
case
  10
37.1305
  20
22.4914
  42
0
  0
VERTEX
  8
case
  10
37.2588
  20
22.4659
  42
0
  0
VERTEX
  8
case
  10
37.3827
  20
22.4239
  42
0
  0
VERTEX
  8
case
  10
37.5
  20
22.366
  42
0
  0
VERTEX
  8
case
  10
37.6088
  20
22.2934
  42
0
  0
VERTEX
  8
case
  10
37.7071
  20
22.2071
  42
0
  0
VERTEX
  8
case
  10
37.7934
  20
22.1088
  42
0
  0
VERTEX
  8
case
  10
37.866
  20
22.0
  42
0
  0
VERTEX
  8
case
  10
37.9239
  20
21.8827
  42
0
  0
VERTEX
  8
case
  10
37.9659
  20
21.7588
  42
0
  0
VERTEX
  8
case
  10
37.9914
  20
21.6305
  42
0
  0
VERTEX
  8
case
  10
38.0
  20
21.5
  42
0
  0
VERTEX
  8
case
  10
38.0
  20
21.5
  42
0
  0
VERTEX
  8
case
  10
37.9914
  20
21.3695
  42
0
  0
VERTEX
  8
case
  10
37.9659
  20
21.2412
  42
0
  0
VERTEX
  8
case
  10
37.9239
  20
21.1173
  42
0
  0
VERTEX
  8
case
  10
37.866
  20
21.0
  42
0
  0
VERTEX
  8
case
  10
37.7934
  20
20.8912
  42
0
  0
VERTEX
  8
case
  10
37.7071
  20
20.7929
  42
0
  0
VERTEX
  8
case
  10
37.6088
  20
20.7066
  42
0
  0
VERTEX
  8
case
  10
37.5
  20
20.634
  42
0
  0
VERTEX
  8
case
  10
37.3827
  20
20.5761
  42
0
  0
VERTEX
  8
case
  10
37.2588
  20
20.5341
  42
0
  0
VERTEX
  8
case
  10
37.1305
  20
20.5086
  42
0
  0
VERTEX
  8
case
  10
37.0
  20
20.5
  42
0
  0
VERTEX
  8
case
  10
36.8695
  20
20.5086
  42
0
  0
VERTEX
  8
case
  10
36.7412
  20
20.5341
  42
0
  0
VERTEX
  8
case
  10
36.6173
  20
20.5761
  42
0
  0
VERTEX
  8
case
  10
36.5
  20
20.634
  42
0
  0
VERTEX
  8
case
  10
36.3912
  20
20.7066
  42
0
  0
VERTEX
  8
case
  10
36.2929
  20
20.7929
  42
0
  0
VERTEX
  8
case
  10
36.2066
  20
20.8912
  42
0
  0
VERTEX
  8
case
  10
36.134
  20
21.0
  42
0
  0
VERTEX
  8
case
  10
36.0761
  20
21.1173
  42
0
  0
VERTEX
  8
case
  10
36.0341
  20
21.2412
  42
0
  0
VERTEX
  8
case
  10
36.0086
  20
21.3695
  42
0
  0
VERTEX
  8
case
  10
36.0
  20
21.5
  42
0
  0
VERTEX
  8
case
  10
36.0
  20
21.5
  42
0
  0
SEQEND
  0
POLYLINE
  8
case
  6
CONTINUOUS
  66
1
  70
0
  40
0.0
  41
0.0
  0
VERTEX
  8
case
  10
43.5
  20
24.0
  42
0
  0
VERTEX
  8
case
  10
43.5086
  20
24.1305
  42
0
  0
VERTEX
  8
case
  10
43.5341
  20
24.2588
  42
0
  0
VERTEX
  8
case
  10
43.5761
  20
24.3827
  42
0
  0
VERTEX
  8
case
  10
43.634
  20
24.5
  42
0
  0
VERTEX
  8
case
  10
43.7066
  20
24.6088
  42
0
  0
VERTEX
  8
case
  10
43.7929
  20
24.7071
  42
0
  0
VERTEX
  8
case
  10
43.8912
  20
24.7934
  42
0
  0
VERTEX
  8
case
  10
44.0
  20
24.866
  42
0
  0
VERTEX
  8
case
  10
44.1173
  20
24.9239
  42
0
  0
VERTEX
  8
case
  10
44.2412
  20
24.9659
  42
0
  0
VERTEX
  8
case
  10
44.3695
  20
24.9914
  42
0
  0
VERTEX
  8
case
  10
44.5
  20
25.0
  42
0
  0
VERTEX
  8
case
  10
44.6305
  20
24.9914
  42
0
  0
VERTEX
  8
case
  10
44.7588
  20
24.9659
  42
0
  0
VERTEX
  8
case
  10
44.8827
  20
24.9239
  42
0
  0
VERTEX
  8
case
  10
45.0
  20
24.866
  42
0
  0
VERTEX
  8
case
  10
45.1088
  20
24.7934
  42
0
  0
VERTEX
  8
case
  10
45.2071
  20
24.7071
  42
0
  0
VERTEX
  8
case
  10
45.2934
  20
24.6088
  42
0
  0
VERTEX
  8
case
  10
45.366
  20
24.5
  42
0
  0
VERTEX
  8
case
  10
45.4239
  20
24.3827
  42
0
  0
VERTEX
  8
case
  10
45.4659
  20
24.2588
  42
0
  0
VERTEX
  8
case
  10
45.4914
  20
24.1305
  42
0
  0
VERTEX
  8
case
  10
45.5
  20
24.0
  42
0
  0
VERTEX
  8
case
  10
45.5
  20
24.0
  42
0
  0
VERTEX
  8
case
  10
45.4914
  20
23.8695
  42
0
  0
VERTEX
  8
case
  10
45.4659
  20
23.7412
  42
0
  0
VERTEX
  8
case
  10
45.4239
  20
23.6173
  42
0
  0
VERTEX
  8
case
  10
45.366
  20
23.5
  42
0
  0
VERTEX
  8
case
  10
45.2934
  20
23.3912
  42
0
  0
VERTEX
  8
case
  10
45.2071
  20
23.2929
  42
0
  0
VERTEX
  8
case
  10
45.1088
  20
23.2066
  42
0
  0
VERTEX
  8
case
  10
45.0
  20
23.134
  42
0
  0
VERTEX
  8
case
  10
44.8827
  20
23.0761
  42
0
  0
VERTEX
  8
case
  10
44.7588
  20
23.0341
  42
0
  0
VERTEX
  8
case
  10
44.6305
  20
23.0086
  42
0
  0
VERTEX
  8
case
  10
44.5
  20
23.0
  42
0
  0
VERTEX
  8
case
  10
44.3695
  20
23.0086
  42
0
  0
VERTEX
  8
case
  10
44.2412
  20
23.0341
  42
0
  0
VERTEX
  8
case
  10
44.1173
  20
23.0761
  42
0
  0
VERTEX
  8
case
  10
44.0
  20
23.134
  42
0
  0
VERTEX
  8
case
  10
43.8912
  20
23.2066
  42
0
  0
VERTEX
  8
case
  10
43.7929
  20
23.2929
  42
0
  0
VERTEX
  8
case
  10
43.7066
  20
23.3912
  42
0
  0
VERTEX
  8
case
  10
43.634
  20
23.5
  42
0
  0
VERTEX
  8
case
  10
43.5761
  20
23.6173
  42
0
  0
VERTEX
  8
case
  10
43.5341
  20
23.7412
  42
0
  0
VERTEX
  8
case
  10
43.5086
  20
23.8695
  42
0
  0
VERTEX
  8
case
  10
43.5
  20
24.0
  42
0
  0
VERTEX
  8
case
  10
43.5
  20
24.0
  42
0
  0
SEQEND
  0
POLYLINE
  8
case
  6
CONTINUOUS
  66
1
  70
0
  40
0.0
  41
0.0
  0
VERTEX
  8
case
  10
48.5
  20
24.0
  42
0
  0
VERTEX
  8
case
  10
48.5086
  20
24.1305
  42
0
  0
VERTEX
  8
case
  10
48.5341
  20
24.2588
  42
0
  0
VERTEX
  8
case
  10
48.5761
  20
24.3827
  42
0
  0
VERTEX
  8
case
  10
48.634
  20
24.5
  42
0
  0
VERTEX
  8
case
  10
48.7066
  20
24.6088
  42
0
  0
VERTEX
  8
case
  10
48.7929
  20
24.7071
  42
0
  0
VERTEX
  8
case
  10
48.8912
  20
24.7934
  42
0
  0
VERTEX
  8
case
  10
49.0
  20
24.866
  42
0
  0
VERTEX
  8
case
  10
49.1173
  20
24.9239
  42
0
  0
VERTEX
  8
case
  10
49.2412
  20
24.9659
  42
0
  0
VERTEX
  8
case
  10
49.3695
  20
24.9914
  42
0
  0
VERTEX
  8
case
  10
49.5
  20
25.0
  42
0
  0
VERTEX
  8
case
  10
49.6305
  20
24.9914
  42
0
  0
VERTEX
  8
case
  10
49.7588
  20
24.9659
  42
0
  0
VERTEX
  8
case
  10
49.8827
  20
24.9239
  42
0
  0
VERTEX
  8
case
  10
50.0
  20
24.866
  42
0
  0
VERTEX
  8
case
  10
50.1088
  20
24.7934
  42
0
  0
VERTEX
  8
case
  10
50.2071
  20
24.7071
  42
0
  0
VERTEX
  8
case
  10
50.2934
  20
24.6088
  42
0
  0
VERTEX
  8
case
  10
50.366
  20
24.5
  42
0
  0
VERTEX
  8
case
  10
50.4239
  20
24.3827
  42
0
  0
VERTEX
  8
case
  10
50.4659
  20
24.2588
  42
0
  0
VERTEX
  8
case
  10
50.4914
  20
24.1305
  42
0
  0
VERTEX
  8
case
  10
50.5
  20
24.0
  42
0
  0
VERTEX
  8
case
  10
50.5
  20
24.0
  42
0
  0
VERTEX
  8
case
  10
50.4914
  20
23.8695
  42
0
  0
VERTEX
  8
case
  10
50.4659
  20
23.7412
  42
0
  0
VERTEX
  8
case
  10
50.4239
  20
23.6173
  42
0
  0
VERTEX
  8
case
  10
50.366
  20
23.5
  42
0
  0
VERTEX
  8
case
  10
50.2934
  20
23.3912
  42
0
  0
VERTEX
  8
case
  10
50.2071
  20
23.2929
  42
0
  0
VERTEX
  8
case
  10
50.1088
  20
23.2066
  42
0
  0
VERTEX
  8
case
  10
50.0
  20
23.134
  42
0
  0
VERTEX
  8
case
  10
49.8827
  20
23.0761
  42
0
  0
VERTEX
  8
case
  10
49.7588
  20
23.0341
  42
0
  0
VERTEX
  8
case
  10
49.6305
  20
23.0086
  42
0
  0
VERTEX
  8
case
  10
49.5
  20
23.0
  42
0
  0
VERTEX
  8
case
  10
49.3695
  20
23.0086
  42
0
  0
VERTEX
  8
case
  10
49.2412
  20
23.0341
  42
0
  0
VERTEX
  8
case
  10
49.1173
  20
23.0761
  42
0
  0
VERTEX
  8
case
  10
49.0
  20
23.134
  42
0
  0
VERTEX
  8
case
  10
48.8912
  20
23.2066
  42
0
  0
VERTEX
  8
case
  10
48.7929
  20
23.2929
  42
0
  0
VERTEX
  8
case
  10
48.7066
  20
23.3912
  42
0
  0
VERTEX
  8
case
  10
48.634
  20
23.5
  42
0
  0
VERTEX
  8
case
  10
48.5761
  20
23.6173
  42
0
  0
VERTEX
  8
case
  10
48.5341
  20
23.7412
  42
0
  0
VERTEX
  8
case
  10
48.5086
  20
23.8695
  42
0
  0
VERTEX
  8
case
  10
48.5
  20
24.0
  42
0
  0
VERTEX
  8
case
  10
48.5
  20
24.0
  42
0
  0
SEQEND
  0
POLYLINE
  8
case
  6
CONTINUOUS
  66
1
  70
0
  40
0.0
  41
0.0
  0
VERTEX
  8
case
  10
33.5
  20
24.0
  42
0
  0
VERTEX
  8
case
  10
33.5086
  20
24.1305
  42
0
  0
VERTEX
  8
case
  10
33.5341
  20
24.2588
  42
0
  0
VERTEX
  8
case
  10
33.5761
  20
24.3827
  42
0
  0
VERTEX
  8
case
  10
33.634
  20
24.5
  42
0
  0
VERTEX
  8
case
  10
33.7066
  20
24.6088
  42
0
  0
VERTEX
  8
case
  10
33.7929
  20
24.7071
  42
0
  0
VERTEX
  8
case
  10
33.8912
  20
24.7934
  42
0
  0
VERTEX
  8
case
  10
34.0
  20
24.866
  42
0
  0
VERTEX
  8
case
  10
34.1173
  20
24.9239
  42
0
  0
VERTEX
  8
case
  10
34.2412
  20
24.9659
  42
0
  0
VERTEX
  8
case
  10
34.3695
  20
24.9914
  42
0
  0
VERTEX
  8
case
  10
34.5
  20
25.0
  42
0
  0
VERTEX
  8
case
  10
34.6305
  20
24.9914
  42
0
  0
VERTEX
  8
case
  10
34.7588
  20
24.9659
  42
0
  0
VERTEX
  8
case
  10
34.8827
  20
24.9239
  42
0
  0
VERTEX
  8
case
  10
35.0
  20
24.866
  42
0
  0
VERTEX
  8
case
  10
35.1088
  20
24.7934
  42
0
  0
VERTEX
  8
case
  10
35.2071
  20
24.7071
  42
0
  0
VERTEX
  8
case
  10
35.2934
  20
24.6088
  42
0
  0
VERTEX
  8
case
  10
35.366
  20
24.5
  42
0
  0
VERTEX
  8
case
  10
35.4239
  20
24.3827
  42
0
  0
VERTEX
  8
case
  10
35.4659
  20
24.2588
  42
0
  0
VERTEX
  8
case
  10
35.4914
  20
24.1305
  42
0
  0
VERTEX
  8
case
  10
35.5
  20
24.0
  42
0
  0
VERTEX
  8
case
  10
35.5
  20
24.0
  42
0
  0
VERTEX
  8
case
  10
35.4914
  20
23.8695
  42
0
  0
VERTEX
  8
case
  10
35.4659
  20
23.7412
  42
0
  0
VERTEX
  8
case
  10
35.4239
  20
23.6173
  42
0
  0
VERTEX
  8
case
  10
35.366
  20
23.5
  42
0
  0
VERTEX
  8
case
  10
35.2934
  20
23.3912
  42
0
  0
VERTEX
  8
case
  10
35.2071
  20
23.2929
  42
0
  0
VERTEX
  8
case
  10
35.1088
  20
23.2066
  42
0
  0
VERTEX
  8
case
  10
35.0
  20
23.134
  42
0
  0
VERTEX
  8
case
  10
34.8827
  20
23.0761
  42
0
  0
VERTEX
  8
case
  10
34.7588
  20
23.0341
  42
0
  0
VERTEX
  8
case
  10
34.6305
  20
23.0086
  42
0
  0
VERTEX
  8
case
  10
34.5
  20
23.0
  42
0
  0
VERTEX
  8
case
  10
34.3695
  20
23.0086
  42
0
  0
VERTEX
  8
case
  10
34.2412
  20
23.0341
  42
0
  0
VERTEX
  8
case
  10
34.1173
  20
23.0761
  42
0
  0
VERTEX
  8
case
  10
34.0
  20
23.134
  42
0
  0
VERTEX
  8
case
  10
33.8912
  20
23.2066
  42
0
  0
VERTEX
  8
case
  10
33.7929
  20
23.2929
  42
0
  0
VERTEX
  8
case
  10
33.7066
  20
23.3912
  42
0
  0
VERTEX
  8
case
  10
33.634
  20
23.5
  42
0
  0
VERTEX
  8
case
  10
33.5761
  20
23.6173
  42
0
  0
VERTEX
  8
case
  10
33.5341
  20
23.7412
  42
0
  0
VERTEX
  8
case
  10
33.5086
  20
23.8695
  42
0
  0
VERTEX
  8
case
  10
33.5
  20
24.0
  42
0
  0
VERTEX
  8
case
  10
33.5
  20
24.0
  42
0
  0
SEQEND
  0
POLYLINE
  8
case
  6
CONTINUOUS
  66
1
  70
0
  40
0.0
  41
0.0
  0
VERTEX
  8
case
  10
38.5
  20
24.0
  42
0
  0
VERTEX
  8
case
  10
38.5086
  20
24.1305
  42
0
  0
VERTEX
  8
case
  10
38.5341
  20
24.2588
  42
0
  0
VERTEX
  8
case
  10
38.5761
  20
24.3827
  42
0
  0
VERTEX
  8
case
  10
38.634
  20
24.5
  42
0
  0
VERTEX
  8
case
  10
38.7066
  20
24.6088
  42
0
  0
VERTEX
  8
case
  10
38.7929
  20
24.7071
  42
0
  0
VERTEX
  8
case
  10
38.8912
  20
24.7934
  42
0
  0
VERTEX
  8
case
  10
39.0
  20
24.866
  42
0
  0
VERTEX
  8
case
  10
39.1173
  20
24.9239
  42
0
  0
VERTEX
  8
case
  10
39.2412
  20
24.9659
  42
0
  0
VERTEX
  8
case
  10
39.3695
  20
24.9914
  42
0
  0
VERTEX
  8
case
  10
39.5
  20
25.0
  42
0
  0
VERTEX
  8
case
  10
39.6305
  20
24.9914
  42
0
  0
VERTEX
  8
case
  10
39.7588
  20
24.9659
  42
0
  0
VERTEX
  8
case
  10
39.8827
  20
24.9239
  42
0
  0
VERTEX
  8
case
  10
40.0
  20
24.866
  42
0
  0
VERTEX
  8
case
  10
40.1088
  20
24.7934
  42
0
  0
VERTEX
  8
case
  10
40.2071
  20
24.7071
  42
0
  0
VERTEX
  8
case
  10
40.2934
  20
24.6088
  42
0
  0
VERTEX
  8
case
  10
40.366
  20
24.5
  42
0
  0
VERTEX
  8
case
  10
40.4239
  20
24.3827
  42
0
  0
VERTEX
  8
case
  10
40.4659
  20
24.2588
  42
0
  0
VERTEX
  8
case
  10
40.4914
  20
24.1305
  42
0
  0
VERTEX
  8
case
  10
40.5
  20
24.0
  42
0
  0
VERTEX
  8
case
  10
40.5
  20
24.0
  42
0
  0
VERTEX
  8
case
  10
40.4914
  20
23.8695
  42
0
  0
VERTEX
  8
case
  10
40.4659
  20
23.7412
  42
0
  0
VERTEX
  8
case
  10
40.4239
  20
23.6173
  42
0
  0
VERTEX
  8
case
  10
40.366
  20
23.5
  42
0
  0
VERTEX
  8
case
  10
40.2934
  20
23.3912
  42
0
  0
VERTEX
  8
case
  10
40.2071
  20
23.2929
  42
0
  0
VERTEX
  8
case
  10
40.1088
  20
23.2066
  42
0
  0
VERTEX
  8
case
  10
40.0
  20
23.134
  42
0
  0
VERTEX
  8
case
  10
39.8827
  20
23.0761
  42
0
  0
VERTEX
  8
case
  10
39.7588
  20
23.0341
  42
0
  0
VERTEX
  8
case
  10
39.6305
  20
23.0086
  42
0
  0
VERTEX
  8
case
  10
39.5
  20
23.0
  42
0
  0
VERTEX
  8
case
  10
39.3695
  20
23.0086
  42
0
  0
VERTEX
  8
case
  10
39.2412
  20
23.0341
  42
0
  0
VERTEX
  8
case
  10
39.1173
  20
23.0761
  42
0
  0
VERTEX
  8
case
  10
39.0
  20
23.134
  42
0
  0
VERTEX
  8
case
  10
38.8912
  20
23.2066
  42
0
  0
VERTEX
  8
case
  10
38.7929
  20
23.2929
  42
0
  0
VERTEX
  8
case
  10
38.7066
  20
23.3912
  42
0
  0
VERTEX
  8
case
  10
38.634
  20
23.5
  42
0
  0
VERTEX
  8
case
  10
38.5761
  20
23.6173
  42
0
  0
VERTEX
  8
case
  10
38.5341
  20
23.7412
  42
0
  0
VERTEX
  8
case
  10
38.5086
  20
23.8695
  42
0
  0
VERTEX
  8
case
  10
38.5
  20
24.0
  42
0
  0
VERTEX
  8
case
  10
38.5
  20
24.0
  42
0
  0
SEQEND
  0
POLYLINE
  8
case
  6
CONTINUOUS
  66
1
  70
0
  40
0.0
  41
0.0
  0
VERTEX
  8
case
  10
41.0
  20
26.5
  42
0
  0
VERTEX
  8
case
  10
41.0086
  20
26.6305
  42
0
  0
VERTEX
  8
case
  10
41.0341
  20
26.7588
  42
0
  0
VERTEX
  8
case
  10
41.0761
  20
26.8827
  42
0
  0
VERTEX
  8
case
  10
41.134
  20
27.0
  42
0
  0
VERTEX
  8
case
  10
41.2066
  20
27.1088
  42
0
  0
VERTEX
  8
case
  10
41.2929
  20
27.2071
  42
0
  0
VERTEX
  8
case
  10
41.3912
  20
27.2934
  42
0
  0
VERTEX
  8
case
  10
41.5
  20
27.366
  42
0
  0
VERTEX
  8
case
  10
41.6173
  20
27.4239
  42
0
  0
VERTEX
  8
case
  10
41.7412
  20
27.4659
  42
0
  0
VERTEX
  8
case
  10
41.8695
  20
27.4914
  42
0
  0
VERTEX
  8
case
  10
42.0
  20
27.5
  42
0
  0
VERTEX
  8
case
  10
42.1305
  20
27.4914
  42
0
  0
VERTEX
  8
case
  10
42.2588
  20
27.4659
  42
0
  0
VERTEX
  8
case
  10
42.3827
  20
27.4239
  42
0
  0
VERTEX
  8
case
  10
42.5
  20
27.366
  42
0
  0
VERTEX
  8
case
  10
42.6088
  20
27.2934
  42
0
  0
VERTEX
  8
case
  10
42.7071
  20
27.2071
  42
0
  0
VERTEX
  8
case
  10
42.7934
  20
27.1088
  42
0
  0
VERTEX
  8
case
  10
42.866
  20
27.0
  42
0
  0
VERTEX
  8
case
  10
42.9239
  20
26.8827
  42
0
  0
VERTEX
  8
case
  10
42.9659
  20
26.7588
  42
0
  0
VERTEX
  8
case
  10
42.9914
  20
26.6305
  42
0
  0
VERTEX
  8
case
  10
43.0
  20
26.5
  42
0
  0
VERTEX
  8
case
  10
43.0
  20
26.5
  42
0
  0
VERTEX
  8
case
  10
42.9914
  20
26.3695
  42
0
  0
VERTEX
  8
case
  10
42.9659
  20
26.2412
  42
0
  0
VERTEX
  8
case
  10
42.9239
  20
26.1173
  42
0
  0
VERTEX
  8
case
  10
42.866
  20
26.0
  42
0
  0
VERTEX
  8
case
  10
42.7934
  20
25.8912
  42
0
  0
VERTEX
  8
case
  10
42.7071
  20
25.7929
  42
0
  0
VERTEX
  8
case
  10
42.6088
  20
25.7066
  42
0
  0
VERTEX
  8
case
  10
42.5
  20
25.634
  42
0
  0
VERTEX
  8
case
  10
42.3827
  20
25.5761
  42
0
  0
VERTEX
  8
case
  10
42.2588
  20
25.5341
  42
0
  0
VERTEX
  8
case
  10
42.1305
  20
25.5086
  42
0
  0
VERTEX
  8
case
  10
42.0
  20
25.5
  42
0
  0
VERTEX
  8
case
  10
41.8695
  20
25.5086
  42
0
  0
VERTEX
  8
case
  10
41.7412
  20
25.5341
  42
0
  0
VERTEX
  8
case
  10
41.6173
  20
25.5761
  42
0
  0
VERTEX
  8
case
  10
41.5
  20
25.634
  42
0
  0
VERTEX
  8
case
  10
41.3912
  20
25.7066
  42
0
  0
VERTEX
  8
case
  10
41.2929
  20
25.7929
  42
0
  0
VERTEX
  8
case
  10
41.2066
  20
25.8912
  42
0
  0
VERTEX
  8
case
  10
41.134
  20
26.0
  42
0
  0
VERTEX
  8
case
  10
41.0761
  20
26.1173
  42
0
  0
VERTEX
  8
case
  10
41.0341
  20
26.2412
  42
0
  0
VERTEX
  8
case
  10
41.0086
  20
26.3695
  42
0
  0
VERTEX
  8
case
  10
41.0
  20
26.5
  42
0
  0
VERTEX
  8
case
  10
41.0
  20
26.5
  42
0
  0
SEQEND
  0
POLYLINE
  8
case
  6
CONTINUOUS
  66
1
  70
0
  40
0.0
  41
0.0
  0
VERTEX
  8
case
  10
46.0
  20
26.5
  42
0
  0
VERTEX
  8
case
  10
46.0086
  20
26.6305
  42
0
  0
VERTEX
  8
case
  10
46.0341
  20
26.7588
  42
0
  0
VERTEX
  8
case
  10
46.0761
  20
26.8827
  42
0
  0
VERTEX
  8
case
  10
46.134
  20
27.0
  42
0
  0
VERTEX
  8
case
  10
46.2066
  20
27.1088
  42
0
  0
VERTEX
  8
case
  10
46.2929
  20
27.2071
  42
0
  0
VERTEX
  8
case
  10
46.3912
  20
27.2934
  42
0
  0
VERTEX
  8
case
  10
46.5
  20
27.366
  42
0
  0
VERTEX
  8
case
  10
46.6173
  20
27.4239
  42
0
  0
VERTEX
  8
case
  10
46.7412
  20
27.4659
  42
0
  0
VERTEX
  8
case
  10
46.8695
  20
27.4914
  42
0
  0
VERTEX
  8
case
  10
47.0
  20
27.5
  42
0
  0
VERTEX
  8
case
  10
47.1305
  20
27.4914
  42
0
  0
VERTEX
  8
case
  10
47.2588
  20
27.4659
  42
0
  0
VERTEX
  8
case
  10
47.3827
  20
27.4239
  42
0
  0
VERTEX
  8
case
  10
47.5
  20
27.366
  42
0
  0
VERTEX
  8
case
  10
47.6088
  20
27.2934
  42
0
  0
VERTEX
  8
case
  10
47.7071
  20
27.2071
  42
0
  0
VERTEX
  8
case
  10
47.7934
  20
27.1088
  42
0
  0
VERTEX
  8
case
  10
47.866
  20
27.0
  42
0
  0
VERTEX
  8
case
  10
47.9239
  20
26.8827
  42
0
  0
VERTEX
  8
case
  10
47.9659
  20
26.7588
  42
0
  0
VERTEX
  8
case
  10
47.9914
  20
26.6305
  42
0
  0
VERTEX
  8
case
  10
48.0
  20
26.5
  42
0
  0
VERTEX
  8
case
  10
48.0
  20
26.5
  42
0
  0
VERTEX
  8
case
  10
47.9914
  20
26.3695
  42
0
  0
VERTEX
  8
case
  10
47.9659
  20
26.2412
  42
0
  0
VERTEX
  8
case
  10
47.9239
  20
26.1173
  42
0
  0
VERTEX
  8
case
  10
47.866
  20
26.0
  42
0
  0
VERTEX
  8
case
  10
47.7934
  20
25.8912
  42
0
  0
VERTEX
  8
case
  10
47.7071
  20
25.7929
  42
0
  0
VERTEX
  8
case
  10
47.6088
  20
25.7066
  42
0
  0
VERTEX
  8
case
  10
47.5
  20
25.634
  42
0
  0
VERTEX
  8
case
  10
47.3827
  20
25.5761
  42
0
  0
VERTEX
  8
case
  10
47.2588
  20
25.5341
  42
0
  0
VERTEX
  8
case
  10
47.1305
  20
25.5086
  42
0
  0
VERTEX
  8
case
  10
47.0
  20
25.5
  42
0
  0
VERTEX
  8
case
  10
46.8695
  20
25.5086
  42
0
  0
VERTEX
  8
case
  10
46.7412
  20
25.5341
  42
0
  0
VERTEX
  8
case
  10
46.6173
  20
25.5761
  42
0
  0
VERTEX
  8
case
  10
46.5
  20
25.634
  42
0
  0
VERTEX
  8
case
  10
46.3912
  20
25.7066
  42
0
  0
VERTEX
  8
case
  10
46.2929
  20
25.7929
  42
0
  0
VERTEX
  8
case
  10
46.2066
  20
25.8912
  42
0
  0
VERTEX
  8
case
  10
46.134
  20
26.0
  42
0
  0
VERTEX
  8
case
  10
46.0761
  20
26.1173
  42
0
  0
VERTEX
  8
case
  10
46.0341
  20
26.2412
  42
0
  0
VERTEX
  8
case
  10
46.0086
  20
26.3695
  42
0
  0
VERTEX
  8
case
  10
46.0
  20
26.5
  42
0
  0
VERTEX
  8
case
  10
46.0
  20
26.5
  42
0
  0
SEQEND
  0
POLYLINE
  8
case
  6
CONTINUOUS
  66
1
  70
0
  40
0.0
  41
0.0
  0
VERTEX
  8
case
  10
36.0
  20
26.5
  42
0
  0
VERTEX
  8
case
  10
36.0086
  20
26.6305
  42
0
  0
VERTEX
  8
case
  10
36.0341
  20
26.7588
  42
0
  0
VERTEX
  8
case
  10
36.0761
  20
26.8827
  42
0
  0
VERTEX
  8
case
  10
36.134
  20
27.0
  42
0
  0
VERTEX
  8
case
  10
36.2066
  20
27.1088
  42
0
  0
VERTEX
  8
case
  10
36.2929
  20
27.2071
  42
0
  0
VERTEX
  8
case
  10
36.3912
  20
27.2934
  42
0
  0
VERTEX
  8
case
  10
36.5
  20
27.366
  42
0
  0
VERTEX
  8
case
  10
36.6173
  20
27.4239
  42
0
  0
VERTEX
  8
case
  10
36.7412
  20
27.4659
  42
0
  0
VERTEX
  8
case
  10
36.8695
  20
27.4914
  42
0
  0
VERTEX
  8
case
  10
37.0
  20
27.5
  42
0
  0
VERTEX
  8
case
  10
37.1305
  20
27.4914
  42
0
  0
VERTEX
  8
case
  10
37.2588
  20
27.4659
  42
0
  0
VERTEX
  8
case
  10
37.3827
  20
27.4239
  42
0
  0
VERTEX
  8
case
  10
37.5
  20
27.366
  42
0
  0
VERTEX
  8
case
  10
37.6088
  20
27.2934
  42
0
  0
VERTEX
  8
case
  10
37.7071
  20
27.2071
  42
0
  0
VERTEX
  8
case
  10
37.7934
  20
27.1088
  42
0
  0
VERTEX
  8
case
  10
37.866
  20
27.0
  42
0
  0
VERTEX
  8
case
  10
37.9239
  20
26.8827
  42
0
  0
VERTEX
  8
case
  10
37.9659
  20
26.7588
  42
0
  0
VERTEX
  8
case
  10
37.9914
  20
26.6305
  42
0
  0
VERTEX
  8
case
  10
38.0
  20
26.5
  42
0
  0
VERTEX
  8
case
  10
38.0
  20
26.5
  42
0
  0
VERTEX
  8
case
  10
37.9914
  20
26.3695
  42
0
  0
VERTEX
  8
case
  10
37.9659
  20
26.2412
  42
0
  0
VERTEX
  8
case
  10
37.9239
  20
26.1173
  42
0
  0
VERTEX
  8
case
  10
37.866
  20
26.0
  42
0
  0
VERTEX
  8
case
  10
37.7934
  20
25.8912
  42
0
  0
VERTEX
  8
case
  10
37.7071
  20
25.7929
  42
0
  0
VERTEX
  8
case
  10
37.6088
  20
25.7066
  42
0
  0
VERTEX
  8
case
  10
37.5
  20
25.634
  42
0
  0
VERTEX
  8
case
  10
37.3827
  20
25.5761
  42
0
  0
VERTEX
  8
case
  10
37.2588
  20
25.5341
  42
0
  0
VERTEX
  8
case
  10
37.1305
  20
25.5086
  42
0
  0
VERTEX
  8
case
  10
37.0
  20
25.5
  42
0
  0
VERTEX
  8
case
  10
36.8695
  20
25.5086
  42
0
  0
VERTEX
  8
case
  10
36.7412
  20
25.5341
  42
0
  0
VERTEX
  8
case
  10
36.6173
  20
25.5761
  42
0
  0
VERTEX
  8
case
  10
36.5
  20
25.634
  42
0
  0
VERTEX
  8
case
  10
36.3912
  20
25.7066
  42
0
  0
VERTEX
  8
case
  10
36.2929
  20
25.7929
  42
0
  0
VERTEX
  8
case
  10
36.2066
  20
25.8912
  42
0
  0
VERTEX
  8
case
  10
36.134
  20
26.0
  42
0
  0
VERTEX
  8
case
  10
36.0761
  20
26.1173
  42
0
  0
VERTEX
  8
case
  10
36.0341
  20
26.2412
  42
0
  0
VERTEX
  8
case
  10
36.0086
  20
26.3695
  42
0
  0
VERTEX
  8
case
  10
36.0
  20
26.5
  42
0
  0
VERTEX
  8
case
  10
36.0
  20
26.5
  42
0
  0
SEQEND
  0
POLYLINE
  8
case
  6
CONTINUOUS
  66
1
  70
0
  40
0.0
  41
0.0
  0
VERTEX
  8
case
  10
43.5
  20
29.0
  42
0
  0
VERTEX
  8
case
  10
43.5086
  20
29.1305
  42
0
  0
VERTEX
  8
case
  10
43.5341
  20
29.2588
  42
0
  0
VERTEX
  8
case
  10
43.5761
  20
29.3827
  42
0
  0
VERTEX
  8
case
  10
43.634
  20
29.5
  42
0
  0
VERTEX
  8
case
  10
43.7066
  20
29.6088
  42
0
  0
VERTEX
  8
case
  10
43.7929
  20
29.7071
  42
0
  0
VERTEX
  8
case
  10
43.8912
  20
29.7934
  42
0
  0
VERTEX
  8
case
  10
44.0
  20
29.866
  42
0
  0
VERTEX
  8
case
  10
44.1173
  20
29.9239
  42
0
  0
VERTEX
  8
case
  10
44.2412
  20
29.9659
  42
0
  0
VERTEX
  8
case
  10
44.3695
  20
29.9914
  42
0
  0
VERTEX
  8
case
  10
44.5
  20
30.0
  42
0
  0
VERTEX
  8
case
  10
44.6305
  20
29.9914
  42
0
  0
VERTEX
  8
case
  10
44.7588
  20
29.9659
  42
0
  0
VERTEX
  8
case
  10
44.8827
  20
29.9239
  42
0
  0
VERTEX
  8
case
  10
45.0
  20
29.866
  42
0
  0
VERTEX
  8
case
  10
45.1088
  20
29.7934
  42
0
  0
VERTEX
  8
case
  10
45.2071
  20
29.7071
  42
0
  0
VERTEX
  8
case
  10
45.2934
  20
29.6088
  42
0
  0
VERTEX
  8
case
  10
45.366
  20
29.5
  42
0
  0
VERTEX
  8
case
  10
45.4239
  20
29.3827
  42
0
  0
VERTEX
  8
case
  10
45.4659
  20
29.2588
  42
0
  0
VERTEX
  8
case
  10
45.4914
  20
29.1305
  42
0
  0
VERTEX
  8
case
  10
45.5
  20
29.0
  42
0
  0
VERTEX
  8
case
  10
45.5
  20
29.0
  42
0
  0
VERTEX
  8
case
  10
45.4914
  20
28.8695
  42
0
  0
VERTEX
  8
case
  10
45.4659
  20
28.7412
  42
0
  0
VERTEX
  8
case
  10
45.4239
  20
28.6173
  42
0
  0
VERTEX
  8
case
  10
45.366
  20
28.5
  42
0
  0
VERTEX
  8
case
  10
45.2934
  20
28.3912
  42
0
  0
VERTEX
  8
case
  10
45.2071
  20
28.2929
  42
0
  0
VERTEX
  8
case
  10
45.1088
  20
28.2066
  42
0
  0
VERTEX
  8
case
  10
45.0
  20
28.134
  42
0
  0
VERTEX
  8
case
  10
44.8827
  20
28.0761
  42
0
  0
VERTEX
  8
case
  10
44.7588
  20
28.0341
  42
0
  0
VERTEX
  8
case
  10
44.6305
  20
28.0086
  42
0
  0
VERTEX
  8
case
  10
44.5
  20
28.0
  42
0
  0
VERTEX
  8
case
  10
44.3695
  20
28.0086
  42
0
  0
VERTEX
  8
case
  10
44.2412
  20
28.0341
  42
0
  0
VERTEX
  8
case
  10
44.1173
  20
28.0761
  42
0
  0
VERTEX
  8
case
  10
44.0
  20
28.134
  42
0
  0
VERTEX
  8
case
  10
43.8912
  20
28.2066
  42
0
  0
VERTEX
  8
case
  10
43.7929
  20
28.2929
  42
0
  0
VERTEX
  8
case
  10
43.7066
  20
28.3912
  42
0
  0
VERTEX
  8
case
  10
43.634
  20
28.5
  42
0
  0
VERTEX
  8
case
  10
43.5761
  20
28.6173
  42
0
  0
VERTEX
  8
case
  10
43.5341
  20
28.7412
  42
0
  0
VERTEX
  8
case
  10
43.5086
  20
28.8695
  42
0
  0
VERTEX
  8
case
  10
43.5
  20
29.0
  42
0
  0
VERTEX
  8
case
  10
43.5
  20
29.0
  42
0
  0
SEQEND
  0
POLYLINE
  8
case
  6
CONTINUOUS
  66
1
  70
0
  40
0.0
  41
0.0
  0
VERTEX
  8
case
  10
48.5
  20
29.0
  42
0
  0
VERTEX
  8
case
  10
48.5086
  20
29.1305
  42
0
  0
VERTEX
  8
case
  10
48.5341
  20
29.2588
  42
0
  0
VERTEX
  8
case
  10
48.5761
  20
29.3827
  42
0
  0
VERTEX
  8
case
  10
48.634
  20
29.5
  42
0
  0
VERTEX
  8
case
  10
48.7066
  20
29.6088
  42
0
  0
VERTEX
  8
case
  10
48.7929
  20
29.7071
  42
0
  0
VERTEX
  8
case
  10
48.8912
  20
29.7934
  42
0
  0
VERTEX
  8
case
  10
49.0
  20
29.866
  42
0
  0
VERTEX
  8
case
  10
49.1173
  20
29.9239
  42
0
  0
VERTEX
  8
case
  10
49.2412
  20
29.9659
  42
0
  0
VERTEX
  8
case
  10
49.3695
  20
29.9914
  42
0
  0
VERTEX
  8
case
  10
49.5
  20
30.0
  42
0
  0
VERTEX
  8
case
  10
49.6305
  20
29.9914
  42
0
  0
VERTEX
  8
case
  10
49.7588
  20
29.9659
  42
0
  0
VERTEX
  8
case
  10
49.8827
  20
29.9239
  42
0
  0
VERTEX
  8
case
  10
50.0
  20
29.866
  42
0
  0
VERTEX
  8
case
  10
50.1088
  20
29.7934
  42
0
  0
VERTEX
  8
case
  10
50.2071
  20
29.7071
  42
0
  0
VERTEX
  8
case
  10
50.2934
  20
29.6088
  42
0
  0
VERTEX
  8
case
  10
50.366
  20
29.5
  42
0
  0
VERTEX
  8
case
  10
50.4239
  20
29.3827
  42
0
  0
VERTEX
  8
case
  10
50.4659
  20
29.2588
  42
0
  0
VERTEX
  8
case
  10
50.4914
  20
29.1305
  42
0
  0
VERTEX
  8
case
  10
50.5
  20
29.0
  42
0
  0
VERTEX
  8
case
  10
50.5
  20
29.0
  42
0
  0
VERTEX
  8
case
  10
50.4914
  20
28.8695
  42
0
  0
VERTEX
  8
case
  10
50.4659
  20
28.7412
  42
0
  0
VERTEX
  8
case
  10
50.4239
  20
28.6173
  42
0
  0
VERTEX
  8
case
  10
50.366
  20
28.5
  42
0
  0
VERTEX
  8
case
  10
50.2934
  20
28.3912
  42
0
  0
VERTEX
  8
case
  10
50.2071
  20
28.2929
  42
0
  0
VERTEX
  8
case
  10
50.1088
  20
28.2066
  42
0
  0
VERTEX
  8
case
  10
50.0
  20
28.134
  42
0
  0
VERTEX
  8
case
  10
49.8827
  20
28.0761
  42
0
  0
VERTEX
  8
case
  10
49.7588
  20
28.0341
  42
0
  0
VERTEX
  8
case
  10
49.6305
  20
28.0086
  42
0
  0
VERTEX
  8
case
  10
49.5
  20
28.0
  42
0
  0
VERTEX
  8
case
  10
49.3695
  20
28.0086
  42
0
  0
VERTEX
  8
case
  10
49.2412
  20
28.0341
  42
0
  0
VERTEX
  8
case
  10
49.1173
  20
28.0761
  42
0
  0
VERTEX
  8
case
  10
49.0
  20
28.134
  42
0
  0
VERTEX
  8
case
  10
48.8912
  20
28.2066
  42
0
  0
VERTEX
  8
case
  10
48.7929
  20
28.2929
  42
0
  0
VERTEX
  8
case
  10
48.7066
  20
28.3912
  42
0
  0
VERTEX
  8
case
  10
48.634
  20
28.5
  42
0
  0
VERTEX
  8
case
  10
48.5761
  20
28.6173
  42
0
  0
VERTEX
  8
case
  10
48.5341
  20
28.7412
  42
0
  0
VERTEX
  8
case
  10
48.5086
  20
28.8695
  42
0
  0
VERTEX
  8
case
  10
48.5
  20
29.0
  42
0
  0
VERTEX
  8
case
  10
48.5
  20
29.0
  42
0
  0
SEQEND
  0
POLYLINE
  8
case
  6
CONTINUOUS
  66
1
  70
0
  40
0.0
  41
0.0
  0
VERTEX
  8
case
  10
33.5
  20
29.0
  42
0
  0
VERTEX
  8
case
  10
33.5086
  20
29.1305
  42
0
  0
VERTEX
  8
case
  10
33.5341
  20
29.2588
  42
0
  0
VERTEX
  8
case
  10
33.5761
  20
29.3827
  42
0
  0
VERTEX
  8
case
  10
33.634
  20
29.5
  42
0
  0
VERTEX
  8
case
  10
33.7066
  20
29.6088
  42
0
  0
VERTEX
  8
case
  10
33.7929
  20
29.7071
  42
0
  0
VERTEX
  8
case
  10
33.8912
  20
29.7934
  42
0
  0
VERTEX
  8
case
  10
34.0
  20
29.866
  42
0
  0
VERTEX
  8
case
  10
34.1173
  20
29.9239
  42
0
  0
VERTEX
  8
case
  10
34.2412
  20
29.9659
  42
0
  0
VERTEX
  8
case
  10
34.3695
  20
29.9914
  42
0
  0
VERTEX
  8
case
  10
34.5
  20
30.0
  42
0
  0
VERTEX
  8
case
  10
34.6305
  20
29.9914
  42
0
  0
VERTEX
  8
case
  10
34.7588
  20
29.9659
  42
0
  0
VERTEX
  8
case
  10
34.8827
  20
29.9239
  42
0
  0
VERTEX
  8
case
  10
35.0
  20
29.866
  42
0
  0
VERTEX
  8
case
  10
35.1088
  20
29.7934
  42
0
  0
VERTEX
  8
case
  10
35.2071
  20
29.7071
  42
0
  0
VERTEX
  8
case
  10
35.2934
  20
29.6088
  42
0
  0
VERTEX
  8
case
  10
35.366
  20
29.5
  42
0
  0
VERTEX
  8
case
  10
35.4239
  20
29.3827
  42
0
  0
VERTEX
  8
case
  10
35.4659
  20
29.2588
  42
0
  0
VERTEX
  8
case
  10
35.4914
  20
29.1305
  42
0
  0
VERTEX
  8
case
  10
35.5
  20
29.0
  42
0
  0
VERTEX
  8
case
  10
35.5
  20
29.0
  42
0
  0
VERTEX
  8
case
  10
35.4914
  20
28.8695
  42
0
  0
VERTEX
  8
case
  10
35.4659
  20
28.7412
  42
0
  0
VERTEX
  8
case
  10
35.4239
  20
28.6173
  42
0
  0
VERTEX
  8
case
  10
35.366
  20
28.5
  42
0
  0
VERTEX
  8
case
  10
35.2934
  20
28.3912
  42
0
  0
VERTEX
  8
case
  10
35.2071
  20
28.2929
  42
0
  0
VERTEX
  8
case
  10
35.1088
  20
28.2066
  42
0
  0
VERTEX
  8
case
  10
35.0
  20
28.134
  42
0
  0
VERTEX
  8
case
  10
34.8827
  20
28.0761
  42
0
  0
VERTEX
  8
case
  10
34.7588
  20
28.0341
  42
0
  0
VERTEX
  8
case
  10
34.6305
  20
28.0086
  42
0
  0
VERTEX
  8
case
  10
34.5
  20
28.0
  42
0
  0
VERTEX
  8
case
  10
34.3695
  20
28.0086
  42
0
  0
VERTEX
  8
case
  10
34.2412
  20
28.0341
  42
0
  0
VERTEX
  8
case
  10
34.1173
  20
28.0761
  42
0
  0
VERTEX
  8
case
  10
34.0
  20
28.134
  42
0
  0
VERTEX
  8
case
  10
33.8912
  20
28.2066
  42
0
  0
VERTEX
  8
case
  10
33.7929
  20
28.2929
  42
0
  0
VERTEX
  8
case
  10
33.7066
  20
28.3912
  42
0
  0
VERTEX
  8
case
  10
33.634
  20
28.5
  42
0
  0
VERTEX
  8
case
  10
33.5761
  20
28.6173
  42
0
  0
VERTEX
  8
case
  10
33.5341
  20
28.7412
  42
0
  0
VERTEX
  8
case
  10
33.5086
  20
28.8695
  42
0
  0
VERTEX
  8
case
  10
33.5
  20
29.0
  42
0
  0
VERTEX
  8
case
  10
33.5
  20
29.0
  42
0
  0
SEQEND
  0
POLYLINE
  8
case
  6
CONTINUOUS
  66
1
  70
0
  40
0.0
  41
0.0
  0
VERTEX
  8
case
  10
38.5
  20
29.0
  42
0
  0
VERTEX
  8
case
  10
38.5086
  20
29.1305
  42
0
  0
VERTEX
  8
case
  10
38.5341
  20
29.2588
  42
0
  0
VERTEX
  8
case
  10
38.5761
  20
29.3827
  42
0
  0
VERTEX
  8
case
  10
38.634
  20
29.5
  42
0
  0
VERTEX
  8
case
  10
38.7066
  20
29.6088
  42
0
  0
VERTEX
  8
case
  10
38.7929
  20
29.7071
  42
0
  0
VERTEX
  8
case
  10
38.8912
  20
29.7934
  42
0
  0
VERTEX
  8
case
  10
39.0
  20
29.866
  42
0
  0
VERTEX
  8
case
  10
39.1173
  20
29.9239
  42
0
  0
VERTEX
  8
case
  10
39.2412
  20
29.9659
  42
0
  0
VERTEX
  8
case
  10
39.3695
  20
29.9914
  42
0
  0
VERTEX
  8
case
  10
39.5
  20
30.0
  42
0
  0
VERTEX
  8
case
  10
39.6305
  20
29.9914
  42
0
  0
VERTEX
  8
case
  10
39.7588
  20
29.9659
  42
0
  0
VERTEX
  8
case
  10
39.8827
  20
29.9239
  42
0
  0
VERTEX
  8
case
  10
40.0
  20
29.866
  42
0
  0
VERTEX
  8
case
  10
40.1088
  20
29.7934
  42
0
  0
VERTEX
  8
case
  10
40.2071
  20
29.7071
  42
0
  0
VERTEX
  8
case
  10
40.2934
  20
29.6088
  42
0
  0
VERTEX
  8
case
  10
40.366
  20
29.5
  42
0
  0
VERTEX
  8
case
  10
40.4239
  20
29.3827
  42
0
  0
VERTEX
  8
case
  10
40.4659
  20
29.2588
  42
0
  0
VERTEX
  8
case
  10
40.4914
  20
29.1305
  42
0
  0
VERTEX
  8
case
  10
40.5
  20
29.0
  42
0
  0
VERTEX
  8
case
  10
40.5
  20
29.0
  42
0
  0
VERTEX
  8
case
  10
40.4914
  20
28.8695
  42
0
  0
VERTEX
  8
case
  10
40.4659
  20
28.7412
  42
0
  0
VERTEX
  8
case
  10
40.4239
  20
28.6173
  42
0
  0
VERTEX
  8
case
  10
40.366
  20
28.5
  42
0
  0
VERTEX
  8
case
  10
40.2934
  20
28.3912
  42
0
  0
VERTEX
  8
case
  10
40.2071
  20
28.2929
  42
0
  0
VERTEX
  8
case
  10
40.1088
  20
28.2066
  42
0
  0
VERTEX
  8
case
  10
40.0
  20
28.134
  42
0
  0
VERTEX
  8
case
  10
39.8827
  20
28.0761
  42
0
  0
VERTEX
  8
case
  10
39.7588
  20
28.0341
  42
0
  0
VERTEX
  8
case
  10
39.6305
  20
28.0086
  42
0
  0
VERTEX
  8
case
  10
39.5
  20
28.0
  42
0
  0
VERTEX
  8
case
  10
39.3695
  20
28.0086
  42
0
  0
VERTEX
  8
case
  10
39.2412
  20
28.0341
  42
0
  0
VERTEX
  8
case
  10
39.1173
  20
28.0761
  42
0
  0
VERTEX
  8
case
  10
39.0
  20
28.134
  42
0
  0
VERTEX
  8
case
  10
38.8912
  20
28.2066
  42
0
  0
VERTEX
  8
case
  10
38.7929
  20
28.2929
  42
0
  0
VERTEX
  8
case
  10
38.7066
  20
28.3912
  42
0
  0
VERTEX
  8
case
  10
38.634
  20
28.5
  42
0
  0
VERTEX
  8
case
  10
38.5761
  20
28.6173
  42
0
  0
VERTEX
  8
case
  10
38.5341
  20
28.7412
  42
0
  0
VERTEX
  8
case
  10
38.5086
  20
28.8695
  42
0
  0
VERTEX
  8
case
  10
38.5
  20
29.0
  42
0
  0
VERTEX
  8
case
  10
38.5
  20
29.0
  42
0
  0
SEQEND
  0
POLYLINE
  8
case
  6
CONTINUOUS
  66
1
  70
0
  40
0.0
  41
0.0
  0
VERTEX
  8
case
  10
41.0
  20
31.5
  42
0
  0
VERTEX
  8
case
  10
41.0086
  20
31.6305
  42
0
  0
VERTEX
  8
case
  10
41.0341
  20
31.7588
  42
0
  0
VERTEX
  8
case
  10
41.0761
  20
31.8827
  42
0
  0
VERTEX
  8
case
  10
41.134
  20
32.0
  42
0
  0
VERTEX
  8
case
  10
41.2066
  20
32.1088
  42
0
  0
VERTEX
  8
case
  10
41.2929
  20
32.2071
  42
0
  0
VERTEX
  8
case
  10
41.3912
  20
32.2934
  42
0
  0
VERTEX
  8
case
  10
41.5
  20
32.366
  42
0
  0
VERTEX
  8
case
  10
41.6173
  20
32.4239
  42
0
  0
VERTEX
  8
case
  10
41.7412
  20
32.4659
  42
0
  0
VERTEX
  8
case
  10
41.8695
  20
32.4914
  42
0
  0
VERTEX
  8
case
  10
42.0
  20
32.5
  42
0
  0
VERTEX
  8
case
  10
42.1305
  20
32.4914
  42
0
  0
VERTEX
  8
case
  10
42.2588
  20
32.4659
  42
0
  0
VERTEX
  8
case
  10
42.3827
  20
32.4239
  42
0
  0
VERTEX
  8
case
  10
42.5
  20
32.366
  42
0
  0
VERTEX
  8
case
  10
42.6088
  20
32.2934
  42
0
  0
VERTEX
  8
case
  10
42.7071
  20
32.2071
  42
0
  0
VERTEX
  8
case
  10
42.7934
  20
32.1088
  42
0
  0
VERTEX
  8
case
  10
42.866
  20
32.0
  42
0
  0
VERTEX
  8
case
  10
42.9239
  20
31.8827
  42
0
  0
VERTEX
  8
case
  10
42.9659
  20
31.7588
  42
0
  0
VERTEX
  8
case
  10
42.9914
  20
31.6305
  42
0
  0
VERTEX
  8
case
  10
43.0
  20
31.5
  42
0
  0
VERTEX
  8
case
  10
43.0
  20
31.5
  42
0
  0
VERTEX
  8
case
  10
42.9914
  20
31.3695
  42
0
  0
VERTEX
  8
case
  10
42.9659
  20
31.2412
  42
0
  0
VERTEX
  8
case
  10
42.9239
  20
31.1173
  42
0
  0
VERTEX
  8
case
  10
42.866
  20
31.0
  42
0
  0
VERTEX
  8
case
  10
42.7934
  20
30.8912
  42
0
  0
VERTEX
  8
case
  10
42.7071
  20
30.7929
  42
0
  0
VERTEX
  8
case
  10
42.6088
  20
30.7066
  42
0
  0
VERTEX
  8
case
  10
42.5
  20
30.634
  42
0
  0
VERTEX
  8
case
  10
42.3827
  20
30.5761
  42
0
  0
VERTEX
  8
case
  10
42.2588
  20
30.5341
  42
0
  0
VERTEX
  8
case
  10
42.1305
  20
30.5086
  42
0
  0
VERTEX
  8
case
  10
42.0
  20
30.5
  42
0
  0
VERTEX
  8
case
  10
41.8695
  20
30.5086
  42
0
  0
VERTEX
  8
case
  10
41.7412
  20
30.5341
  42
0
  0
VERTEX
  8
case
  10
41.6173
  20
30.5761
  42
0
  0
VERTEX
  8
case
  10
41.5
  20
30.634
  42
0
  0
VERTEX
  8
case
  10
41.3912
  20
30.7066
  42
0
  0
VERTEX
  8
case
  10
41.2929
  20
30.7929
  42
0
  0
VERTEX
  8
case
  10
41.2066
  20
30.8912
  42
0
  0
VERTEX
  8
case
  10
41.134
  20
31.0
  42
0
  0
VERTEX
  8
case
  10
41.0761
  20
31.1173
  42
0
  0
VERTEX
  8
case
  10
41.0341
  20
31.2412
  42
0
  0
VERTEX
  8
case
  10
41.0086
  20
31.3695
  42
0
  0
VERTEX
  8
case
  10
41.0
  20
31.5
  42
0
  0
VERTEX
  8
case
  10
41.0
  20
31.5
  42
0
  0
SEQEND
  0
POLYLINE
  8
case
  6
CONTINUOUS
  66
1
  70
0
  40
0.0
  41
0.0
  0
VERTEX
  8
case
  10
46.0
  20
31.5
  42
0
  0
VERTEX
  8
case
  10
46.0086
  20
31.6305
  42
0
  0
VERTEX
  8
case
  10
46.0341
  20
31.7588
  42
0
  0
VERTEX
  8
case
  10
46.0761
  20
31.8827
  42
0
  0
VERTEX
  8
case
  10
46.134
  20
32.0
  42
0
  0
VERTEX
  8
case
  10
46.2066
  20
32.1088
  42
0
  0
VERTEX
  8
case
  10
46.2929
  20
32.2071
  42
0
  0
VERTEX
  8
case
  10
46.3912
  20
32.2934
  42
0
  0
VERTEX
  8
case
  10
46.5
  20
32.366
  42
0
  0
VERTEX
  8
case
  10
46.6173
  20
32.4239
  42
0
  0
VERTEX
  8
case
  10
46.7412
  20
32.4659
  42
0
  0
VERTEX
  8
case
  10
46.8695
  20
32.4914
  42
0
  0
VERTEX
  8
case
  10
47.0
  20
32.5
  42
0
  0
VERTEX
  8
case
  10
47.1305
  20
32.4914
  42
0
  0
VERTEX
  8
case
  10
47.2588
  20
32.4659
  42
0
  0
VERTEX
  8
case
  10
47.3827
  20
32.4239
  42
0
  0
VERTEX
  8
case
  10
47.5
  20
32.366
  42
0
  0
VERTEX
  8
case
  10
47.6088
  20
32.2934
  42
0
  0
VERTEX
  8
case
  10
47.7071
  20
32.2071
  42
0
  0
VERTEX
  8
case
  10
47.7934
  20
32.1088
  42
0
  0
VERTEX
  8
case
  10
47.866
  20
32.0
  42
0
  0
VERTEX
  8
case
  10
47.9239
  20
31.8827
  42
0
  0
VERTEX
  8
case
  10
47.9659
  20
31.7588
  42
0
  0
VERTEX
  8
case
  10
47.9914
  20
31.6305
  42
0
  0
VERTEX
  8
case
  10
48.0
  20
31.5
  42
0
  0
VERTEX
  8
case
  10
48.0
  20
31.5
  42
0
  0
VERTEX
  8
case
  10
47.9914
  20
31.3695
  42
0
  0
VERTEX
  8
case
  10
47.9659
  20
31.2412
  42
0
  0
VERTEX
  8
case
  10
47.9239
  20
31.1173
  42
0
  0
VERTEX
  8
case
  10
47.866
  20
31.0
  42
0
  0
VERTEX
  8
case
  10
47.7934
  20
30.8912
  42
0
  0
VERTEX
  8
case
  10
47.7071
  20
30.7929
  42
0
  0
VERTEX
  8
case
  10
47.6088
  20
30.7066
  42
0
  0
VERTEX
  8
case
  10
47.5
  20
30.634
  42
0
  0
VERTEX
  8
case
  10
47.3827
  20
30.5761
  42
0
  0
VERTEX
  8
case
  10
47.2588
  20
30.5341
  42
0
  0
VERTEX
  8
case
  10
47.1305
  20
30.5086
  42
0
  0
VERTEX
  8
case
  10
47.0
  20
30.5
  42
0
  0
VERTEX
  8
case
  10
46.8695
  20
30.5086
  42
0
  0
VERTEX
  8
case
  10
46.7412
  20
30.5341
  42
0
  0
VERTEX
  8
case
  10
46.6173
  20
30.5761
  42
0
  0
VERTEX
  8
case
  10
46.5
  20
30.634
  42
0
  0
VERTEX
  8
case
  10
46.3912
  20
30.7066
  42
0
  0
VERTEX
  8
case
  10
46.2929
  20
30.7929
  42
0
  0
VERTEX
  8
case
  10
46.2066
  20
30.8912
  42
0
  0
VERTEX
  8
case
  10
46.134
  20
31.0
  42
0
  0
VERTEX
  8
case
  10
46.0761
  20
31.1173
  42
0
  0
VERTEX
  8
case
  10
46.0341
  20
31.2412
  42
0
  0
VERTEX
  8
case
  10
46.0086
  20
31.3695
  42
0
  0
VERTEX
  8
case
  10
46.0
  20
31.5
  42
0
  0
VERTEX
  8
case
  10
46.0
  20
31.5
  42
0
  0
SEQEND
  0
POLYLINE
  8
case
  6
CONTINUOUS
  66
1
  70
0
  40
0.0
  41
0.0
  0
VERTEX
  8
case
  10
36.0
  20
31.5
  42
0
  0
VERTEX
  8
case
  10
36.0086
  20
31.6305
  42
0
  0
VERTEX
  8
case
  10
36.0341
  20
31.7588
  42
0
  0
VERTEX
  8
case
  10
36.0761
  20
31.8827
  42
0
  0
VERTEX
  8
case
  10
36.134
  20
32.0
  42
0
  0
VERTEX
  8
case
  10
36.2066
  20
32.1088
  42
0
  0
VERTEX
  8
case
  10
36.2929
  20
32.2071
  42
0
  0
VERTEX
  8
case
  10
36.3912
  20
32.2934
  42
0
  0
VERTEX
  8
case
  10
36.5
  20
32.366
  42
0
  0
VERTEX
  8
case
  10
36.6173
  20
32.4239
  42
0
  0
VERTEX
  8
case
  10
36.7412
  20
32.4659
  42
0
  0
VERTEX
  8
case
  10
36.8695
  20
32.4914
  42
0
  0
VERTEX
  8
case
  10
37.0
  20
32.5
  42
0
  0
VERTEX
  8
case
  10
37.1305
  20
32.4914
  42
0
  0
VERTEX
  8
case
  10
37.2588
  20
32.4659
  42
0
  0
VERTEX
  8
case
  10
37.3827
  20
32.4239
  42
0
  0
VERTEX
  8
case
  10
37.5
  20
32.366
  42
0
  0
VERTEX
  8
case
  10
37.6088
  20
32.2934
  42
0
  0
VERTEX
  8
case
  10
37.7071
  20
32.2071
  42
0
  0
VERTEX
  8
case
  10
37.7934
  20
32.1088
  42
0
  0
VERTEX
  8
case
  10
37.866
  20
32.0
  42
0
  0
VERTEX
  8
case
  10
37.9239
  20
31.8827
  42
0
  0
VERTEX
  8
case
  10
37.9659
  20
31.7588
  42
0
  0
VERTEX
  8
case
  10
37.9914
  20
31.6305
  42
0
  0
VERTEX
  8
case
  10
38.0
  20
31.5
  42
0
  0
VERTEX
  8
case
  10
38.0
  20
31.5
  42
0
  0
VERTEX
  8
case
  10
37.9914
  20
31.3695
  42
0
  0
VERTEX
  8
case
  10
37.9659
  20
31.2412
  42
0
  0
VERTEX
  8
case
  10
37.9239
  20
31.1173
  42
0
  0
VERTEX
  8
case
  10
37.866
  20
31.0
  42
0
  0
VERTEX
  8
case
  10
37.7934
  20
30.8912
  42
0
  0
VERTEX
  8
case
  10
37.7071
  20
30.7929
  42
0
  0
VERTEX
  8
case
  10
37.6088
  20
30.7066
  42
0
  0
VERTEX
  8
case
  10
37.5
  20
30.634
  42
0
  0
VERTEX
  8
case
  10
37.3827
  20
30.5761
  42
0
  0
VERTEX
  8
case
  10
37.2588
  20
30.5341
  42
0
  0
VERTEX
  8
case
  10
37.1305
  20
30.5086
  42
0
  0
VERTEX
  8
case
  10
37.0
  20
30.5
  42
0
  0
VERTEX
  8
case
  10
36.8695
  20
30.5086
  42
0
  0
VERTEX
  8
case
  10
36.7412
  20
30.5341
  42
0
  0
VERTEX
  8
case
  10
36.6173
  20
30.5761
  42
0
  0
VERTEX
  8
case
  10
36.5
  20
30.634
  42
0
  0
VERTEX
  8
case
  10
36.3912
  20
30.7066
  42
0
  0
VERTEX
  8
case
  10
36.2929
  20
30.7929
  42
0
  0
VERTEX
  8
case
  10
36.2066
  20
30.8912
  42
0
  0
VERTEX
  8
case
  10
36.134
  20
31.0
  42
0
  0
VERTEX
  8
case
  10
36.0761
  20
31.1173
  42
0
  0
VERTEX
  8
case
  10
36.0341
  20
31.2412
  42
0
  0
VERTEX
  8
case
  10
36.0086
  20
31.3695
  42
0
  0
VERTEX
  8
case
  10
36.0
  20
31.5
  42
0
  0
VERTEX
  8
case
  10
36.0
  20
31.5
  42
0
  0
SEQEND
  0
POLYLINE
  8
case
  6
CONTINUOUS
  66
1
  70
0
  40
0.0
  41
0.0
  0
VERTEX
  8
case
  10
38.4645
  20
9.4142
  42
0
  0
VERTEX
  8
case
  10
40.5858
  20
11.5355
  42
0
  0
SEQEND
  0
POLYLINE
  8
case
  6
CONTINUOUS
  66
1
  70
0
  40
0.0
  41
0.0
  0
VERTEX
  8
case
  10
43.4142
  20
11.5355
  42
0
  0
VERTEX
  8
case
  10
45.5355
  20
9.4142
  42
0
  0
SEQEND
  0
POLYLINE
  8
case
  6
CONTINUOUS
  66
1
  70
0
  40
0.0
  41
0.0
  0
VERTEX
  8
case
  10
45.5355
  20
6.5858
  42
0
  0
VERTEX
  8
case
  10
43.4142
  20
4.4645
  42
0
  0
SEQEND
  0
POLYLINE
  8
case
  6
CONTINUOUS
  66
1
  70
0
  40
0.0
  41
0.0
  0
VERTEX
  8
case
  10
40.5858
  20
4.4645
  42
0
  0
VERTEX
  8
case
  10
38.4645
  20
6.5858
  42
0
  0
SEQEND
  0
POLYLINE
  8
case
  6
CONTINUOUS
  66
1
  70
0
  40
0.0
  41
0.0
  0
VERTEX
  8
case
  10
38.4645
  20
9.4142
  42
0
  0
VERTEX
  8
case
  10
38.3579
  20
9.2989
  42
0
  0
VERTEX
  8
case
  10
38.2606
  20
9.1756
  42
0
  0
VERTEX
  8
case
  10
38.1734
  20
9.045
  42
0
  0
VERTEX
  8
case
  10
38.0967
  20
8.908
  42
0
  0
VERTEX
  8
case
  10
38.0309
  20
8.7654
  42
0
  0
VERTEX
  8
case
  10
37.9766
  20
8.618
  42
0
  0
VERTEX
  8
case
  10
37.9339
  20
8.4669
  42
0
  0
VERTEX
  8
case
  10
37.9033
  20
8.3129
  42
0
  0
VERTEX
  8
case
  10
37.8848
  20
8.1569
  42
0
  0
VERTEX
  8
case
  10
37.8787
  20
8.0
  42
0
  0
VERTEX
  8
case
  10
37.8848
  20
7.8431
  42
0
  0
VERTEX
  8
case
  10
37.9033
  20
7.6871
  42
0
  0
VERTEX
  8
case
  10
37.9339
  20
7.5331
  42
0
  0
VERTEX
  8
case
  10
37.9766
  20
7.382
  42
0
  0
VERTEX
  8
case
  10
38.0309
  20
7.2346
  42
0
  0
VERTEX
  8
case
  10
38.0967
  20
7.092
  42
0
  0
VERTEX
  8
case
  10
38.1734
  20
6.955
  42
0
  0
VERTEX
  8
case
  10
38.2606
  20
6.8244
  42
0
  0
VERTEX
  8
case
  10
38.3579
  20
6.7011
  42
0
  0
VERTEX
  8
case
  10
38.4645
  20
6.5858
  42
0
  0
SEQEND
  0
POLYLINE
  8
case
  6
CONTINUOUS
  66
1
  70
0
  40
0.0
  41
0.0
  0
VERTEX
  8
case
  10
40.5858
  20
4.4645
  42
0
  0
VERTEX
  8
case
  10
40.7011
  20
4.3579
  42
0
  0
VERTEX
  8
case
  10
40.8244
  20
4.2606
  42
0
  0
VERTEX
  8
case
  10
40.955
  20
4.1734
  42
0
  0
VERTEX
  8
case
  10
41.092
  20
4.0967
  42
0
  0
VERTEX
  8
case
  10
41.2346
  20
4.0309
  42
0
  0
VERTEX
  8
case
  10
41.382
  20
3.9766
  42
0
  0
VERTEX
  8
case
  10
41.5331
  20
3.9339
  42
0
  0
VERTEX
  8
case
  10
41.6871
  20
3.9033
  42
0
  0
VERTEX
  8
case
  10
41.8431
  20
3.8848
  42
0
  0
VERTEX
  8
case
  10
42.0
  20
3.8787
  42
0
  0
VERTEX
  8
case
  10
42.1569
  20
3.8848
  42
0
  0
VERTEX
  8
case
  10
42.3129
  20
3.9033
  42
0
  0
VERTEX
  8
case
  10
42.4669
  20
3.9339
  42
0
  0
VERTEX
  8
case
  10
42.618
  20
3.9766
  42
0
  0
VERTEX
  8
case
  10
42.7654
  20
4.0309
  42
0
  0
VERTEX
  8
case
  10
42.908
  20
4.0967
  42
0
  0
VERTEX
  8
case
  10
43.045
  20
4.1734
  42
0
  0
VERTEX
  8
case
  10
43.1756
  20
4.2606
  42
0
  0
VERTEX
  8
case
  10
43.2989
  20
4.3579
  42
0
  0
VERTEX
  8
case
  10
43.4142
  20
4.4645
  42
0
  0
SEQEND
  0
POLYLINE
  8
case
  6
CONTINUOUS
  66
1
  70
0
  40
0.0
  41
0.0
  0
VERTEX
  8
case
  10
45.5355
  20
6.5858
  42
0
  0
VERTEX
  8
case
  10
45.6421
  20
6.7011
  42
0
  0
VERTEX
  8
case
  10
45.7394
  20
6.8244
  42
0
  0
VERTEX
  8
case
  10
45.8266
  20
6.955
  42
0
  0
VERTEX
  8
case
  10
45.9033
  20
7.092
  42
0
  0
VERTEX
  8
case
  10
45.9691
  20
7.2346
  42
0
  0
VERTEX
  8
case
  10
46.0234
  20
7.382
  42
0
  0
VERTEX
  8
case
  10
46.0661
  20
7.5331
  42
0
  0
VERTEX
  8
case
  10
46.0967
  20
7.6871
  42
0
  0
VERTEX
  8
case
  10
46.1152
  20
7.8431
  42
0
  0
VERTEX
  8
case
  10
46.1213
  20
8.0
  42
0
  0
VERTEX
  8
case
  10
46.1152
  20
8.1569
  42
0
  0
VERTEX
  8
case
  10
46.0967
  20
8.3129
  42
0
  0
VERTEX
  8
case
  10
46.0661
  20
8.4669
  42
0
  0
VERTEX
  8
case
  10
46.0234
  20
8.618
  42
0
  0
VERTEX
  8
case
  10
45.9691
  20
8.7654
  42
0
  0
VERTEX
  8
case
  10
45.9033
  20
8.908
  42
0
  0
VERTEX
  8
case
  10
45.8266
  20
9.045
  42
0
  0
VERTEX
  8
case
  10
45.7394
  20
9.1756
  42
0
  0
VERTEX
  8
case
  10
45.6421
  20
9.2989
  42
0
  0
VERTEX
  8
case
  10
45.5355
  20
9.4142
  42
0
  0
SEQEND
  0
POLYLINE
  8
case
  6
CONTINUOUS
  66
1
  70
0
  40
0.0
  41
0.0
  0
VERTEX
  8
case
  10
43.4142
  20
11.5355
  42
0
  0
VERTEX
  8
case
  10
43.2989
  20
11.6421
  42
0
  0
VERTEX
  8
case
  10
43.1756
  20
11.7394
  42
0
  0
VERTEX
  8
case
  10
43.045
  20
11.8266
  42
0
  0
VERTEX
  8
case
  10
42.908
  20
11.9033
  42
0
  0
VERTEX
  8
case
  10
42.7654
  20
11.9691
  42
0
  0
VERTEX
  8
case
  10
42.618
  20
12.0234
  42
0
  0
VERTEX
  8
case
  10
42.4669
  20
12.0661
  42
0
  0
VERTEX
  8
case
  10
42.3129
  20
12.0967
  42
0
  0
VERTEX
  8
case
  10
42.1569
  20
12.1152
  42
0
  0
VERTEX
  8
case
  10
42.0
  20
12.1213
  42
0
  0
VERTEX
  8
case
  10
41.8431
  20
12.1152
  42
0
  0
VERTEX
  8
case
  10
41.6871
  20
12.0967
  42
0
  0
VERTEX
  8
case
  10
41.5331
  20
12.0661
  42
0
  0
VERTEX
  8
case
  10
41.382
  20
12.0234
  42
0
  0
VERTEX
  8
case
  10
41.2346
  20
11.9691
  42
0
  0
VERTEX
  8
case
  10
41.092
  20
11.9033
  42
0
  0
VERTEX
  8
case
  10
40.955
  20
11.8266
  42
0
  0
VERTEX
  8
case
  10
40.8244
  20
11.7394
  42
0
  0
VERTEX
  8
case
  10
40.7011
  20
11.6421
  42
0
  0
VERTEX
  8
case
  10
40.5858
  20
11.5355
  42
0
  0
SEQEND
  0
POLYLINE
  8
case
  6
CONTINUOUS
  66
1
  70
0
  40
0.0
  41
0.0
  0
VERTEX
  8
case
  10
72.7
  20
8.2
  42
0
  0
VERTEX
  8
case
  10
72.7086
  20
8.3305
  42
0
  0
VERTEX
  8
case
  10
72.7341
  20
8.4588
  42
0
  0
VERTEX
  8
case
  10
72.7761
  20
8.5827
  42
0
  0
VERTEX
  8
case
  10
72.834
  20
8.7
  42
0
  0
VERTEX
  8
case
  10
72.9066
  20
8.8088
  42
0
  0
VERTEX
  8
case
  10
72.9929
  20
8.9071
  42
0
  0
VERTEX
  8
case
  10
73.0912
  20
8.9934
  42
0
  0
VERTEX
  8
case
  10
73.2
  20
9.066
  42
0
  0
VERTEX
  8
case
  10
73.3173
  20
9.1239
  42
0
  0
VERTEX
  8
case
  10
73.4412
  20
9.1659
  42
0
  0
VERTEX
  8
case
  10
73.5695
  20
9.1914
  42
0
  0
VERTEX
  8
case
  10
73.7
  20
9.2
  42
0
  0
VERTEX
  8
case
  10
73.8305
  20
9.1914
  42
0
  0
VERTEX
  8
case
  10
73.9588
  20
9.1659
  42
0
  0
VERTEX
  8
case
  10
74.0827
  20
9.1239
  42
0
  0
VERTEX
  8
case
  10
74.2
  20
9.066
  42
0
  0
VERTEX
  8
case
  10
74.3088
  20
8.9934
  42
0
  0
VERTEX
  8
case
  10
74.4071
  20
8.9071
  42
0
  0
VERTEX
  8
case
  10
74.4934
  20
8.8088
  42
0
  0
VERTEX
  8
case
  10
74.566
  20
8.7
  42
0
  0
VERTEX
  8
case
  10
74.6239
  20
8.5827
  42
0
  0
VERTEX
  8
case
  10
74.6659
  20
8.4588
  42
0
  0
VERTEX
  8
case
  10
74.6914
  20
8.3305
  42
0
  0
VERTEX
  8
case
  10
74.7
  20
8.2
  42
0
  0
VERTEX
  8
case
  10
74.7
  20
8.2
  42
0
  0
VERTEX
  8
case
  10
74.6914
  20
8.0695
  42
0
  0
VERTEX
  8
case
  10
74.6659
  20
7.9412
  42
0
  0
VERTEX
  8
case
  10
74.6239
  20
7.8173
  42
0
  0
VERTEX
  8
case
  10
74.566
  20
7.7
  42
0
  0
VERTEX
  8
case
  10
74.4934
  20
7.5912
  42
0
  0
VERTEX
  8
case
  10
74.4071
  20
7.4929
  42
0
  0
VERTEX
  8
case
  10
74.3088
  20
7.4066
  42
0
  0
VERTEX
  8
case
  10
74.2
  20
7.334
  42
0
  0
VERTEX
  8
case
  10
74.0827
  20
7.2761
  42
0
  0
VERTEX
  8
case
  10
73.9588
  20
7.2341
  42
0
  0
VERTEX
  8
case
  10
73.8305
  20
7.2086
  42
0
  0
VERTEX
  8
case
  10
73.7
  20
7.2
  42
0
  0
VERTEX
  8
case
  10
73.5695
  20
7.2086
  42
0
  0
VERTEX
  8
case
  10
73.4412
  20
7.2341
  42
0
  0
VERTEX
  8
case
  10
73.3173
  20
7.2761
  42
0
  0
VERTEX
  8
case
  10
73.2
  20
7.334
  42
0
  0
VERTEX
  8
case
  10
73.0912
  20
7.4066
  42
0
  0
VERTEX
  8
case
  10
72.9929
  20
7.4929
  42
0
  0
VERTEX
  8
case
  10
72.9066
  20
7.5912
  42
0
  0
VERTEX
  8
case
  10
72.834
  20
7.7
  42
0
  0
VERTEX
  8
case
  10
72.7761
  20
7.8173
  42
0
  0
VERTEX
  8
case
  10
72.7341
  20
7.9412
  42
0
  0
VERTEX
  8
case
  10
72.7086
  20
8.0695
  42
0
  0
VERTEX
  8
case
  10
72.7
  20
8.2
  42
0
  0
VERTEX
  8
case
  10
72.7
  20
8.2
  42
0
  0
SEQEND
  0
ENDSEC
  0
EOF
