  0
SECTION
  2
HEADER
  9
$ACADVER
  1
AC1009
  9
$ANGDIR
  70
0
  9
$CECOLOR
  62
256
  9
$CELTYPE
  6
BYLAYER
  9
$EXTMIN
  10
0.0
  20
0.0
  9
$EXTMAX
  10
3.3071
  20
5.1575
  9
$FILLMODE
  70
1
  9
$MIRRTEXT
  70
0
  0
ENDSEC
  0
SECTION
  2
TABLES
  0
TABLE
  2
LAYER
  70
24
  0
LAYER
  2
case
  70
64
  62
22
  6
CONTINUOUS
  0
ENDTAB
  0
ENDSEC
  0
SECTION
  2
ENTITIES
  0
POLYLINE
  8
case
  6
CONTINUOUS
  66
1
  70
0
  40
0.0047
  41
0.0047
  0
VERTEX
  8
case
  10
0.0
  20
0.315
  42
0
  0
VERTEX
  8
case
  10
0.001
  20
0.2902
  42
0
  0
VERTEX
  8
case
  10
0.0039
  20
0.2657
  42
0
  0
VERTEX
  8
case
  10
0.0087
  20
0.2414
  42
0
  0
VERTEX
  8
case
  10
0.0154
  20
0.2176
  42
0
  0
VERTEX
  8
case
  10
0.024
  20
0.1944
  42
0
  0
VERTEX
  8
case
  10
0.0343
  20
0.172
  42
0
  0
VERTEX
  8
case
  10
0.0464
  20
0.1504
  42
0
  0
VERTEX
  8
case
  10
0.0602
  20
0.1298
  42
0
  0
VERTEX
  8
case
  10
0.0755
  20
0.1104
  42
0
  0
VERTEX
  8
case
  10
0.0922
  20
0.0922
  42
0
  0
VERTEX
  8
case
  10
0.1104
  20
0.0755
  42
0
  0
VERTEX
  8
case
  10
0.1298
  20
0.0602
  42
0
  0
VERTEX
  8
case
  10
0.1504
  20
0.0464
  42
0
  0
VERTEX
  8
case
  10
0.172
  20
0.0343
  42
0
  0
VERTEX
  8
case
  10
0.1944
  20
0.024
  42
0
  0
VERTEX
  8
case
  10
0.2176
  20
0.0154
  42
0
  0
VERTEX
  8
case
  10
0.2414
  20
0.0087
  42
0
  0
VERTEX
  8
case
  10
0.2657
  20
0.0039
  42
0
  0
VERTEX
  8
case
  10
0.2902
  20
0.001
  42
0
  0
VERTEX
  8
case
  10
0.315
  20
0.0
  42
0
  0
SEQEND
  0
POLYLINE
  8
case
  6
CONTINUOUS
  66
1
  70
0
  40
0.0047
  41
0.0047
  0
VERTEX
  8
case
  10
0.315
  20
5.1575
  42
0
  0
VERTEX
  8
case
  10
0.2902
  20
5.1565
  42
0
  0
VERTEX
  8
case
  10
0.2657
  20
5.1536
  42
0
  0
VERTEX
  8
case
  10
0.2414
  20
5.1488
  42
0
  0
VERTEX
  8
case
  10
0.2176
  20
5.1421
  42
0
  0
VERTEX
  8
case
  10
0.1944
  20
5.1335
  42
0
  0
VERTEX
  8
case
  10
0.172
  20
5.1232
  42
0
  0
VERTEX
  8
case
  10
0.1504
  20
5.1111
  42
0
  0
VERTEX
  8
case
  10
0.1298
  20
5.0973
  42
0
  0
VERTEX
  8
case
  10
0.1104
  20
5.082
  42
0
  0
VERTEX
  8
case
  10
0.0922
  20
5.0652
  42
0
  0
VERTEX
  8
case
  10
0.0755
  20
5.0471
  42
0
  0
VERTEX
  8
case
  10
0.0602
  20
5.0276
  42
0
  0
VERTEX
  8
case
  10
0.0464
  20
5.0071
  42
0
  0
VERTEX
  8
case
  10
0.0343
  20
4.9855
  42
0
  0
VERTEX
  8
case
  10
0.024
  20
4.9631
  42
0
  0
VERTEX
  8
case
  10
0.0154
  20
4.9398
  42
0
  0
VERTEX
  8
case
  10
0.0087
  20
4.916
  42
0
  0
VERTEX
  8
case
  10
0.0039
  20
4.8918
  42
0
  0
VERTEX
  8
case
  10
0.001
  20
4.8672
  42
0
  0
VERTEX
  8
case
  10
0.0
  20
4.8425
  42
0
  0
SEQEND
  0
POLYLINE
  8
case
  6
CONTINUOUS
  66
1
  70
0
  40
0.0047
  41
0.0047
  0
VERTEX
  8
case
  10
3.3071
  20
4.8425
  42
0
  0
VERTEX
  8
case
  10
3.3061
  20
4.8672
  42
0
  0
VERTEX
  8
case
  10
3.3032
  20
4.8918
  42
0
  0
VERTEX
  8
case
  10
3.2984
  20
4.916
  42
0
  0
VERTEX
  8
case
  10
3.2917
  20
4.9398
  42
0
  0
VERTEX
  8
case
  10
3.2831
  20
4.9631
  42
0
  0
VERTEX
  8
case
  10
3.2728
  20
4.9855
  42
0
  0
VERTEX
  8
case
  10
3.2607
  20
5.0071
  42
0
  0
VERTEX
  8
case
  10
3.2469
  20
5.0276
  42
0
  0
VERTEX
  8
case
  10
3.2316
  20
5.0471
  42
0
  0
VERTEX
  8
case
  10
3.2148
  20
5.0652
  42
0
  0
VERTEX
  8
case
  10
3.1967
  20
5.082
  42
0
  0
VERTEX
  8
case
  10
3.1773
  20
5.0973
  42
0
  0
VERTEX
  8
case
  10
3.1567
  20
5.1111
  42
0
  0
VERTEX
  8
case
  10
3.1351
  20
5.1232
  42
0
  0
VERTEX
  8
case
  10
3.1127
  20
5.1335
  42
0
  0
VERTEX
  8
case
  10
3.0895
  20
5.1421
  42
0
  0
VERTEX
  8
case
  10
3.0657
  20
5.1488
  42
0
  0
VERTEX
  8
case
  10
3.0414
  20
5.1536
  42
0
  0
VERTEX
  8
case
  10
3.0168
  20
5.1565
  42
0
  0
VERTEX
  8
case
  10
2.9921
  20
5.1575
  42
0
  0
SEQEND
  0
POLYLINE
  8
case
  6
CONTINUOUS
  66
1
  70
0
  40
0.0047
  41
0.0047
  0
VERTEX
  8
case
  10
2.5984
  20
0.0
  42
0
  0
VERTEX
  8
case
  10
2.654
  20
0.0022
  42
0
  0
VERTEX
  8
case
  10
2.7093
  20
0.0087
  42
0
  0
VERTEX
  8
case
  10
2.7639
  20
0.0196
  42
0
  0
VERTEX
  8
case
  10
2.8174
  20
0.0347
  42
0
  0
VERTEX
  8
case
  10
2.8696
  20
0.0539
  42
0
  0
VERTEX
  8
case
  10
2.9202
  20
0.0772
  42
0
  0
VERTEX
  8
case
  10
2.9687
  20
0.1044
  42
0
  0
VERTEX
  8
case
  10
3.015
  20
0.1353
  42
0
  0
VERTEX
  8
case
  10
3.0587
  20
0.1698
  42
0
  0
VERTEX
  8
case
  10
3.0995
  20
0.2076
  42
0
  0
VERTEX
  8
case
  10
3.1373
  20
0.2484
  42
0
  0
VERTEX
  8
case
  10
3.1717
  20
0.2921
  42
0
  0
VERTEX
  8
case
  10
3.2027
  20
0.3384
  42
0
  0
VERTEX
  8
case
  10
3.2298
  20
0.3869
  42
0
  0
VERTEX
  8
case
  10
3.2531
  20
0.4375
  42
0
  0
VERTEX
  8
case
  10
3.2724
  20
0.4897
  42
0
  0
VERTEX
  8
case
  10
3.2875
  20
0.5432
  42
0
  0
VERTEX
  8
case
  10
3.2984
  20
0.5978
  42
0
  0
VERTEX
  8
case
  10
3.3049
  20
0.6531
  42
0
  0
VERTEX
  8
case
  10
3.3071
  20
0.7087
  42
0
  0
SEQEND
  0
POLYLINE
  8
case
  6
CONTINUOUS
  66
1
  70
0
  40
0.0047
  41
0.0047
  0
VERTEX
  8
case
  10
0.315
  20
5.1575
  42
0
  0
VERTEX
  8
case
  10
2.9921
  20
5.1575
  42
0
  0
SEQEND
  0
POLYLINE
  8
case
  6
CONTINUOUS
  66
1
  70
0
  40
0.0047
  41
0.0047
  0
VERTEX
  8
case
  10
0.0
  20
4.8425
  42
0
  0
VERTEX
  8
case
  10
0.0
  20
0.315
  42
0
  0
SEQEND
  0
POLYLINE
  8
case
  6
CONTINUOUS
  66
1
  70
0
  40
0.0047
  41
0.0047
  0
VERTEX
  8
case
  10
3.3071
  20
0.7087
  42
0
  0
VERTEX
  8
case
  10
3.3071
  20
4.8425
  42
0
  0
SEQEND
  0
POLYLINE
  8
case
  6
CONTINUOUS
  66
1
  70
0
  40
0.0047
  41
0.0047
  0
VERTEX
  8
case
  10
0.315
  20
0.0
  42
0
  0
VERTEX
  8
case
  10
2.5984
  20
0.0
  42
0
  0
SEQEND
  0
POLYLINE
  8
case
  6
CONTINUOUS
  66
1
  70
0
  40
0.0047
  41
0.0047
  0
VERTEX
  8
case
  10
0.4921
  20
2.3228
  42
0
  0
VERTEX
  8
case
  10
0.4921
  20
2.5984
  42
0
  0
VERTEX
  8
case
  10
0.7677
  20
2.5984
  42
0
  0
VERTEX
  8
case
  10
0.7677
  20
2.3228
  42
0
  0
VERTEX
  8
case
  10
1.0433
  20
2.3228
  42
0
  0
VERTEX
  8
case
  10
1.0433
  20
2.0472
  42
0
  0
VERTEX
  8
case
  10
0.7677
  20
2.0472
  42
0
  0
VERTEX
  8
case
  10
0.7677
  20
1.7717
  42
0
  0
VERTEX
  8
case
  10
0.4921
  20
1.7717
  42
0
  0
VERTEX
  8
case
  10
0.4921
  20
2.0472
  42
0
  0
VERTEX
  8
case
  10
0.2165
  20
2.0472
  42
0
  0
VERTEX
  8
case
  10
0.2165
  20
2.3228
  42
0
  0
VERTEX
  8
case
  10
0.4921
  20
2.3228
  42
0
  0
SEQEND
  0
POLYLINE
  8
case
  6
CONTINUOUS
  66
1
  70
0
  40
0.0047
  41
0.0047
  0
VERTEX
  8
case
  10
0.3071
  20
1.122
  42
0
  0
VERTEX
  8
case
  10
0.3105
  20
1.1734
  42
0
  0
VERTEX
  8
case
  10
0.3205
  20
1.2239
  42
0
  0
VERTEX
  8
case
  10
0.3371
  20
1.2727
  42
0
  0
VERTEX
  8
case
  10
0.3598
  20
1.3189
  42
0
  0
VERTEX
  8
case
  10
0.3884
  20
1.3617
  42
0
  0
VERTEX
  8
case
  10
0.4224
  20
1.4004
  42
0
  0
VERTEX
  8
case
  10
0.4611
  20
1.4344
  42
0
  0
VERTEX
  8
case
  10
0.5039
  20
1.463
  42
0
  0
VERTEX
  8
case
  10
0.5501
  20
1.4858
  42
0
  0
VERTEX
  8
case
  10
0.5989
  20
1.5023
  42
0
  0
VERTEX
  8
case
  10
0.6494
  20
1.5124
  42
0
  0
VERTEX
  8
case
  10
0.7008
  20
1.5157
  42
0
  0
VERTEX
  8
case
  10
0.7522
  20
1.5124
  42
0
  0
VERTEX
  8
case
  10
0.8027
  20
1.5023
  42
0
  0
VERTEX
  8
case
  10
0.8515
  20
1.4858
  42
0
  0
VERTEX
  8
case
  10
0.8976
  20
1.463
  42
0
  0
VERTEX
  8
case
  10
0.9405
  20
1.4344
  42
0
  0
VERTEX
  8
case
  10
0.9792
  20
1.4004
  42
0
  0
VERTEX
  8
case
  10
1.0131
  20
1.3617
  42
0
  0
VERTEX
  8
case
  10
1.0417
  20
1.3189
  42
0
  0
VERTEX
  8
case
  10
1.0645
  20
1.2727
  42
0
  0
VERTEX
  8
case
  10
1.0811
  20
1.2239
  42
0
  0
VERTEX
  8
case
  10
1.0911
  20
1.1734
  42
0
  0
VERTEX
  8
case
  10
1.0945
  20
1.122
  42
0
  0
VERTEX
  8
case
  10
1.0945
  20
1.122
  42
0
  0
VERTEX
  8
case
  10
1.0911
  20
1.0707
  42
0
  0
VERTEX
  8
case
  10
1.0811
  20
1.0201
  42
0
  0
VERTEX
  8
case
  10
1.0645
  20
0.9714
  42
0
  0
VERTEX
  8
case
  10
1.0417
  20
0.9252
  42
0
  0
VERTEX
  8
case
  10
1.0131
  20
0.8824
  42
0
  0
VERTEX
  8
case
  10
0.9792
  20
0.8437
  42
0
  0
VERTEX
  8
case
  10
0.9405
  20
0.8097
  42
0
  0
VERTEX
  8
case
  10
0.8976
  20
0.7811
  42
0
  0
VERTEX
  8
case
  10
0.8515
  20
0.7583
  42
0
  0
VERTEX
  8
case
  10
0.8027
  20
0.7418
  42
0
  0
VERTEX
  8
case
  10
0.7522
  20
0.7317
  42
0
  0
VERTEX
  8
case
  10
0.7008
  20
0.7283
  42
0
  0
VERTEX
  8
case
  10
0.6494
  20
0.7317
  42
0
  0
VERTEX
  8
case
  10
0.5989
  20
0.7418
  42
0
  0
VERTEX
  8
case
  10
0.5501
  20
0.7583
  42
0
  0
VERTEX
  8
case
  10
0.5039
  20
0.7811
  42
0
  0
VERTEX
  8
case
  10
0.4611
  20
0.8097
  42
0
  0
VERTEX
  8
case
  10
0.4224
  20
0.8437
  42
0
  0
VERTEX
  8
case
  10
0.3884
  20
0.8824
  42
0
  0
VERTEX
  8
case
  10
0.3598
  20
0.9252
  42
0
  0
VERTEX
  8
case
  10
0.3371
  20
0.9714
  42
0
  0
VERTEX
  8
case
  10
0.3205
  20
1.0201
  42
0
  0
VERTEX
  8
case
  10
0.3105
  20
1.0707
  42
0
  0
VERTEX
  8
case
  10
0.3071
  20
1.122
  42
0
  0
VERTEX
  8
case
  10
0.3071
  20
1.122
  42
0
  0
SEQEND
  0
POLYLINE
  8
case
  6
CONTINUOUS
  66
1
  70
0
  40
0.0047
  41
0.0047
  0
VERTEX
  8
case
  10
2.2441
  20
2.3228
  42
0
  0
VERTEX
  8
case
  10
2.2458
  20
2.3485
  42
0
  0
VERTEX
  8
case
  10
2.2508
  20
2.3738
  42
0
  0
VERTEX
  8
case
  10
2.2591
  20
2.3982
  42
0
  0
VERTEX
  8
case
  10
2.2705
  20
2.4213
  42
0
  0
VERTEX
  8
case
  10
2.2848
  20
2.4427
  42
0
  0
VERTEX
  8
case
  10
2.3018
  20
2.462
  42
0
  0
VERTEX
  8
case
  10
2.3211
  20
2.479
  42
0
  0
VERTEX
  8
case
  10
2.3425
  20
2.4933
  42
0
  0
VERTEX
  8
case
  10
2.3656
  20
2.5047
  42
0
  0
VERTEX
  8
case
  10
2.39
  20
2.513
  42
0
  0
VERTEX
  8
case
  10
2.4153
  20
2.518
  42
0
  0
VERTEX
  8
case
  10
2.4409
  20
2.5197
  42
0
  0
VERTEX
  8
case
  10
2.4666
  20
2.518
  42
0
  0
VERTEX
  8
case
  10
2.4919
  20
2.513
  42
0
  0
VERTEX
  8
case
  10
2.5163
  20
2.5047
  42
0
  0
VERTEX
  8
case
  10
2.5394
  20
2.4933
  42
0
  0
VERTEX
  8
case
  10
2.5608
  20
2.479
  42
0
  0
VERTEX
  8
case
  10
2.5801
  20
2.462
  42
0
  0
VERTEX
  8
case
  10
2.5971
  20
2.4427
  42
0
  0
VERTEX
  8
case
  10
2.6114
  20
2.4213
  42
0
  0
VERTEX
  8
case
  10
2.6228
  20
2.3982
  42
0
  0
VERTEX
  8
case
  10
2.6311
  20
2.3738
  42
0
  0
VERTEX
  8
case
  10
2.6361
  20
2.3485
  42
0
  0
VERTEX
  8
case
  10
2.6378
  20
2.3228
  42
0
  0
VERTEX
  8
case
  10
2.6378
  20
2.3228
  42
0
  0
VERTEX
  8
case
  10
2.6361
  20
2.2971
  42
0
  0
VERTEX
  8
case
  10
2.6311
  20
2.2719
  42
0
  0
VERTEX
  8
case
  10
2.6228
  20
2.2475
  42
0
  0
VERTEX
  8
case
  10
2.6114
  20
2.2244
  42
0
  0
VERTEX
  8
case
  10
2.5971
  20
2.203
  42
0
  0
VERTEX
  8
case
  10
2.5801
  20
2.1836
  42
0
  0
VERTEX
  8
case
  10
2.5608
  20
2.1667
  42
0
  0
VERTEX
  8
case
  10
2.5394
  20
2.1524
  42
0
  0
VERTEX
  8
case
  10
2.5163
  20
2.141
  42
0
  0
VERTEX
  8
case
  10
2.4919
  20
2.1327
  42
0
  0
VERTEX
  8
case
  10
2.4666
  20
2.1277
  42
0
  0
VERTEX
  8
case
  10
2.4409
  20
2.126
  42
0
  0
VERTEX
  8
case
  10
2.4153
  20
2.1277
  42
0
  0
VERTEX
  8
case
  10
2.39
  20
2.1327
  42
0
  0
VERTEX
  8
case
  10
2.3656
  20
2.141
  42
0
  0
VERTEX
  8
case
  10
2.3425
  20
2.1524
  42
0
  0
VERTEX
  8
case
  10
2.3211
  20
2.1667
  42
0
  0
VERTEX
  8
case
  10
2.3018
  20
2.1836
  42
0
  0
VERTEX
  8
case
  10
2.2848
  20
2.203
  42
0
  0
VERTEX
  8
case
  10
2.2705
  20
2.2244
  42
0
  0
VERTEX
  8
case
  10
2.2591
  20
2.2475
  42
0
  0
VERTEX
  8
case
  10
2.2508
  20
2.2719
  42
0
  0
VERTEX
  8
case
  10
2.2458
  20
2.2971
  42
0
  0
VERTEX
  8
case
  10
2.2441
  20
2.3228
  42
0
  0
VERTEX
  8
case
  10
2.2441
  20
2.3228
  42
0
  0
SEQEND
  0
POLYLINE
  8
case
  6
CONTINUOUS
  66
1
  70
0
  40
0.0047
  41
0.0047
  0
VERTEX
  8
case
  10
2.7165
  20
1.8504
  42
0
  0
VERTEX
  8
case
  10
2.7182
  20
1.8761
  42
0
  0
VERTEX
  8
case
  10
2.7232
  20
1.9013
  42
0
  0
VERTEX
  8
case
  10
2.7315
  20
1.9257
  42
0
  0
VERTEX
  8
case
  10
2.7429
  20
1.9488
  42
0
  0
VERTEX
  8
case
  10
2.7572
  20
1.9702
  42
0
  0
VERTEX
  8
case
  10
2.7742
  20
1.9896
  42
0
  0
VERTEX
  8
case
  10
2.7936
  20
2.0066
  42
0
  0
VERTEX
  8
case
  10
2.815
  20
2.0209
  42
0
  0
VERTEX
  8
case
  10
2.8381
  20
2.0323
  42
0
  0
VERTEX
  8
case
  10
2.8624
  20
2.0405
  42
0
  0
VERTEX
  8
case
  10
2.8877
  20
2.0456
  42
0
  0
VERTEX
  8
case
  10
2.9134
  20
2.0472
  42
0
  0
VERTEX
  8
case
  10
2.9391
  20
2.0456
  42
0
  0
VERTEX
  8
case
  10
2.9643
  20
2.0405
  42
0
  0
VERTEX
  8
case
  10
2.9887
  20
2.0323
  42
0
  0
VERTEX
  8
case
  10
3.0118
  20
2.0209
  42
0
  0
VERTEX
  8
case
  10
3.0332
  20
2.0066
  42
0
  0
VERTEX
  8
case
  10
3.0526
  20
1.9896
  42
0
  0
VERTEX
  8
case
  10
3.0696
  20
1.9702
  42
0
  0
VERTEX
  8
case
  10
3.0839
  20
1.9488
  42
0
  0
VERTEX
  8
case
  10
3.0953
  20
1.9257
  42
0
  0
VERTEX
  8
case
  10
3.1035
  20
1.9013
  42
0
  0
VERTEX
  8
case
  10
3.1086
  20
1.8761
  42
0
  0
VERTEX
  8
case
  10
3.1102
  20
1.8504
  42
0
  0
VERTEX
  8
case
  10
3.1102
  20
1.8504
  42
0
  0
VERTEX
  8
case
  10
3.1086
  20
1.8247
  42
0
  0
VERTEX
  8
case
  10
3.1035
  20
1.7994
  42
0
  0
VERTEX
  8
case
  10
3.0953
  20
1.7751
  42
0
  0
VERTEX
  8
case
  10
3.0839
  20
1.752
  42
0
  0
VERTEX
  8
case
  10
3.0696
  20
1.7306
  42
0
  0
VERTEX
  8
case
  10
3.0526
  20
1.7112
  42
0
  0
VERTEX
  8
case
  10
3.0332
  20
1.6942
  42
0
  0
VERTEX
  8
case
  10
3.0118
  20
1.6799
  42
0
  0
VERTEX
  8
case
  10
2.9887
  20
1.6685
  42
0
  0
VERTEX
  8
case
  10
2.9643
  20
1.6603
  42
0
  0
VERTEX
  8
case
  10
2.9391
  20
1.6552
  42
0
  0
VERTEX
  8
case
  10
2.9134
  20
1.6535
  42
0
  0
VERTEX
  8
case
  10
2.8877
  20
1.6552
  42
0
  0
VERTEX
  8
case
  10
2.8624
  20
1.6603
  42
0
  0
VERTEX
  8
case
  10
2.8381
  20
1.6685
  42
0
  0
VERTEX
  8
case
  10
2.815
  20
1.6799
  42
0
  0
VERTEX
  8
case
  10
2.7936
  20
1.6942
  42
0
  0
VERTEX
  8
case
  10
2.7742
  20
1.7112
  42
0
  0
VERTEX
  8
case
  10
2.7572
  20
1.7306
  42
0
  0
VERTEX
  8
case
  10
2.7429
  20
1.752
  42
0
  0
VERTEX
  8
case
  10
2.7315
  20
1.7751
  42
0
  0
VERTEX
  8
case
  10
2.7232
  20
1.7994
  42
0
  0
VERTEX
  8
case
  10
2.7182
  20
1.8247
  42
0
  0
VERTEX
  8
case
  10
2.7165
  20
1.8504
  42
0
  0
VERTEX
  8
case
  10
2.7165
  20
1.8504
  42
0
  0
SEQEND
  0
POLYLINE
  8
case
  6
CONTINUOUS
  66
1
  70
0
  40
0.0047
  41
0.0047
  0
VERTEX
  8
case
  10
1.7717
  20
1.8504
  42
0
  0
VERTEX
  8
case
  10
1.7733
  20
1.8761
  42
0
  0
VERTEX
  8
case
  10
1.7784
  20
1.9013
  42
0
  0
VERTEX
  8
case
  10
1.7866
  20
1.9257
  42
0
  0
VERTEX
  8
case
  10
1.798
  20
1.9488
  42
0
  0
VERTEX
  8
case
  10
1.8123
  20
1.9702
  42
0
  0
VERTEX
  8
case
  10
1.8293
  20
1.9896
  42
0
  0
VERTEX
  8
case
  10
1.8487
  20
2.0066
  42
0
  0
VERTEX
  8
case
  10
1.8701
  20
2.0209
  42
0
  0
VERTEX
  8
case
  10
1.8932
  20
2.0323
  42
0
  0
VERTEX
  8
case
  10
1.9176
  20
2.0405
  42
0
  0
VERTEX
  8
case
  10
1.9428
  20
2.0456
  42
0
  0
VERTEX
  8
case
  10
1.9685
  20
2.0472
  42
0
  0
VERTEX
  8
case
  10
1.9942
  20
2.0456
  42
0
  0
VERTEX
  8
case
  10
2.0195
  20
2.0405
  42
0
  0
VERTEX
  8
case
  10
2.0438
  20
2.0323
  42
0
  0
VERTEX
  8
case
  10
2.0669
  20
2.0209
  42
0
  0
VERTEX
  8
case
  10
2.0883
  20
2.0066
  42
0
  0
VERTEX
  8
case
  10
2.1077
  20
1.9896
  42
0
  0
VERTEX
  8
case
  10
2.1247
  20
1.9702
  42
0
  0
VERTEX
  8
case
  10
2.139
  20
1.9488
  42
0
  0
VERTEX
  8
case
  10
2.1504
  20
1.9257
  42
0
  0
VERTEX
  8
case
  10
2.1586
  20
1.9013
  42
0
  0
VERTEX
  8
case
  10
2.1637
  20
1.8761
  42
0
  0
VERTEX
  8
case
  10
2.1654
  20
1.8504
  42
0
  0
VERTEX
  8
case
  10
2.1654
  20
1.8504
  42
0
  0
VERTEX
  8
case
  10
2.1637
  20
1.8247
  42
0
  0
VERTEX
  8
case
  10
2.1586
  20
1.7994
  42
0
  0
VERTEX
  8
case
  10
2.1504
  20
1.7751
  42
0
  0
VERTEX
  8
case
  10
2.139
  20
1.752
  42
0
  0
VERTEX
  8
case
  10
2.1247
  20
1.7306
  42
0
  0
VERTEX
  8
case
  10
2.1077
  20
1.7112
  42
0
  0
VERTEX
  8
case
  10
2.0883
  20
1.6942
  42
0
  0
VERTEX
  8
case
  10
2.0669
  20
1.6799
  42
0
  0
VERTEX
  8
case
  10
2.0438
  20
1.6685
  42
0
  0
VERTEX
  8
case
  10
2.0195
  20
1.6603
  42
0
  0
VERTEX
  8
case
  10
1.9942
  20
1.6552
  42
0
  0
VERTEX
  8
case
  10
1.9685
  20
1.6535
  42
0
  0
VERTEX
  8
case
  10
1.9428
  20
1.6552
  42
0
  0
VERTEX
  8
case
  10
1.9176
  20
1.6603
  42
0
  0
VERTEX
  8
case
  10
1.8932
  20
1.6685
  42
0
  0
VERTEX
  8
case
  10
1.8701
  20
1.6799
  42
0
  0
VERTEX
  8
case
  10
1.8487
  20
1.6942
  42
0
  0
VERTEX
  8
case
  10
1.8293
  20
1.7112
  42
0
  0
VERTEX
  8
case
  10
1.8123
  20
1.7306
  42
0
  0
VERTEX
  8
case
  10
1.798
  20
1.752
  42
0
  0
VERTEX
  8
case
  10
1.7866
  20
1.7751
  42
0
  0
VERTEX
  8
case
  10
1.7784
  20
1.7994
  42
0
  0
VERTEX
  8
case
  10
1.7733
  20
1.8247
  42
0
  0
VERTEX
  8
case
  10
1.7717
  20
1.8504
  42
0
  0
VERTEX
  8
case
  10
1.7717
  20
1.8504
  42
0
  0
SEQEND
  0
POLYLINE
  8
case
  6
CONTINUOUS
  66
1
  70
0
  40
0.0047
  41
0.0047
  0
VERTEX
  8
case
  10
2.2441
  20
1.378
  42
0
  0
VERTEX
  8
case
  10
2.2458
  20
1.4036
  42
0
  0
VERTEX
  8
case
  10
2.2508
  20
1.4289
  42
0
  0
VERTEX
  8
case
  10
2.2591
  20
1.4533
  42
0
  0
VERTEX
  8
case
  10
2.2705
  20
1.4764
  42
0
  0
VERTEX
  8
case
  10
2.2848
  20
1.4978
  42
0
  0
VERTEX
  8
case
  10
2.3018
  20
1.5171
  42
0
  0
VERTEX
  8
case
  10
2.3211
  20
1.5341
  42
0
  0
VERTEX
  8
case
  10
2.3425
  20
1.5484
  42
0
  0
VERTEX
  8
case
  10
2.3656
  20
1.5598
  42
0
  0
VERTEX
  8
case
  10
2.39
  20
1.5681
  42
0
  0
VERTEX
  8
case
  10
2.4153
  20
1.5731
  42
0
  0
VERTEX
  8
case
  10
2.4409
  20
1.5748
  42
0
  0
VERTEX
  8
case
  10
2.4666
  20
1.5731
  42
0
  0
VERTEX
  8
case
  10
2.4919
  20
1.5681
  42
0
  0
VERTEX
  8
case
  10
2.5163
  20
1.5598
  42
0
  0
VERTEX
  8
case
  10
2.5394
  20
1.5484
  42
0
  0
VERTEX
  8
case
  10
2.5608
  20
1.5341
  42
0
  0
VERTEX
  8
case
  10
2.5801
  20
1.5171
  42
0
  0
VERTEX
  8
case
  10
2.5971
  20
1.4978
  42
0
  0
VERTEX
  8
case
  10
2.6114
  20
1.4764
  42
0
  0
VERTEX
  8
case
  10
2.6228
  20
1.4533
  42
0
  0
VERTEX
  8
case
  10
2.6311
  20
1.4289
  42
0
  0
VERTEX
  8
case
  10
2.6361
  20
1.4036
  42
0
  0
VERTEX
  8
case
  10
2.6378
  20
1.378
  42
0
  0
VERTEX
  8
case
  10
2.6378
  20
1.378
  42
0
  0
VERTEX
  8
case
  10
2.6361
  20
1.3523
  42
0
  0
VERTEX
  8
case
  10
2.6311
  20
1.327
  42
0
  0
VERTEX
  8
case
  10
2.6228
  20
1.3026
  42
0
  0
VERTEX
  8
case
  10
2.6114
  20
1.2795
  42
0
  0
VERTEX
  8
case
  10
2.5971
  20
1.2581
  42
0
  0
VERTEX
  8
case
  10
2.5801
  20
1.2388
  42
0
  0
VERTEX
  8
case
  10
2.5608
  20
1.2218
  42
0
  0
VERTEX
  8
case
  10
2.5394
  20
1.2075
  42
0
  0
VERTEX
  8
case
  10
2.5163
  20
1.1961
  42
0
  0
VERTEX
  8
case
  10
2.4919
  20
1.1878
  42
0
  0
VERTEX
  8
case
  10
2.4666
  20
1.1828
  42
0
  0
VERTEX
  8
case
  10
2.4409
  20
1.1811
  42
0
  0
VERTEX
  8
case
  10
2.4153
  20
1.1828
  42
0
  0
VERTEX
  8
case
  10
2.39
  20
1.1878
  42
0
  0
VERTEX
  8
case
  10
2.3656
  20
1.1961
  42
0
  0
VERTEX
  8
case
  10
2.3425
  20
1.2075
  42
0
  0
VERTEX
  8
case
  10
2.3211
  20
1.2218
  42
0
  0
VERTEX
  8
case
  10
2.3018
  20
1.2388
  42
0
  0
VERTEX
  8
case
  10
2.2848
  20
1.2581
  42
0
  0
VERTEX
  8
case
  10
2.2705
  20
1.2795
  42
0
  0
VERTEX
  8
case
  10
2.2591
  20
1.3026
  42
0
  0
VERTEX
  8
case
  10
2.2508
  20
1.327
  42
0
  0
VERTEX
  8
case
  10
2.2458
  20
1.3523
  42
0
  0
VERTEX
  8
case
  10
2.2441
  20
1.378
  42
0
  0
VERTEX
  8
case
  10
2.2441
  20
1.378
  42
0
  0
SEQEND
  0
POLYLINE
  8
case
  6
CONTINUOUS
  66
1
  70
0
  40
0.0047
  41
0.0047
  0
VERTEX
  8
case
  10
1.0039
  20
0.5709
  42
0
  0
VERTEX
  8
case
  10
1.0048
  20
0.5837
  42
0
  0
VERTEX
  8
case
  10
1.0073
  20
0.5963
  42
0
  0
VERTEX
  8
case
  10
1.0114
  20
0.6085
  42
0
  0
VERTEX
  8
case
  10
1.0171
  20
0.6201
  42
0
  0
VERTEX
  8
case
  10
1.0243
  20
0.6308
  42
0
  0
VERTEX
  8
case
  10
1.0328
  20
0.6405
  42
0
  0
VERTEX
  8
case
  10
1.0424
  20
0.649
  42
0
  0
VERTEX
  8
case
  10
1.0531
  20
0.6561
  42
0
  0
VERTEX
  8
case
  10
1.0647
  20
0.6618
  42
0
  0
VERTEX
  8
case
  10
1.0769
  20
0.6659
  42
0
  0
VERTEX
  8
case
  10
1.0895
  20
0.6684
  42
0
  0
VERTEX
  8
case
  10
1.1024
  20
0.6693
  42
0
  0
VERTEX
  8
case
  10
1.1152
  20
0.6684
  42
0
  0
VERTEX
  8
case
  10
1.1278
  20
0.6659
  42
0
  0
VERTEX
  8
case
  10
1.14
  20
0.6618
  42
0
  0
VERTEX
  8
case
  10
1.1516
  20
0.6561
  42
0
  0
VERTEX
  8
case
  10
1.1623
  20
0.649
  42
0
  0
VERTEX
  8
case
  10
1.172
  20
0.6405
  42
0
  0
VERTEX
  8
case
  10
1.1804
  20
0.6308
  42
0
  0
VERTEX
  8
case
  10
1.1876
  20
0.6201
  42
0
  0
VERTEX
  8
case
  10
1.1933
  20
0.6085
  42
0
  0
VERTEX
  8
case
  10
1.1974
  20
0.5963
  42
0
  0
VERTEX
  8
case
  10
1.1999
  20
0.5837
  42
0
  0
VERTEX
  8
case
  10
1.2008
  20
0.5709
  42
0
  0
VERTEX
  8
case
  10
1.2008
  20
0.374
  42
0
  0
VERTEX
  8
case
  10
1.1999
  20
0.3612
  42
0
  0
VERTEX
  8
case
  10
1.1974
  20
0.3485
  42
0
  0
VERTEX
  8
case
  10
1.1933
  20
0.3364
  42
0
  0
VERTEX
  8
case
  10
1.1876
  20
0.3248
  42
0
  0
VERTEX
  8
case
  10
1.1804
  20
0.3141
  42
0
  0
VERTEX
  8
case
  10
1.172
  20
0.3044
  42
0
  0
VERTEX
  8
case
  10
1.1623
  20
0.2959
  42
0
  0
VERTEX
  8
case
  10
1.1516
  20
0.2888
  42
0
  0
VERTEX
  8
case
  10
1.14
  20
0.2831
  42
0
  0
VERTEX
  8
case
  10
1.1278
  20
0.2789
  42
0
  0
VERTEX
  8
case
  10
1.1152
  20
0.2764
  42
0
  0
VERTEX
  8
case
  10
1.1024
  20
0.2756
  42
0
  0
VERTEX
  8
case
  10
1.0895
  20
0.2764
  42
0
  0
VERTEX
  8
case
  10
1.0769
  20
0.2789
  42
0
  0
VERTEX
  8
case
  10
1.0647
  20
0.2831
  42
0
  0
VERTEX
  8
case
  10
1.0531
  20
0.2888
  42
0
  0
VERTEX
  8
case
  10
1.0424
  20
0.2959
  42
0
  0
VERTEX
  8
case
  10
1.0328
  20
0.3044
  42
0
  0
VERTEX
  8
case
  10
1.0243
  20
0.3141
  42
0
  0
VERTEX
  8
case
  10
1.0171
  20
0.3248
  42
0
  0
VERTEX
  8
case
  10
1.0114
  20
0.3364
  42
0
  0
VERTEX
  8
case
  10
1.0073
  20
0.3485
  42
0
  0
VERTEX
  8
case
  10
1.0048
  20
0.3612
  42
0
  0
VERTEX
  8
case
  10
1.0039
  20
0.374
  42
0
  0
VERTEX
  8
case
  10
1.0039
  20
0.5709
  42
0
  0
SEQEND
  0
POLYLINE
  8
case
  6
CONTINUOUS
  66
1
  70
0
  40
0.0047
  41
0.0047
  0
VERTEX
  8
case
  10
2.1063
  20
0.374
  42
0
  0
VERTEX
  8
case
  10
2.0935
  20
0.3749
  42
0
  0
VERTEX
  8
case
  10
2.0808
  20
0.3774
  42
0
  0
VERTEX
  8
case
  10
2.0686
  20
0.3815
  42
0
  0
VERTEX
  8
case
  10
2.0571
  20
0.3872
  42
0
  0
VERTEX
  8
case
  10
2.0464
  20
0.3944
  42
0
  0
VERTEX
  8
case
  10
2.0367
  20
0.4028
  42
0
  0
VERTEX
  8
case
  10
2.0282
  20
0.4125
  42
0
  0
VERTEX
  8
case
  10
2.0211
  20
0.4232
  42
0
  0
VERTEX
  8
case
  10
2.0154
  20
0.4348
  42
0
  0
VERTEX
  8
case
  10
2.0112
  20
0.447
  42
0
  0
VERTEX
  8
case
  10
2.0087
  20
0.4596
  42
0
  0
VERTEX
  8
case
  10
2.0079
  20
0.4724
  42
0
  0
VERTEX
  8
case
  10
2.0087
  20
0.4853
  42
0
  0
VERTEX
  8
case
  10
2.0112
  20
0.4979
  42
0
  0
VERTEX
  8
case
  10
2.0154
  20
0.5101
  42
0
  0
VERTEX
  8
case
  10
2.0211
  20
0.5217
  42
0
  0
VERTEX
  8
case
  10
2.0282
  20
0.5324
  42
0
  0
VERTEX
  8
case
  10
2.0367
  20
0.542
  42
0
  0
VERTEX
  8
case
  10
2.0464
  20
0.5505
  42
0
  0
VERTEX
  8
case
  10
2.0571
  20
0.5577
  42
0
  0
VERTEX
  8
case
  10
2.0686
  20
0.5634
  42
0
  0
VERTEX
  8
case
  10
2.0808
  20
0.5675
  42
0
  0
VERTEX
  8
case
  10
2.0935
  20
0.57
  42
0
  0
VERTEX
  8
case
  10
2.1063
  20
0.5709
  42
0
  0
VERTEX
  8
case
  10
2.3031
  20
0.5709
  42
0
  0
VERTEX
  8
case
  10
2.316
  20
0.57
  42
0
  0
VERTEX
  8
case
  10
2.3286
  20
0.5675
  42
0
  0
VERTEX
  8
case
  10
2.3408
  20
0.5634
  42
0
  0
VERTEX
  8
case
  10
2.3524
  20
0.5577
  42
0
  0
VERTEX
  8
case
  10
2.3631
  20
0.5505
  42
0
  0
VERTEX
  8
case
  10
2.3727
  20
0.542
  42
0
  0
VERTEX
  8
case
  10
2.3812
  20
0.5324
  42
0
  0
VERTEX
  8
case
  10
2.3884
  20
0.5217
  42
0
  0
VERTEX
  8
case
  10
2.3941
  20
0.5101
  42
0
  0
VERTEX
  8
case
  10
2.3982
  20
0.4979
  42
0
  0
VERTEX
  8
case
  10
2.4007
  20
0.4853
  42
0
  0
VERTEX
  8
case
  10
2.4016
  20
0.4724
  42
0
  0
VERTEX
  8
case
  10
2.4007
  20
0.4596
  42
0
  0
VERTEX
  8
case
  10
2.3982
  20
0.447
  42
0
  0
VERTEX
  8
case
  10
2.3941
  20
0.4348
  42
0
  0
VERTEX
  8
case
  10
2.3884
  20
0.4232
  42
0
  0
VERTEX
  8
case
  10
2.3812
  20
0.4125
  42
0
  0
VERTEX
  8
case
  10
2.3727
  20
0.4028
  42
0
  0
VERTEX
  8
case
  10
2.3631
  20
0.3944
  42
0
  0
VERTEX
  8
case
  10
2.3524
  20
0.3872
  42
0
  0
VERTEX
  8
case
  10
2.3408
  20
0.3815
  42
0
  0
VERTEX
  8
case
  10
2.3286
  20
0.3774
  42
0
  0
VERTEX
  8
case
  10
2.316
  20
0.3749
  42
0
  0
VERTEX
  8
case
  10
2.3031
  20
0.374
  42
0
  0
VERTEX
  8
case
  10
2.1063
  20
0.374
  42
0
  0
SEQEND
  0
POLYLINE
  8
case
  6
CONTINUOUS
  66
1
  70
0
  40
0.0047
  41
0.0047
  0
VERTEX
  8
case
  10
1.6142
  20
0.8465
  42
0
  0
VERTEX
  8
case
  10
1.6145
  20
0.8516
  42
0
  0
VERTEX
  8
case
  10
1.6155
  20
0.8566
  42
0
  0
VERTEX
  8
case
  10
1.6172
  20
0.8615
  42
0
  0
VERTEX
  8
case
  10
1.6194
  20
0.8661
  42
0
  0
VERTEX
  8
case
  10
1.6223
  20
0.8704
  42
0
  0
VERTEX
  8
case
  10
1.6257
  20
0.8743
  42
0
  0
VERTEX
  8
case
  10
1.6296
  20
0.8777
  42
0
  0
VERTEX
  8
case
  10
1.6339
  20
0.8806
  42
0
  0
VERTEX
  8
case
  10
1.6385
  20
0.8828
  42
0
  0
VERTEX
  8
case
  10
1.6434
  20
0.8845
  42
0
  0
VERTEX
  8
case
  10
1.6484
  20
0.8855
  42
0
  0
VERTEX
  8
case
  10
1.6535
  20
0.8858
  42
0
  0
VERTEX
  8
case
  10
1.6587
  20
0.8855
  42
0
  0
VERTEX
  8
case
  10
1.6637
  20
0.8845
  42
0
  0
VERTEX
  8
case
  10
1.6686
  20
0.8828
  42
0
  0
VERTEX
  8
case
  10
1.6732
  20
0.8806
  42
0
  0
VERTEX
  8
case
  10
1.6775
  20
0.8777
  42
0
  0
VERTEX
  8
case
  10
1.6814
  20
0.8743
  42
0
  0
VERTEX
  8
case
  10
1.6848
  20
0.8704
  42
0
  0
VERTEX
  8
case
  10
1.6876
  20
0.8661
  42
0
  0
VERTEX
  8
case
  10
1.6899
  20
0.8615
  42
0
  0
VERTEX
  8
case
  10
1.6916
  20
0.8566
  42
0
  0
VERTEX
  8
case
  10
1.6926
  20
0.8516
  42
0
  0
VERTEX
  8
case
  10
1.6929
  20
0.8465
  42
0
  0
VERTEX
  8
case
  10
1.6929
  20
0.8465
  42
0
  0
VERTEX
  8
case
  10
1.6926
  20
0.8413
  42
0
  0
VERTEX
  8
case
  10
1.6916
  20
0.8363
  42
0
  0
VERTEX
  8
case
  10
1.6899
  20
0.8314
  42
0
  0
VERTEX
  8
case
  10
1.6876
  20
0.8268
  42
0
  0
VERTEX
  8
case
  10
1.6848
  20
0.8225
  42
0
  0
VERTEX
  8
case
  10
1.6814
  20
0.8186
  42
0
  0
VERTEX
  8
case
  10
1.6775
  20
0.8152
  42
0
  0
VERTEX
  8
case
  10
1.6732
  20
0.8124
  42
0
  0
VERTEX
  8
case
  10
1.6686
  20
0.8101
  42
0
  0
VERTEX
  8
case
  10
1.6637
  20
0.8084
  42
0
  0
VERTEX
  8
case
  10
1.6587
  20
0.8074
  42
0
  0
VERTEX
  8
case
  10
1.6535
  20
0.8071
  42
0
  0
VERTEX
  8
case
  10
1.6484
  20
0.8074
  42
0
  0
VERTEX
  8
case
  10
1.6434
  20
0.8084
  42
0
  0
VERTEX
  8
case
  10
1.6385
  20
0.8101
  42
0
  0
VERTEX
  8
case
  10
1.6339
  20
0.8124
  42
0
  0
VERTEX
  8
case
  10
1.6296
  20
0.8152
  42
0
  0
VERTEX
  8
case
  10
1.6257
  20
0.8186
  42
0
  0
VERTEX
  8
case
  10
1.6223
  20
0.8225
  42
0
  0
VERTEX
  8
case
  10
1.6194
  20
0.8268
  42
0
  0
VERTEX
  8
case
  10
1.6172
  20
0.8314
  42
0
  0
VERTEX
  8
case
  10
1.6155
  20
0.8363
  42
0
  0
VERTEX
  8
case
  10
1.6145
  20
0.8413
  42
0
  0
VERTEX
  8
case
  10
1.6142
  20
0.8465
  42
0
  0
VERTEX
  8
case
  10
1.6142
  20
0.8465
  42
0
  0
SEQEND
  0
POLYLINE
  8
case
  6
CONTINUOUS
  66
1
  70
0
  40
0.0047
  41
0.0047
  0
VERTEX
  8
case
  10
1.811
  20
0.8465
  42
0
  0
VERTEX
  8
case
  10
1.8114
  20
0.8516
  42
0
  0
VERTEX
  8
case
  10
1.8124
  20
0.8566
  42
0
  0
VERTEX
  8
case
  10
1.814
  20
0.8615
  42
0
  0
VERTEX
  8
case
  10
1.8163
  20
0.8661
  42
0
  0
VERTEX
  8
case
  10
1.8192
  20
0.8704
  42
0
  0
VERTEX
  8
case
  10
1.8226
  20
0.8743
  42
0
  0
VERTEX
  8
case
  10
1.8264
  20
0.8777
  42
0
  0
VERTEX
  8
case
  10
1.8307
  20
0.8806
  42
0
  0
VERTEX
  8
case
  10
1.8353
  20
0.8828
  42
0
  0
VERTEX
  8
case
  10
1.8402
  20
0.8845
  42
0
  0
VERTEX
  8
case
  10
1.8453
  20
0.8855
  42
0
  0
VERTEX
  8
case
  10
1.8504
  20
0.8858
  42
0
  0
VERTEX
  8
case
  10
1.8555
  20
0.8855
  42
0
  0
VERTEX
  8
case
  10
1.8606
  20
0.8845
  42
0
  0
VERTEX
  8
case
  10
1.8655
  20
0.8828
  42
0
  0
VERTEX
  8
case
  10
1.8701
  20
0.8806
  42
0
  0
VERTEX
  8
case
  10
1.8744
  20
0.8777
  42
0
  0
VERTEX
  8
case
  10
1.8782
  20
0.8743
  42
0
  0
VERTEX
  8
case
  10
1.8816
  20
0.8704
  42
0
  0
VERTEX
  8
case
  10
1.8845
  20
0.8661
  42
0
  0
VERTEX
  8
case
  10
1.8868
  20
0.8615
  42
0
  0
VERTEX
  8
case
  10
1.8884
  20
0.8566
  42
0
  0
VERTEX
  8
case
  10
1.8894
  20
0.8516
  42
0
  0
VERTEX
  8
case
  10
1.8898
  20
0.8465
  42
0
  0
VERTEX
  8
case
  10
1.8898
  20
0.8465
  42
0
  0
VERTEX
  8
case
  10
1.8894
  20
0.8413
  42
0
  0
VERTEX
  8
case
  10
1.8884
  20
0.8363
  42
0
  0
VERTEX
  8
case
  10
1.8868
  20
0.8314
  42
0
  0
VERTEX
  8
case
  10
1.8845
  20
0.8268
  42
0
  0
VERTEX
  8
case
  10
1.8816
  20
0.8225
  42
0
  0
VERTEX
  8
case
  10
1.8782
  20
0.8186
  42
0
  0
VERTEX
  8
case
  10
1.8744
  20
0.8152
  42
0
  0
VERTEX
  8
case
  10
1.8701
  20
0.8124
  42
0
  0
VERTEX
  8
case
  10
1.8655
  20
0.8101
  42
0
  0
VERTEX
  8
case
  10
1.8606
  20
0.8084
  42
0
  0
VERTEX
  8
case
  10
1.8555
  20
0.8074
  42
0
  0
VERTEX
  8
case
  10
1.8504
  20
0.8071
  42
0
  0
VERTEX
  8
case
  10
1.8453
  20
0.8074
  42
0
  0
VERTEX
  8
case
  10
1.8402
  20
0.8084
  42
0
  0
VERTEX
  8
case
  10
1.8353
  20
0.8101
  42
0
  0
VERTEX
  8
case
  10
1.8307
  20
0.8124
  42
0
  0
VERTEX
  8
case
  10
1.8264
  20
0.8152
  42
0
  0
VERTEX
  8
case
  10
1.8226
  20
0.8186
  42
0
  0
VERTEX
  8
case
  10
1.8192
  20
0.8225
  42
0
  0
VERTEX
  8
case
  10
1.8163
  20
0.8268
  42
0
  0
VERTEX
  8
case
  10
1.814
  20
0.8314
  42
0
  0
VERTEX
  8
case
  10
1.8124
  20
0.8363
  42
0
  0
VERTEX
  8
case
  10
1.8114
  20
0.8413
  42
0
  0
VERTEX
  8
case
  10
1.811
  20
0.8465
  42
0
  0
VERTEX
  8
case
  10
1.811
  20
0.8465
  42
0
  0
SEQEND
  0
POLYLINE
  8
case
  6
CONTINUOUS
  66
1
  70
0
  40
0.0047
  41
0.0047
  0
VERTEX
  8
case
  10
1.4173
  20
0.8465
  42
0
  0
VERTEX
  8
case
  10
1.4177
  20
0.8516
  42
0
  0
VERTEX
  8
case
  10
1.4187
  20
0.8566
  42
0
  0
VERTEX
  8
case
  10
1.4203
  20
0.8615
  42
0
  0
VERTEX
  8
case
  10
1.4226
  20
0.8661
  42
0
  0
VERTEX
  8
case
  10
1.4255
  20
0.8704
  42
0
  0
VERTEX
  8
case
  10
1.4289
  20
0.8743
  42
0
  0
VERTEX
  8
case
  10
1.4327
  20
0.8777
  42
0
  0
VERTEX
  8
case
  10
1.437
  20
0.8806
  42
0
  0
VERTEX
  8
case
  10
1.4416
  20
0.8828
  42
0
  0
VERTEX
  8
case
  10
1.4465
  20
0.8845
  42
0
  0
VERTEX
  8
case
  10
1.4516
  20
0.8855
  42
0
  0
VERTEX
  8
case
  10
1.4567
  20
0.8858
  42
0
  0
VERTEX
  8
case
  10
1.4618
  20
0.8855
  42
0
  0
VERTEX
  8
case
  10
1.4669
  20
0.8845
  42
0
  0
VERTEX
  8
case
  10
1.4718
  20
0.8828
  42
0
  0
VERTEX
  8
case
  10
1.4764
  20
0.8806
  42
0
  0
VERTEX
  8
case
  10
1.4807
  20
0.8777
  42
0
  0
VERTEX
  8
case
  10
1.4845
  20
0.8743
  42
0
  0
VERTEX
  8
case
  10
1.4879
  20
0.8704
  42
0
  0
VERTEX
  8
case
  10
1.4908
  20
0.8661
  42
0
  0
VERTEX
  8
case
  10
1.4931
  20
0.8615
  42
0
  0
VERTEX
  8
case
  10
1.4947
  20
0.8566
  42
0
  0
VERTEX
  8
case
  10
1.4957
  20
0.8516
  42
0
  0
VERTEX
  8
case
  10
1.4961
  20
0.8465
  42
0
  0
VERTEX
  8
case
  10
1.4961
  20
0.8465
  42
0
  0
VERTEX
  8
case
  10
1.4957
  20
0.8413
  42
0
  0
VERTEX
  8
case
  10
1.4947
  20
0.8363
  42
0
  0
VERTEX
  8
case
  10
1.4931
  20
0.8314
  42
0
  0
VERTEX
  8
case
  10
1.4908
  20
0.8268
  42
0
  0
VERTEX
  8
case
  10
1.4879
  20
0.8225
  42
0
  0
VERTEX
  8
case
  10
1.4845
  20
0.8186
  42
0
  0
VERTEX
  8
case
  10
1.4807
  20
0.8152
  42
0
  0
VERTEX
  8
case
  10
1.4764
  20
0.8124
  42
0
  0
VERTEX
  8
case
  10
1.4718
  20
0.8101
  42
0
  0
VERTEX
  8
case
  10
1.4669
  20
0.8084
  42
0
  0
VERTEX
  8
case
  10
1.4618
  20
0.8074
  42
0
  0
VERTEX
  8
case
  10
1.4567
  20
0.8071
  42
0
  0
VERTEX
  8
case
  10
1.4516
  20
0.8074
  42
0
  0
VERTEX
  8
case
  10
1.4465
  20
0.8084
  42
0
  0
VERTEX
  8
case
  10
1.4416
  20
0.8101
  42
0
  0
VERTEX
  8
case
  10
1.437
  20
0.8124
  42
0
  0
VERTEX
  8
case
  10
1.4327
  20
0.8152
  42
0
  0
VERTEX
  8
case
  10
1.4289
  20
0.8186
  42
0
  0
VERTEX
  8
case
  10
1.4255
  20
0.8225
  42
0
  0
VERTEX
  8
case
  10
1.4226
  20
0.8268
  42
0
  0
VERTEX
  8
case
  10
1.4203
  20
0.8314
  42
0
  0
VERTEX
  8
case
  10
1.4187
  20
0.8363
  42
0
  0
VERTEX
  8
case
  10
1.4177
  20
0.8413
  42
0
  0
VERTEX
  8
case
  10
1.4173
  20
0.8465
  42
0
  0
VERTEX
  8
case
  10
1.4173
  20
0.8465
  42
0
  0
SEQEND
  0
POLYLINE
  8
case
  6
CONTINUOUS
  66
1
  70
0
  40
0.0047
  41
0.0047
  0
VERTEX
  8
case
  10
1.7126
  20
0.9449
  42
0
  0
VERTEX
  8
case
  10
1.7129
  20
0.95
  42
0
  0
VERTEX
  8
case
  10
1.7139
  20
0.9551
  42
0
  0
VERTEX
  8
case
  10
1.7156
  20
0.9599
  42
0
  0
VERTEX
  8
case
  10
1.7179
  20
0.9646
  42
0
  0
VERTEX
  8
case
  10
1.7207
  20
0.9688
  42
0
  0
VERTEX
  8
case
  10
1.7241
  20
0.9727
  42
0
  0
VERTEX
  8
case
  10
1.728
  20
0.9761
  42
0
  0
VERTEX
  8
case
  10
1.7323
  20
0.979
  42
0
  0
VERTEX
  8
case
  10
1.7369
  20
0.9813
  42
0
  0
VERTEX
  8
case
  10
1.7418
  20
0.9829
  42
0
  0
VERTEX
  8
case
  10
1.7468
  20
0.9839
  42
0
  0
VERTEX
  8
case
  10
1.752
  20
0.9843
  42
0
  0
VERTEX
  8
case
  10
1.7571
  20
0.9839
  42
0
  0
VERTEX
  8
case
  10
1.7622
  20
0.9829
  42
0
  0
VERTEX
  8
case
  10
1.767
  20
0.9813
  42
0
  0
VERTEX
  8
case
  10
1.7717
  20
0.979
  42
0
  0
VERTEX
  8
case
  10
1.7759
  20
0.9761
  42
0
  0
VERTEX
  8
case
  10
1.7798
  20
0.9727
  42
0
  0
VERTEX
  8
case
  10
1.7832
  20
0.9688
  42
0
  0
VERTEX
  8
case
  10
1.7861
  20
0.9646
  42
0
  0
VERTEX
  8
case
  10
1.7883
  20
0.9599
  42
0
  0
VERTEX
  8
case
  10
1.79
  20
0.9551
  42
0
  0
VERTEX
  8
case
  10
1.791
  20
0.95
  42
0
  0
VERTEX
  8
case
  10
1.7913
  20
0.9449
  42
0
  0
VERTEX
  8
case
  10
1.7913
  20
0.9449
  42
0
  0
VERTEX
  8
case
  10
1.791
  20
0.9397
  42
0
  0
VERTEX
  8
case
  10
1.79
  20
0.9347
  42
0
  0
VERTEX
  8
case
  10
1.7883
  20
0.9298
  42
0
  0
VERTEX
  8
case
  10
1.7861
  20
0.9252
  42
0
  0
VERTEX
  8
case
  10
1.7832
  20
0.9209
  42
0
  0
VERTEX
  8
case
  10
1.7798
  20
0.917
  42
0
  0
VERTEX
  8
case
  10
1.7759
  20
0.9136
  42
0
  0
VERTEX
  8
case
  10
1.7717
  20
0.9108
  42
0
  0
VERTEX
  8
case
  10
1.767
  20
0.9085
  42
0
  0
VERTEX
  8
case
  10
1.7622
  20
0.9069
  42
0
  0
VERTEX
  8
case
  10
1.7571
  20
0.9058
  42
0
  0
VERTEX
  8
case
  10
1.752
  20
0.9055
  42
0
  0
VERTEX
  8
case
  10
1.7468
  20
0.9058
  42
0
  0
VERTEX
  8
case
  10
1.7418
  20
0.9069
  42
0
  0
VERTEX
  8
case
  10
1.7369
  20
0.9085
  42
0
  0
VERTEX
  8
case
  10
1.7323
  20
0.9108
  42
0
  0
VERTEX
  8
case
  10
1.728
  20
0.9136
  42
0
  0
VERTEX
  8
case
  10
1.7241
  20
0.917
  42
0
  0
VERTEX
  8
case
  10
1.7207
  20
0.9209
  42
0
  0
VERTEX
  8
case
  10
1.7179
  20
0.9252
  42
0
  0
VERTEX
  8
case
  10
1.7156
  20
0.9298
  42
0
  0
VERTEX
  8
case
  10
1.7139
  20
0.9347
  42
0
  0
VERTEX
  8
case
  10
1.7129
  20
0.9397
  42
0
  0
VERTEX
  8
case
  10
1.7126
  20
0.9449
  42
0
  0
VERTEX
  8
case
  10
1.7126
  20
0.9449
  42
0
  0
SEQEND
  0
POLYLINE
  8
case
  6
CONTINUOUS
  66
1
  70
0
  40
0.0047
  41
0.0047
  0
VERTEX
  8
case
  10
1.9094
  20
0.9449
  42
0
  0
VERTEX
  8
case
  10
1.9098
  20
0.95
  42
0
  0
VERTEX
  8
case
  10
1.9108
  20
0.9551
  42
0
  0
VERTEX
  8
case
  10
1.9124
  20
0.9599
  42
0
  0
VERTEX
  8
case
  10
1.9147
  20
0.9646
  42
0
  0
VERTEX
  8
case
  10
1.9176
  20
0.9688
  42
0
  0
VERTEX
  8
case
  10
1.921
  20
0.9727
  42
0
  0
VERTEX
  8
case
  10
1.9249
  20
0.9761
  42
0
  0
VERTEX
  8
case
  10
1.9291
  20
0.979
  42
0
  0
VERTEX
  8
case
  10
1.9338
  20
0.9813
  42
0
  0
VERTEX
  8
case
  10
1.9386
  20
0.9829
  42
0
  0
VERTEX
  8
case
  10
1.9437
  20
0.9839
  42
0
  0
VERTEX
  8
case
  10
1.9488
  20
0.9843
  42
0
  0
VERTEX
  8
case
  10
1.954
  20
0.9839
  42
0
  0
VERTEX
  8
case
  10
1.959
  20
0.9829
  42
0
  0
VERTEX
  8
case
  10
1.9639
  20
0.9813
  42
0
  0
VERTEX
  8
case
  10
1.9685
  20
0.979
  42
0
  0
VERTEX
  8
case
  10
1.9728
  20
0.9761
  42
0
  0
VERTEX
  8
case
  10
1.9767
  20
0.9727
  42
0
  0
VERTEX
  8
case
  10
1.9801
  20
0.9688
  42
0
  0
VERTEX
  8
case
  10
1.9829
  20
0.9646
  42
0
  0
VERTEX
  8
case
  10
1.9852
  20
0.9599
  42
0
  0
VERTEX
  8
case
  10
1.9868
  20
0.9551
  42
0
  0
VERTEX
  8
case
  10
1.9879
  20
0.95
  42
0
  0
VERTEX
  8
case
  10
1.9882
  20
0.9449
  42
0
  0
VERTEX
  8
case
  10
1.9882
  20
0.9449
  42
0
  0
VERTEX
  8
case
  10
1.9879
  20
0.9397
  42
0
  0
VERTEX
  8
case
  10
1.9868
  20
0.9347
  42
0
  0
VERTEX
  8
case
  10
1.9852
  20
0.9298
  42
0
  0
VERTEX
  8
case
  10
1.9829
  20
0.9252
  42
0
  0
VERTEX
  8
case
  10
1.9801
  20
0.9209
  42
0
  0
VERTEX
  8
case
  10
1.9767
  20
0.917
  42
0
  0
VERTEX
  8
case
  10
1.9728
  20
0.9136
  42
0
  0
VERTEX
  8
case
  10
1.9685
  20
0.9108
  42
0
  0
VERTEX
  8
case
  10
1.9639
  20
0.9085
  42
0
  0
VERTEX
  8
case
  10
1.959
  20
0.9069
  42
0
  0
VERTEX
  8
case
  10
1.954
  20
0.9058
  42
0
  0
VERTEX
  8
case
  10
1.9488
  20
0.9055
  42
0
  0
VERTEX
  8
case
  10
1.9437
  20
0.9058
  42
0
  0
VERTEX
  8
case
  10
1.9386
  20
0.9069
  42
0
  0
VERTEX
  8
case
  10
1.9338
  20
0.9085
  42
0
  0
VERTEX
  8
case
  10
1.9291
  20
0.9108
  42
0
  0
VERTEX
  8
case
  10
1.9249
  20
0.9136
  42
0
  0
VERTEX
  8
case
  10
1.921
  20
0.917
  42
0
  0
VERTEX
  8
case
  10
1.9176
  20
0.9209
  42
0
  0
VERTEX
  8
case
  10
1.9147
  20
0.9252
  42
0
  0
VERTEX
  8
case
  10
1.9124
  20
0.9298
  42
0
  0
VERTEX
  8
case
  10
1.9108
  20
0.9347
  42
0
  0
VERTEX
  8
case
  10
1.9098
  20
0.9397
  42
0
  0
VERTEX
  8
case
  10
1.9094
  20
0.9449
  42
0
  0
VERTEX
  8
case
  10
1.9094
  20
0.9449
  42
0
  0
SEQEND
  0
POLYLINE
  8
case
  6
CONTINUOUS
  66
1
  70
0
  40
0.0047
  41
0.0047
  0
VERTEX
  8
case
  10
1.3189
  20
0.9449
  42
0
  0
VERTEX
  8
case
  10
1.3192
  20
0.95
  42
0
  0
VERTEX
  8
case
  10
1.3202
  20
0.9551
  42
0
  0
VERTEX
  8
case
  10
1.3219
  20
0.9599
  42
0
  0
VERTEX
  8
case
  10
1.3242
  20
0.9646
  42
0
  0
VERTEX
  8
case
  10
1.327
  20
0.9688
  42
0
  0
VERTEX
  8
case
  10
1.3304
  20
0.9727
  42
0
  0
VERTEX
  8
case
  10
1.3343
  20
0.9761
  42
0
  0
VERTEX
  8
case
  10
1.3386
  20
0.979
  42
0
  0
VERTEX
  8
case
  10
1.3432
  20
0.9813
  42
0
  0
VERTEX
  8
case
  10
1.3481
  20
0.9829
  42
0
  0
VERTEX
  8
case
  10
1.3531
  20
0.9839
  42
0
  0
VERTEX
  8
case
  10
1.3583
  20
0.9843
  42
0
  0
VERTEX
  8
case
  10
1.3634
  20
0.9839
  42
0
  0
VERTEX
  8
case
  10
1.3685
  20
0.9829
  42
0
  0
VERTEX
  8
case
  10
1.3733
  20
0.9813
  42
0
  0
VERTEX
  8
case
  10
1.378
  20
0.979
  42
0
  0
VERTEX
  8
case
  10
1.3822
  20
0.9761
  42
0
  0
VERTEX
  8
case
  10
1.3861
  20
0.9727
  42
0
  0
VERTEX
  8
case
  10
1.3895
  20
0.9688
  42
0
  0
VERTEX
  8
case
  10
1.3924
  20
0.9646
  42
0
  0
VERTEX
  8
case
  10
1.3946
  20
0.9599
  42
0
  0
VERTEX
  8
case
  10
1.3963
  20
0.9551
  42
0
  0
VERTEX
  8
case
  10
1.3973
  20
0.95
  42
0
  0
VERTEX
  8
case
  10
1.3976
  20
0.9449
  42
0
  0
VERTEX
  8
case
  10
1.3976
  20
0.9449
  42
0
  0
VERTEX
  8
case
  10
1.3973
  20
0.9397
  42
0
  0
VERTEX
  8
case
  10
1.3963
  20
0.9347
  42
0
  0
VERTEX
  8
case
  10
1.3946
  20
0.9298
  42
0
  0
VERTEX
  8
case
  10
1.3924
  20
0.9252
  42
0
  0
VERTEX
  8
case
  10
1.3895
  20
0.9209
  42
0
  0
VERTEX
  8
case
  10
1.3861
  20
0.917
  42
0
  0
VERTEX
  8
case
  10
1.3822
  20
0.9136
  42
0
  0
VERTEX
  8
case
  10
1.378
  20
0.9108
  42
0
  0
VERTEX
  8
case
  10
1.3733
  20
0.9085
  42
0
  0
VERTEX
  8
case
  10
1.3685
  20
0.9069
  42
0
  0
VERTEX
  8
case
  10
1.3634
  20
0.9058
  42
0
  0
VERTEX
  8
case
  10
1.3583
  20
0.9055
  42
0
  0
VERTEX
  8
case
  10
1.3531
  20
0.9058
  42
0
  0
VERTEX
  8
case
  10
1.3481
  20
0.9069
  42
0
  0
VERTEX
  8
case
  10
1.3432
  20
0.9085
  42
0
  0
VERTEX
  8
case
  10
1.3386
  20
0.9108
  42
0
  0
VERTEX
  8
case
  10
1.3343
  20
0.9136
  42
0
  0
VERTEX
  8
case
  10
1.3304
  20
0.917
  42
0
  0
VERTEX
  8
case
  10
1.327
  20
0.9209
  42
0
  0
VERTEX
  8
case
  10
1.3242
  20
0.9252
  42
0
  0
VERTEX
  8
case
  10
1.3219
  20
0.9298
  42
0
  0
VERTEX
  8
case
  10
1.3202
  20
0.9347
  42
0
  0
VERTEX
  8
case
  10
1.3192
  20
0.9397
  42
0
  0
VERTEX
  8
case
  10
1.3189
  20
0.9449
  42
0
  0
VERTEX
  8
case
  10
1.3189
  20
0.9449
  42
0
  0
SEQEND
  0
POLYLINE
  8
case
  6
CONTINUOUS
  66
1
  70
0
  40
0.0047
  41
0.0047
  0
VERTEX
  8
case
  10
1.5157
  20
0.9449
  42
0
  0
VERTEX
  8
case
  10
1.5161
  20
0.95
  42
0
  0
VERTEX
  8
case
  10
1.5171
  20
0.9551
  42
0
  0
VERTEX
  8
case
  10
1.5187
  20
0.9599
  42
0
  0
VERTEX
  8
case
  10
1.521
  20
0.9646
  42
0
  0
VERTEX
  8
case
  10
1.5239
  20
0.9688
  42
0
  0
VERTEX
  8
case
  10
1.5273
  20
0.9727
  42
0
  0
VERTEX
  8
case
  10
1.5312
  20
0.9761
  42
0
  0
VERTEX
  8
case
  10
1.5354
  20
0.979
  42
0
  0
VERTEX
  8
case
  10
1.5401
  20
0.9813
  42
0
  0
VERTEX
  8
case
  10
1.5449
  20
0.9829
  42
0
  0
VERTEX
  8
case
  10
1.55
  20
0.9839
  42
0
  0
VERTEX
  8
case
  10
1.5551
  20
0.9843
  42
0
  0
VERTEX
  8
case
  10
1.5603
  20
0.9839
  42
0
  0
VERTEX
  8
case
  10
1.5653
  20
0.9829
  42
0
  0
VERTEX
  8
case
  10
1.5702
  20
0.9813
  42
0
  0
VERTEX
  8
case
  10
1.5748
  20
0.979
  42
0
  0
VERTEX
  8
case
  10
1.5791
  20
0.9761
  42
0
  0
VERTEX
  8
case
  10
1.583
  20
0.9727
  42
0
  0
VERTEX
  8
case
  10
1.5864
  20
0.9688
  42
0
  0
VERTEX
  8
case
  10
1.5892
  20
0.9646
  42
0
  0
VERTEX
  8
case
  10
1.5915
  20
0.9599
  42
0
  0
VERTEX
  8
case
  10
1.5931
  20
0.9551
  42
0
  0
VERTEX
  8
case
  10
1.5942
  20
0.95
  42
0
  0
VERTEX
  8
case
  10
1.5945
  20
0.9449
  42
0
  0
VERTEX
  8
case
  10
1.5945
  20
0.9449
  42
0
  0
VERTEX
  8
case
  10
1.5942
  20
0.9397
  42
0
  0
VERTEX
  8
case
  10
1.5931
  20
0.9347
  42
0
  0
VERTEX
  8
case
  10
1.5915
  20
0.9298
  42
0
  0
VERTEX
  8
case
  10
1.5892
  20
0.9252
  42
0
  0
VERTEX
  8
case
  10
1.5864
  20
0.9209
  42
0
  0
VERTEX
  8
case
  10
1.583
  20
0.917
  42
0
  0
VERTEX
  8
case
  10
1.5791
  20
0.9136
  42
0
  0
VERTEX
  8
case
  10
1.5748
  20
0.9108
  42
0
  0
VERTEX
  8
case
  10
1.5702
  20
0.9085
  42
0
  0
VERTEX
  8
case
  10
1.5653
  20
0.9069
  42
0
  0
VERTEX
  8
case
  10
1.5603
  20
0.9058
  42
0
  0
VERTEX
  8
case
  10
1.5551
  20
0.9055
  42
0
  0
VERTEX
  8
case
  10
1.55
  20
0.9058
  42
0
  0
VERTEX
  8
case
  10
1.5449
  20
0.9069
  42
0
  0
VERTEX
  8
case
  10
1.5401
  20
0.9085
  42
0
  0
VERTEX
  8
case
  10
1.5354
  20
0.9108
  42
0
  0
VERTEX
  8
case
  10
1.5312
  20
0.9136
  42
0
  0
VERTEX
  8
case
  10
1.5273
  20
0.917
  42
0
  0
VERTEX
  8
case
  10
1.5239
  20
0.9209
  42
0
  0
VERTEX
  8
case
  10
1.521
  20
0.9252
  42
0
  0
VERTEX
  8
case
  10
1.5187
  20
0.9298
  42
0
  0
VERTEX
  8
case
  10
1.5171
  20
0.9347
  42
0
  0
VERTEX
  8
case
  10
1.5161
  20
0.9397
  42
0
  0
VERTEX
  8
case
  10
1.5157
  20
0.9449
  42
0
  0
VERTEX
  8
case
  10
1.5157
  20
0.9449
  42
0
  0
SEQEND
  0
POLYLINE
  8
case
  6
CONTINUOUS
  66
1
  70
0
  40
0.0047
  41
0.0047
  0
VERTEX
  8
case
  10
1.6142
  20
1.0433
  42
0
  0
VERTEX
  8
case
  10
1.6145
  20
1.0484
  42
0
  0
VERTEX
  8
case
  10
1.6155
  20
1.0535
  42
0
  0
VERTEX
  8
case
  10
1.6172
  20
1.0584
  42
0
  0
VERTEX
  8
case
  10
1.6194
  20
1.063
  42
0
  0
VERTEX
  8
case
  10
1.6223
  20
1.0673
  42
0
  0
VERTEX
  8
case
  10
1.6257
  20
1.0711
  42
0
  0
VERTEX
  8
case
  10
1.6296
  20
1.0745
  42
0
  0
VERTEX
  8
case
  10
1.6339
  20
1.0774
  42
0
  0
VERTEX
  8
case
  10
1.6385
  20
1.0797
  42
0
  0
VERTEX
  8
case
  10
1.6434
  20
1.0813
  42
0
  0
VERTEX
  8
case
  10
1.6484
  20
1.0823
  42
0
  0
VERTEX
  8
case
  10
1.6535
  20
1.0827
  42
0
  0
VERTEX
  8
case
  10
1.6587
  20
1.0823
  42
0
  0
VERTEX
  8
case
  10
1.6637
  20
1.0813
  42
0
  0
VERTEX
  8
case
  10
1.6686
  20
1.0797
  42
0
  0
VERTEX
  8
case
  10
1.6732
  20
1.0774
  42
0
  0
VERTEX
  8
case
  10
1.6775
  20
1.0745
  42
0
  0
VERTEX
  8
case
  10
1.6814
  20
1.0711
  42
0
  0
VERTEX
  8
case
  10
1.6848
  20
1.0673
  42
0
  0
VERTEX
  8
case
  10
1.6876
  20
1.063
  42
0
  0
VERTEX
  8
case
  10
1.6899
  20
1.0584
  42
0
  0
VERTEX
  8
case
  10
1.6916
  20
1.0535
  42
0
  0
VERTEX
  8
case
  10
1.6926
  20
1.0484
  42
0
  0
VERTEX
  8
case
  10
1.6929
  20
1.0433
  42
0
  0
VERTEX
  8
case
  10
1.6929
  20
1.0433
  42
0
  0
VERTEX
  8
case
  10
1.6926
  20
1.0382
  42
0
  0
VERTEX
  8
case
  10
1.6916
  20
1.0331
  42
0
  0
VERTEX
  8
case
  10
1.6899
  20
1.0282
  42
0
  0
VERTEX
  8
case
  10
1.6876
  20
1.0236
  42
0
  0
VERTEX
  8
case
  10
1.6848
  20
1.0193
  42
0
  0
VERTEX
  8
case
  10
1.6814
  20
1.0155
  42
0
  0
VERTEX
  8
case
  10
1.6775
  20
1.0121
  42
0
  0
VERTEX
  8
case
  10
1.6732
  20
1.0092
  42
0
  0
VERTEX
  8
case
  10
1.6686
  20
1.0069
  42
0
  0
VERTEX
  8
case
  10
1.6637
  20
1.0053
  42
0
  0
VERTEX
  8
case
  10
1.6587
  20
1.0043
  42
0
  0
VERTEX
  8
case
  10
1.6535
  20
1.0039
  42
0
  0
VERTEX
  8
case
  10
1.6484
  20
1.0043
  42
0
  0
VERTEX
  8
case
  10
1.6434
  20
1.0053
  42
0
  0
VERTEX
  8
case
  10
1.6385
  20
1.0069
  42
0
  0
VERTEX
  8
case
  10
1.6339
  20
1.0092
  42
0
  0
VERTEX
  8
case
  10
1.6296
  20
1.0121
  42
0
  0
VERTEX
  8
case
  10
1.6257
  20
1.0155
  42
0
  0
VERTEX
  8
case
  10
1.6223
  20
1.0193
  42
0
  0
VERTEX
  8
case
  10
1.6194
  20
1.0236
  42
0
  0
VERTEX
  8
case
  10
1.6172
  20
1.0282
  42
0
  0
VERTEX
  8
case
  10
1.6155
  20
1.0331
  42
0
  0
VERTEX
  8
case
  10
1.6145
  20
1.0382
  42
0
  0
VERTEX
  8
case
  10
1.6142
  20
1.0433
  42
0
  0
VERTEX
  8
case
  10
1.6142
  20
1.0433
  42
0
  0
SEQEND
  0
POLYLINE
  8
case
  6
CONTINUOUS
  66
1
  70
0
  40
0.0047
  41
0.0047
  0
VERTEX
  8
case
  10
1.811
  20
1.0433
  42
0
  0
VERTEX
  8
case
  10
1.8114
  20
1.0484
  42
0
  0
VERTEX
  8
case
  10
1.8124
  20
1.0535
  42
0
  0
VERTEX
  8
case
  10
1.814
  20
1.0584
  42
0
  0
VERTEX
  8
case
  10
1.8163
  20
1.063
  42
0
  0
VERTEX
  8
case
  10
1.8192
  20
1.0673
  42
0
  0
VERTEX
  8
case
  10
1.8226
  20
1.0711
  42
0
  0
VERTEX
  8
case
  10
1.8264
  20
1.0745
  42
0
  0
VERTEX
  8
case
  10
1.8307
  20
1.0774
  42
0
  0
VERTEX
  8
case
  10
1.8353
  20
1.0797
  42
0
  0
VERTEX
  8
case
  10
1.8402
  20
1.0813
  42
0
  0
VERTEX
  8
case
  10
1.8453
  20
1.0823
  42
0
  0
VERTEX
  8
case
  10
1.8504
  20
1.0827
  42
0
  0
VERTEX
  8
case
  10
1.8555
  20
1.0823
  42
0
  0
VERTEX
  8
case
  10
1.8606
  20
1.0813
  42
0
  0
VERTEX
  8
case
  10
1.8655
  20
1.0797
  42
0
  0
VERTEX
  8
case
  10
1.8701
  20
1.0774
  42
0
  0
VERTEX
  8
case
  10
1.8744
  20
1.0745
  42
0
  0
VERTEX
  8
case
  10
1.8782
  20
1.0711
  42
0
  0
VERTEX
  8
case
  10
1.8816
  20
1.0673
  42
0
  0
VERTEX
  8
case
  10
1.8845
  20
1.063
  42
0
  0
VERTEX
  8
case
  10
1.8868
  20
1.0584
  42
0
  0
VERTEX
  8
case
  10
1.8884
  20
1.0535
  42
0
  0
VERTEX
  8
case
  10
1.8894
  20
1.0484
  42
0
  0
VERTEX
  8
case
  10
1.8898
  20
1.0433
  42
0
  0
VERTEX
  8
case
  10
1.8898
  20
1.0433
  42
0
  0
VERTEX
  8
case
  10
1.8894
  20
1.0382
  42
0
  0
VERTEX
  8
case
  10
1.8884
  20
1.0331
  42
0
  0
VERTEX
  8
case
  10
1.8868
  20
1.0282
  42
0
  0
VERTEX
  8
case
  10
1.8845
  20
1.0236
  42
0
  0
VERTEX
  8
case
  10
1.8816
  20
1.0193
  42
0
  0
VERTEX
  8
case
  10
1.8782
  20
1.0155
  42
0
  0
VERTEX
  8
case
  10
1.8744
  20
1.0121
  42
0
  0
VERTEX
  8
case
  10
1.8701
  20
1.0092
  42
0
  0
VERTEX
  8
case
  10
1.8655
  20
1.0069
  42
0
  0
VERTEX
  8
case
  10
1.8606
  20
1.0053
  42
0
  0
VERTEX
  8
case
  10
1.8555
  20
1.0043
  42
0
  0
VERTEX
  8
case
  10
1.8504
  20
1.0039
  42
0
  0
VERTEX
  8
case
  10
1.8453
  20
1.0043
  42
0
  0
VERTEX
  8
case
  10
1.8402
  20
1.0053
  42
0
  0
VERTEX
  8
case
  10
1.8353
  20
1.0069
  42
0
  0
VERTEX
  8
case
  10
1.8307
  20
1.0092
  42
0
  0
VERTEX
  8
case
  10
1.8264
  20
1.0121
  42
0
  0
VERTEX
  8
case
  10
1.8226
  20
1.0155
  42
0
  0
VERTEX
  8
case
  10
1.8192
  20
1.0193
  42
0
  0
VERTEX
  8
case
  10
1.8163
  20
1.0236
  42
0
  0
VERTEX
  8
case
  10
1.814
  20
1.0282
  42
0
  0
VERTEX
  8
case
  10
1.8124
  20
1.0331
  42
0
  0
VERTEX
  8
case
  10
1.8114
  20
1.0382
  42
0
  0
VERTEX
  8
case
  10
1.811
  20
1.0433
  42
0
  0
VERTEX
  8
case
  10
1.811
  20
1.0433
  42
0
  0
SEQEND
  0
POLYLINE
  8
case
  6
CONTINUOUS
  66
1
  70
0
  40
0.0047
  41
0.0047
  0
VERTEX
  8
case
  10
1.4173
  20
1.0433
  42
0
  0
VERTEX
  8
case
  10
1.4177
  20
1.0484
  42
0
  0
VERTEX
  8
case
  10
1.4187
  20
1.0535
  42
0
  0
VERTEX
  8
case
  10
1.4203
  20
1.0584
  42
0
  0
VERTEX
  8
case
  10
1.4226
  20
1.063
  42
0
  0
VERTEX
  8
case
  10
1.4255
  20
1.0673
  42
0
  0
VERTEX
  8
case
  10
1.4289
  20
1.0711
  42
0
  0
VERTEX
  8
case
  10
1.4327
  20
1.0745
  42
0
  0
VERTEX
  8
case
  10
1.437
  20
1.0774
  42
0
  0
VERTEX
  8
case
  10
1.4416
  20
1.0797
  42
0
  0
VERTEX
  8
case
  10
1.4465
  20
1.0813
  42
0
  0
VERTEX
  8
case
  10
1.4516
  20
1.0823
  42
0
  0
VERTEX
  8
case
  10
1.4567
  20
1.0827
  42
0
  0
VERTEX
  8
case
  10
1.4618
  20
1.0823
  42
0
  0
VERTEX
  8
case
  10
1.4669
  20
1.0813
  42
0
  0
VERTEX
  8
case
  10
1.4718
  20
1.0797
  42
0
  0
VERTEX
  8
case
  10
1.4764
  20
1.0774
  42
0
  0
VERTEX
  8
case
  10
1.4807
  20
1.0745
  42
0
  0
VERTEX
  8
case
  10
1.4845
  20
1.0711
  42
0
  0
VERTEX
  8
case
  10
1.4879
  20
1.0673
  42
0
  0
VERTEX
  8
case
  10
1.4908
  20
1.063
  42
0
  0
VERTEX
  8
case
  10
1.4931
  20
1.0584
  42
0
  0
VERTEX
  8
case
  10
1.4947
  20
1.0535
  42
0
  0
VERTEX
  8
case
  10
1.4957
  20
1.0484
  42
0
  0
VERTEX
  8
case
  10
1.4961
  20
1.0433
  42
0
  0
VERTEX
  8
case
  10
1.4961
  20
1.0433
  42
0
  0
VERTEX
  8
case
  10
1.4957
  20
1.0382
  42
0
  0
VERTEX
  8
case
  10
1.4947
  20
1.0331
  42
0
  0
VERTEX
  8
case
  10
1.4931
  20
1.0282
  42
0
  0
VERTEX
  8
case
  10
1.4908
  20
1.0236
  42
0
  0
VERTEX
  8
case
  10
1.4879
  20
1.0193
  42
0
  0
VERTEX
  8
case
  10
1.4845
  20
1.0155
  42
0
  0
VERTEX
  8
case
  10
1.4807
  20
1.0121
  42
0
  0
VERTEX
  8
case
  10
1.4764
  20
1.0092
  42
0
  0
VERTEX
  8
case
  10
1.4718
  20
1.0069
  42
0
  0
VERTEX
  8
case
  10
1.4669
  20
1.0053
  42
0
  0
VERTEX
  8
case
  10
1.4618
  20
1.0043
  42
0
  0
VERTEX
  8
case
  10
1.4567
  20
1.0039
  42
0
  0
VERTEX
  8
case
  10
1.4516
  20
1.0043
  42
0
  0
VERTEX
  8
case
  10
1.4465
  20
1.0053
  42
0
  0
VERTEX
  8
case
  10
1.4416
  20
1.0069
  42
0
  0
VERTEX
  8
case
  10
1.437
  20
1.0092
  42
0
  0
VERTEX
  8
case
  10
1.4327
  20
1.0121
  42
0
  0
VERTEX
  8
case
  10
1.4289
  20
1.0155
  42
0
  0
VERTEX
  8
case
  10
1.4255
  20
1.0193
  42
0
  0
VERTEX
  8
case
  10
1.4226
  20
1.0236
  42
0
  0
VERTEX
  8
case
  10
1.4203
  20
1.0282
  42
0
  0
VERTEX
  8
case
  10
1.4187
  20
1.0331
  42
0
  0
VERTEX
  8
case
  10
1.4177
  20
1.0382
  42
0
  0
VERTEX
  8
case
  10
1.4173
  20
1.0433
  42
0
  0
VERTEX
  8
case
  10
1.4173
  20
1.0433
  42
0
  0
SEQEND
  0
POLYLINE
  8
case
  6
CONTINUOUS
  66
1
  70
0
  40
0.0047
  41
0.0047
  0
VERTEX
  8
case
  10
1.7126
  20
1.1417
  42
0
  0
VERTEX
  8
case
  10
1.7129
  20
1.1469
  42
0
  0
VERTEX
  8
case
  10
1.7139
  20
1.1519
  42
0
  0
VERTEX
  8
case
  10
1.7156
  20
1.1568
  42
0
  0
VERTEX
  8
case
  10
1.7179
  20
1.1614
  42
0
  0
VERTEX
  8
case
  10
1.7207
  20
1.1657
  42
0
  0
VERTEX
  8
case
  10
1.7241
  20
1.1696
  42
0
  0
VERTEX
  8
case
  10
1.728
  20
1.173
  42
0
  0
VERTEX
  8
case
  10
1.7323
  20
1.1758
  42
0
  0
VERTEX
  8
case
  10
1.7369
  20
1.1781
  42
0
  0
VERTEX
  8
case
  10
1.7418
  20
1.1798
  42
0
  0
VERTEX
  8
case
  10
1.7468
  20
1.1808
  42
0
  0
VERTEX
  8
case
  10
1.752
  20
1.1811
  42
0
  0
VERTEX
  8
case
  10
1.7571
  20
1.1808
  42
0
  0
VERTEX
  8
case
  10
1.7622
  20
1.1798
  42
0
  0
VERTEX
  8
case
  10
1.767
  20
1.1781
  42
0
  0
VERTEX
  8
case
  10
1.7717
  20
1.1758
  42
0
  0
VERTEX
  8
case
  10
1.7759
  20
1.173
  42
0
  0
VERTEX
  8
case
  10
1.7798
  20
1.1696
  42
0
  0
VERTEX
  8
case
  10
1.7832
  20
1.1657
  42
0
  0
VERTEX
  8
case
  10
1.7861
  20
1.1614
  42
0
  0
VERTEX
  8
case
  10
1.7883
  20
1.1568
  42
0
  0
VERTEX
  8
case
  10
1.79
  20
1.1519
  42
0
  0
VERTEX
  8
case
  10
1.791
  20
1.1469
  42
0
  0
VERTEX
  8
case
  10
1.7913
  20
1.1417
  42
0
  0
VERTEX
  8
case
  10
1.7913
  20
1.1417
  42
0
  0
VERTEX
  8
case
  10
1.791
  20
1.1366
  42
0
  0
VERTEX
  8
case
  10
1.79
  20
1.1315
  42
0
  0
VERTEX
  8
case
  10
1.7883
  20
1.1267
  42
0
  0
VERTEX
  8
case
  10
1.7861
  20
1.122
  42
0
  0
VERTEX
  8
case
  10
1.7832
  20
1.1178
  42
0
  0
VERTEX
  8
case
  10
1.7798
  20
1.1139
  42
0
  0
VERTEX
  8
case
  10
1.7759
  20
1.1105
  42
0
  0
VERTEX
  8
case
  10
1.7717
  20
1.1076
  42
0
  0
VERTEX
  8
case
  10
1.767
  20
1.1054
  42
0
  0
VERTEX
  8
case
  10
1.7622
  20
1.1037
  42
0
  0
VERTEX
  8
case
  10
1.7571
  20
1.1027
  42
0
  0
VERTEX
  8
case
  10
1.752
  20
1.1024
  42
0
  0
VERTEX
  8
case
  10
1.7468
  20
1.1027
  42
0
  0
VERTEX
  8
case
  10
1.7418
  20
1.1037
  42
0
  0
VERTEX
  8
case
  10
1.7369
  20
1.1054
  42
0
  0
VERTEX
  8
case
  10
1.7323
  20
1.1076
  42
0
  0
VERTEX
  8
case
  10
1.728
  20
1.1105
  42
0
  0
VERTEX
  8
case
  10
1.7241
  20
1.1139
  42
0
  0
VERTEX
  8
case
  10
1.7207
  20
1.1178
  42
0
  0
VERTEX
  8
case
  10
1.7179
  20
1.122
  42
0
  0
VERTEX
  8
case
  10
1.7156
  20
1.1267
  42
0
  0
VERTEX
  8
case
  10
1.7139
  20
1.1315
  42
0
  0
VERTEX
  8
case
  10
1.7129
  20
1.1366
  42
0
  0
VERTEX
  8
case
  10
1.7126
  20
1.1417
  42
0
  0
VERTEX
  8
case
  10
1.7126
  20
1.1417
  42
0
  0
SEQEND
  0
POLYLINE
  8
case
  6
CONTINUOUS
  66
1
  70
0
  40
0.0047
  41
0.0047
  0
VERTEX
  8
case
  10
1.9094
  20
1.1417
  42
0
  0
VERTEX
  8
case
  10
1.9098
  20
1.1469
  42
0
  0
VERTEX
  8
case
  10
1.9108
  20
1.1519
  42
0
  0
VERTEX
  8
case
  10
1.9124
  20
1.1568
  42
0
  0
VERTEX
  8
case
  10
1.9147
  20
1.1614
  42
0
  0
VERTEX
  8
case
  10
1.9176
  20
1.1657
  42
0
  0
VERTEX
  8
case
  10
1.921
  20
1.1696
  42
0
  0
VERTEX
  8
case
  10
1.9249
  20
1.173
  42
0
  0
VERTEX
  8
case
  10
1.9291
  20
1.1758
  42
0
  0
VERTEX
  8
case
  10
1.9338
  20
1.1781
  42
0
  0
VERTEX
  8
case
  10
1.9386
  20
1.1798
  42
0
  0
VERTEX
  8
case
  10
1.9437
  20
1.1808
  42
0
  0
VERTEX
  8
case
  10
1.9488
  20
1.1811
  42
0
  0
VERTEX
  8
case
  10
1.954
  20
1.1808
  42
0
  0
VERTEX
  8
case
  10
1.959
  20
1.1798
  42
0
  0
VERTEX
  8
case
  10
1.9639
  20
1.1781
  42
0
  0
VERTEX
  8
case
  10
1.9685
  20
1.1758
  42
0
  0
VERTEX
  8
case
  10
1.9728
  20
1.173
  42
0
  0
VERTEX
  8
case
  10
1.9767
  20
1.1696
  42
0
  0
VERTEX
  8
case
  10
1.9801
  20
1.1657
  42
0
  0
VERTEX
  8
case
  10
1.9829
  20
1.1614
  42
0
  0
VERTEX
  8
case
  10
1.9852
  20
1.1568
  42
0
  0
VERTEX
  8
case
  10
1.9868
  20
1.1519
  42
0
  0
VERTEX
  8
case
  10
1.9879
  20
1.1469
  42
0
  0
VERTEX
  8
case
  10
1.9882
  20
1.1417
  42
0
  0
VERTEX
  8
case
  10
1.9882
  20
1.1417
  42
0
  0
VERTEX
  8
case
  10
1.9879
  20
1.1366
  42
0
  0
VERTEX
  8
case
  10
1.9868
  20
1.1315
  42
0
  0
VERTEX
  8
case
  10
1.9852
  20
1.1267
  42
0
  0
VERTEX
  8
case
  10
1.9829
  20
1.122
  42
0
  0
VERTEX
  8
case
  10
1.9801
  20
1.1178
  42
0
  0
VERTEX
  8
case
  10
1.9767
  20
1.1139
  42
0
  0
VERTEX
  8
case
  10
1.9728
  20
1.1105
  42
0
  0
VERTEX
  8
case
  10
1.9685
  20
1.1076
  42
0
  0
VERTEX
  8
case
  10
1.9639
  20
1.1054
  42
0
  0
VERTEX
  8
case
  10
1.959
  20
1.1037
  42
0
  0
VERTEX
  8
case
  10
1.954
  20
1.1027
  42
0
  0
VERTEX
  8
case
  10
1.9488
  20
1.1024
  42
0
  0
VERTEX
  8
case
  10
1.9437
  20
1.1027
  42
0
  0
VERTEX
  8
case
  10
1.9386
  20
1.1037
  42
0
  0
VERTEX
  8
case
  10
1.9338
  20
1.1054
  42
0
  0
VERTEX
  8
case
  10
1.9291
  20
1.1076
  42
0
  0
VERTEX
  8
case
  10
1.9249
  20
1.1105
  42
0
  0
VERTEX
  8
case
  10
1.921
  20
1.1139
  42
0
  0
VERTEX
  8
case
  10
1.9176
  20
1.1178
  42
0
  0
VERTEX
  8
case
  10
1.9147
  20
1.122
  42
0
  0
VERTEX
  8
case
  10
1.9124
  20
1.1267
  42
0
  0
VERTEX
  8
case
  10
1.9108
  20
1.1315
  42
0
  0
VERTEX
  8
case
  10
1.9098
  20
1.1366
  42
0
  0
VERTEX
  8
case
  10
1.9094
  20
1.1417
  42
0
  0
VERTEX
  8
case
  10
1.9094
  20
1.1417
  42
0
  0
SEQEND
  0
POLYLINE
  8
case
  6
CONTINUOUS
  66
1
  70
0
  40
0.0047
  41
0.0047
  0
VERTEX
  8
case
  10
1.3189
  20
1.1417
  42
0
  0
VERTEX
  8
case
  10
1.3192
  20
1.1469
  42
0
  0
VERTEX
  8
case
  10
1.3202
  20
1.1519
  42
0
  0
VERTEX
  8
case
  10
1.3219
  20
1.1568
  42
0
  0
VERTEX
  8
case
  10
1.3242
  20
1.1614
  42
0
  0
VERTEX
  8
case
  10
1.327
  20
1.1657
  42
0
  0
VERTEX
  8
case
  10
1.3304
  20
1.1696
  42
0
  0
VERTEX
  8
case
  10
1.3343
  20
1.173
  42
0
  0
VERTEX
  8
case
  10
1.3386
  20
1.1758
  42
0
  0
VERTEX
  8
case
  10
1.3432
  20
1.1781
  42
0
  0
VERTEX
  8
case
  10
1.3481
  20
1.1798
  42
0
  0
VERTEX
  8
case
  10
1.3531
  20
1.1808
  42
0
  0
VERTEX
  8
case
  10
1.3583
  20
1.1811
  42
0
  0
VERTEX
  8
case
  10
1.3634
  20
1.1808
  42
0
  0
VERTEX
  8
case
  10
1.3685
  20
1.1798
  42
0
  0
VERTEX
  8
case
  10
1.3733
  20
1.1781
  42
0
  0
VERTEX
  8
case
  10
1.378
  20
1.1758
  42
0
  0
VERTEX
  8
case
  10
1.3822
  20
1.173
  42
0
  0
VERTEX
  8
case
  10
1.3861
  20
1.1696
  42
0
  0
VERTEX
  8
case
  10
1.3895
  20
1.1657
  42
0
  0
VERTEX
  8
case
  10
1.3924
  20
1.1614
  42
0
  0
VERTEX
  8
case
  10
1.3946
  20
1.1568
  42
0
  0
VERTEX
  8
case
  10
1.3963
  20
1.1519
  42
0
  0
VERTEX
  8
case
  10
1.3973
  20
1.1469
  42
0
  0
VERTEX
  8
case
  10
1.3976
  20
1.1417
  42
0
  0
VERTEX
  8
case
  10
1.3976
  20
1.1417
  42
0
  0
VERTEX
  8
case
  10
1.3973
  20
1.1366
  42
0
  0
VERTEX
  8
case
  10
1.3963
  20
1.1315
  42
0
  0
VERTEX
  8
case
  10
1.3946
  20
1.1267
  42
0
  0
VERTEX
  8
case
  10
1.3924
  20
1.122
  42
0
  0
VERTEX
  8
case
  10
1.3895
  20
1.1178
  42
0
  0
VERTEX
  8
case
  10
1.3861
  20
1.1139
  42
0
  0
VERTEX
  8
case
  10
1.3822
  20
1.1105
  42
0
  0
VERTEX
  8
case
  10
1.378
  20
1.1076
  42
0
  0
VERTEX
  8
case
  10
1.3733
  20
1.1054
  42
0
  0
VERTEX
  8
case
  10
1.3685
  20
1.1037
  42
0
  0
VERTEX
  8
case
  10
1.3634
  20
1.1027
  42
0
  0
VERTEX
  8
case
  10
1.3583
  20
1.1024
  42
0
  0
VERTEX
  8
case
  10
1.3531
  20
1.1027
  42
0
  0
VERTEX
  8
case
  10
1.3481
  20
1.1037
  42
0
  0
VERTEX
  8
case
  10
1.3432
  20
1.1054
  42
0
  0
VERTEX
  8
case
  10
1.3386
  20
1.1076
  42
0
  0
VERTEX
  8
case
  10
1.3343
  20
1.1105
  42
0
  0
VERTEX
  8
case
  10
1.3304
  20
1.1139
  42
0
  0
VERTEX
  8
case
  10
1.327
  20
1.1178
  42
0
  0
VERTEX
  8
case
  10
1.3242
  20
1.122
  42
0
  0
VERTEX
  8
case
  10
1.3219
  20
1.1267
  42
0
  0
VERTEX
  8
case
  10
1.3202
  20
1.1315
  42
0
  0
VERTEX
  8
case
  10
1.3192
  20
1.1366
  42
0
  0
VERTEX
  8
case
  10
1.3189
  20
1.1417
  42
0
  0
VERTEX
  8
case
  10
1.3189
  20
1.1417
  42
0
  0
SEQEND
  0
POLYLINE
  8
case
  6
CONTINUOUS
  66
1
  70
0
  40
0.0047
  41
0.0047
  0
VERTEX
  8
case
  10
1.5157
  20
1.1417
  42
0
  0
VERTEX
  8
case
  10
1.5161
  20
1.1469
  42
0
  0
VERTEX
  8
case
  10
1.5171
  20
1.1519
  42
0
  0
VERTEX
  8
case
  10
1.5187
  20
1.1568
  42
0
  0
VERTEX
  8
case
  10
1.521
  20
1.1614
  42
0
  0
VERTEX
  8
case
  10
1.5239
  20
1.1657
  42
0
  0
VERTEX
  8
case
  10
1.5273
  20
1.1696
  42
0
  0
VERTEX
  8
case
  10
1.5312
  20
1.173
  42
0
  0
VERTEX
  8
case
  10
1.5354
  20
1.1758
  42
0
  0
VERTEX
  8
case
  10
1.5401
  20
1.1781
  42
0
  0
VERTEX
  8
case
  10
1.5449
  20
1.1798
  42
0
  0
VERTEX
  8
case
  10
1.55
  20
1.1808
  42
0
  0
VERTEX
  8
case
  10
1.5551
  20
1.1811
  42
0
  0
VERTEX
  8
case
  10
1.5603
  20
1.1808
  42
0
  0
VERTEX
  8
case
  10
1.5653
  20
1.1798
  42
0
  0
VERTEX
  8
case
  10
1.5702
  20
1.1781
  42
0
  0
VERTEX
  8
case
  10
1.5748
  20
1.1758
  42
0
  0
VERTEX
  8
case
  10
1.5791
  20
1.173
  42
0
  0
VERTEX
  8
case
  10
1.583
  20
1.1696
  42
0
  0
VERTEX
  8
case
  10
1.5864
  20
1.1657
  42
0
  0
VERTEX
  8
case
  10
1.5892
  20
1.1614
  42
0
  0
VERTEX
  8
case
  10
1.5915
  20
1.1568
  42
0
  0
VERTEX
  8
case
  10
1.5931
  20
1.1519
  42
0
  0
VERTEX
  8
case
  10
1.5942
  20
1.1469
  42
0
  0
VERTEX
  8
case
  10
1.5945
  20
1.1417
  42
0
  0
VERTEX
  8
case
  10
1.5945
  20
1.1417
  42
0
  0
VERTEX
  8
case
  10
1.5942
  20
1.1366
  42
0
  0
VERTEX
  8
case
  10
1.5931
  20
1.1315
  42
0
  0
VERTEX
  8
case
  10
1.5915
  20
1.1267
  42
0
  0
VERTEX
  8
case
  10
1.5892
  20
1.122
  42
0
  0
VERTEX
  8
case
  10
1.5864
  20
1.1178
  42
0
  0
VERTEX
  8
case
  10
1.583
  20
1.1139
  42
0
  0
VERTEX
  8
case
  10
1.5791
  20
1.1105
  42
0
  0
VERTEX
  8
case
  10
1.5748
  20
1.1076
  42
0
  0
VERTEX
  8
case
  10
1.5702
  20
1.1054
  42
0
  0
VERTEX
  8
case
  10
1.5653
  20
1.1037
  42
0
  0
VERTEX
  8
case
  10
1.5603
  20
1.1027
  42
0
  0
VERTEX
  8
case
  10
1.5551
  20
1.1024
  42
0
  0
VERTEX
  8
case
  10
1.55
  20
1.1027
  42
0
  0
VERTEX
  8
case
  10
1.5449
  20
1.1037
  42
0
  0
VERTEX
  8
case
  10
1.5401
  20
1.1054
  42
0
  0
VERTEX
  8
case
  10
1.5354
  20
1.1076
  42
0
  0
VERTEX
  8
case
  10
1.5312
  20
1.1105
  42
0
  0
VERTEX
  8
case
  10
1.5273
  20
1.1139
  42
0
  0
VERTEX
  8
case
  10
1.5239
  20
1.1178
  42
0
  0
VERTEX
  8
case
  10
1.521
  20
1.122
  42
0
  0
VERTEX
  8
case
  10
1.5187
  20
1.1267
  42
0
  0
VERTEX
  8
case
  10
1.5171
  20
1.1315
  42
0
  0
VERTEX
  8
case
  10
1.5161
  20
1.1366
  42
0
  0
VERTEX
  8
case
  10
1.5157
  20
1.1417
  42
0
  0
VERTEX
  8
case
  10
1.5157
  20
1.1417
  42
0
  0
SEQEND
  0
POLYLINE
  8
case
  6
CONTINUOUS
  66
1
  70
0
  40
0.0047
  41
0.0047
  0
VERTEX
  8
case
  10
1.6142
  20
1.2402
  42
0
  0
VERTEX
  8
case
  10
1.6145
  20
1.2453
  42
0
  0
VERTEX
  8
case
  10
1.6155
  20
1.2503
  42
0
  0
VERTEX
  8
case
  10
1.6172
  20
1.2552
  42
0
  0
VERTEX
  8
case
  10
1.6194
  20
1.2598
  42
0
  0
VERTEX
  8
case
  10
1.6223
  20
1.2641
  42
0
  0
VERTEX
  8
case
  10
1.6257
  20
1.268
  42
0
  0
VERTEX
  8
case
  10
1.6296
  20
1.2714
  42
0
  0
VERTEX
  8
case
  10
1.6339
  20
1.2743
  42
0
  0
VERTEX
  8
case
  10
1.6385
  20
1.2765
  42
0
  0
VERTEX
  8
case
  10
1.6434
  20
1.2782
  42
0
  0
VERTEX
  8
case
  10
1.6484
  20
1.2792
  42
0
  0
VERTEX
  8
case
  10
1.6535
  20
1.2795
  42
0
  0
VERTEX
  8
case
  10
1.6587
  20
1.2792
  42
0
  0
VERTEX
  8
case
  10
1.6637
  20
1.2782
  42
0
  0
VERTEX
  8
case
  10
1.6686
  20
1.2765
  42
0
  0
VERTEX
  8
case
  10
1.6732
  20
1.2743
  42
0
  0
VERTEX
  8
case
  10
1.6775
  20
1.2714
  42
0
  0
VERTEX
  8
case
  10
1.6814
  20
1.268
  42
0
  0
VERTEX
  8
case
  10
1.6848
  20
1.2641
  42
0
  0
VERTEX
  8
case
  10
1.6876
  20
1.2598
  42
0
  0
VERTEX
  8
case
  10
1.6899
  20
1.2552
  42
0
  0
VERTEX
  8
case
  10
1.6916
  20
1.2503
  42
0
  0
VERTEX
  8
case
  10
1.6926
  20
1.2453
  42
0
  0
VERTEX
  8
case
  10
1.6929
  20
1.2402
  42
0
  0
VERTEX
  8
case
  10
1.6929
  20
1.2402
  42
0
  0
VERTEX
  8
case
  10
1.6926
  20
1.235
  42
0
  0
VERTEX
  8
case
  10
1.6916
  20
1.23
  42
0
  0
VERTEX
  8
case
  10
1.6899
  20
1.2251
  42
0
  0
VERTEX
  8
case
  10
1.6876
  20
1.2205
  42
0
  0
VERTEX
  8
case
  10
1.6848
  20
1.2162
  42
0
  0
VERTEX
  8
case
  10
1.6814
  20
1.2123
  42
0
  0
VERTEX
  8
case
  10
1.6775
  20
1.2089
  42
0
  0
VERTEX
  8
case
  10
1.6732
  20
1.2061
  42
0
  0
VERTEX
  8
case
  10
1.6686
  20
1.2038
  42
0
  0
VERTEX
  8
case
  10
1.6637
  20
1.2021
  42
0
  0
VERTEX
  8
case
  10
1.6587
  20
1.2011
  42
0
  0
VERTEX
  8
case
  10
1.6535
  20
1.2008
  42
0
  0
VERTEX
  8
case
  10
1.6484
  20
1.2011
  42
0
  0
VERTEX
  8
case
  10
1.6434
  20
1.2021
  42
0
  0
VERTEX
  8
case
  10
1.6385
  20
1.2038
  42
0
  0
VERTEX
  8
case
  10
1.6339
  20
1.2061
  42
0
  0
VERTEX
  8
case
  10
1.6296
  20
1.2089
  42
0
  0
VERTEX
  8
case
  10
1.6257
  20
1.2123
  42
0
  0
VERTEX
  8
case
  10
1.6223
  20
1.2162
  42
0
  0
VERTEX
  8
case
  10
1.6194
  20
1.2205
  42
0
  0
VERTEX
  8
case
  10
1.6172
  20
1.2251
  42
0
  0
VERTEX
  8
case
  10
1.6155
  20
1.23
  42
0
  0
VERTEX
  8
case
  10
1.6145
  20
1.235
  42
0
  0
VERTEX
  8
case
  10
1.6142
  20
1.2402
  42
0
  0
VERTEX
  8
case
  10
1.6142
  20
1.2402
  42
0
  0
SEQEND
  0
POLYLINE
  8
case
  6
CONTINUOUS
  66
1
  70
0
  40
0.0047
  41
0.0047
  0
VERTEX
  8
case
  10
1.811
  20
1.2402
  42
0
  0
VERTEX
  8
case
  10
1.8114
  20
1.2453
  42
0
  0
VERTEX
  8
case
  10
1.8124
  20
1.2503
  42
0
  0
VERTEX
  8
case
  10
1.814
  20
1.2552
  42
0
  0
VERTEX
  8
case
  10
1.8163
  20
1.2598
  42
0
  0
VERTEX
  8
case
  10
1.8192
  20
1.2641
  42
0
  0
VERTEX
  8
case
  10
1.8226
  20
1.268
  42
0
  0
VERTEX
  8
case
  10
1.8264
  20
1.2714
  42
0
  0
VERTEX
  8
case
  10
1.8307
  20
1.2743
  42
0
  0
VERTEX
  8
case
  10
1.8353
  20
1.2765
  42
0
  0
VERTEX
  8
case
  10
1.8402
  20
1.2782
  42
0
  0
VERTEX
  8
case
  10
1.8453
  20
1.2792
  42
0
  0
VERTEX
  8
case
  10
1.8504
  20
1.2795
  42
0
  0
VERTEX
  8
case
  10
1.8555
  20
1.2792
  42
0
  0
VERTEX
  8
case
  10
1.8606
  20
1.2782
  42
0
  0
VERTEX
  8
case
  10
1.8655
  20
1.2765
  42
0
  0
VERTEX
  8
case
  10
1.8701
  20
1.2743
  42
0
  0
VERTEX
  8
case
  10
1.8744
  20
1.2714
  42
0
  0
VERTEX
  8
case
  10
1.8782
  20
1.268
  42
0
  0
VERTEX
  8
case
  10
1.8816
  20
1.2641
  42
0
  0
VERTEX
  8
case
  10
1.8845
  20
1.2598
  42
0
  0
VERTEX
  8
case
  10
1.8868
  20
1.2552
  42
0
  0
VERTEX
  8
case
  10
1.8884
  20
1.2503
  42
0
  0
VERTEX
  8
case
  10
1.8894
  20
1.2453
  42
0
  0
VERTEX
  8
case
  10
1.8898
  20
1.2402
  42
0
  0
VERTEX
  8
case
  10
1.8898
  20
1.2402
  42
0
  0
VERTEX
  8
case
  10
1.8894
  20
1.235
  42
0
  0
VERTEX
  8
case
  10
1.8884
  20
1.23
  42
0
  0
VERTEX
  8
case
  10
1.8868
  20
1.2251
  42
0
  0
VERTEX
  8
case
  10
1.8845
  20
1.2205
  42
0
  0
VERTEX
  8
case
  10
1.8816
  20
1.2162
  42
0
  0
VERTEX
  8
case
  10
1.8782
  20
1.2123
  42
0
  0
VERTEX
  8
case
  10
1.8744
  20
1.2089
  42
0
  0
VERTEX
  8
case
  10
1.8701
  20
1.2061
  42
0
  0
VERTEX
  8
case
  10
1.8655
  20
1.2038
  42
0
  0
VERTEX
  8
case
  10
1.8606
  20
1.2021
  42
0
  0
VERTEX
  8
case
  10
1.8555
  20
1.2011
  42
0
  0
VERTEX
  8
case
  10
1.8504
  20
1.2008
  42
0
  0
VERTEX
  8
case
  10
1.8453
  20
1.2011
  42
0
  0
VERTEX
  8
case
  10
1.8402
  20
1.2021
  42
0
  0
VERTEX
  8
case
  10
1.8353
  20
1.2038
  42
0
  0
VERTEX
  8
case
  10
1.8307
  20
1.2061
  42
0
  0
VERTEX
  8
case
  10
1.8264
  20
1.2089
  42
0
  0
VERTEX
  8
case
  10
1.8226
  20
1.2123
  42
0
  0
VERTEX
  8
case
  10
1.8192
  20
1.2162
  42
0
  0
VERTEX
  8
case
  10
1.8163
  20
1.2205
  42
0
  0
VERTEX
  8
case
  10
1.814
  20
1.2251
  42
0
  0
VERTEX
  8
case
  10
1.8124
  20
1.23
  42
0
  0
VERTEX
  8
case
  10
1.8114
  20
1.235
  42
0
  0
VERTEX
  8
case
  10
1.811
  20
1.2402
  42
0
  0
VERTEX
  8
case
  10
1.811
  20
1.2402
  42
0
  0
SEQEND
  0
POLYLINE
  8
case
  6
CONTINUOUS
  66
1
  70
0
  40
0.0047
  41
0.0047
  0
VERTEX
  8
case
  10
1.4173
  20
1.2402
  42
0
  0
VERTEX
  8
case
  10
1.4177
  20
1.2453
  42
0
  0
VERTEX
  8
case
  10
1.4187
  20
1.2503
  42
0
  0
VERTEX
  8
case
  10
1.4203
  20
1.2552
  42
0
  0
VERTEX
  8
case
  10
1.4226
  20
1.2598
  42
0
  0
VERTEX
  8
case
  10
1.4255
  20
1.2641
  42
0
  0
VERTEX
  8
case
  10
1.4289
  20
1.268
  42
0
  0
VERTEX
  8
case
  10
1.4327
  20
1.2714
  42
0
  0
VERTEX
  8
case
  10
1.437
  20
1.2743
  42
0
  0
VERTEX
  8
case
  10
1.4416
  20
1.2765
  42
0
  0
VERTEX
  8
case
  10
1.4465
  20
1.2782
  42
0
  0
VERTEX
  8
case
  10
1.4516
  20
1.2792
  42
0
  0
VERTEX
  8
case
  10
1.4567
  20
1.2795
  42
0
  0
VERTEX
  8
case
  10
1.4618
  20
1.2792
  42
0
  0
VERTEX
  8
case
  10
1.4669
  20
1.2782
  42
0
  0
VERTEX
  8
case
  10
1.4718
  20
1.2765
  42
0
  0
VERTEX
  8
case
  10
1.4764
  20
1.2743
  42
0
  0
VERTEX
  8
case
  10
1.4807
  20
1.2714
  42
0
  0
VERTEX
  8
case
  10
1.4845
  20
1.268
  42
0
  0
VERTEX
  8
case
  10
1.4879
  20
1.2641
  42
0
  0
VERTEX
  8
case
  10
1.4908
  20
1.2598
  42
0
  0
VERTEX
  8
case
  10
1.4931
  20
1.2552
  42
0
  0
VERTEX
  8
case
  10
1.4947
  20
1.2503
  42
0
  0
VERTEX
  8
case
  10
1.4957
  20
1.2453
  42
0
  0
VERTEX
  8
case
  10
1.4961
  20
1.2402
  42
0
  0
VERTEX
  8
case
  10
1.4961
  20
1.2402
  42
0
  0
VERTEX
  8
case
  10
1.4957
  20
1.235
  42
0
  0
VERTEX
  8
case
  10
1.4947
  20
1.23
  42
0
  0
VERTEX
  8
case
  10
1.4931
  20
1.2251
  42
0
  0
VERTEX
  8
case
  10
1.4908
  20
1.2205
  42
0
  0
VERTEX
  8
case
  10
1.4879
  20
1.2162
  42
0
  0
VERTEX
  8
case
  10
1.4845
  20
1.2123
  42
0
  0
VERTEX
  8
case
  10
1.4807
  20
1.2089
  42
0
  0
VERTEX
  8
case
  10
1.4764
  20
1.2061
  42
0
  0
VERTEX
  8
case
  10
1.4718
  20
1.2038
  42
0
  0
VERTEX
  8
case
  10
1.4669
  20
1.2021
  42
0
  0
VERTEX
  8
case
  10
1.4618
  20
1.2011
  42
0
  0
VERTEX
  8
case
  10
1.4567
  20
1.2008
  42
0
  0
VERTEX
  8
case
  10
1.4516
  20
1.2011
  42
0
  0
VERTEX
  8
case
  10
1.4465
  20
1.2021
  42
0
  0
VERTEX
  8
case
  10
1.4416
  20
1.2038
  42
0
  0
VERTEX
  8
case
  10
1.437
  20
1.2061
  42
0
  0
VERTEX
  8
case
  10
1.4327
  20
1.2089
  42
0
  0
VERTEX
  8
case
  10
1.4289
  20
1.2123
  42
0
  0
VERTEX
  8
case
  10
1.4255
  20
1.2162
  42
0
  0
VERTEX
  8
case
  10
1.4226
  20
1.2205
  42
0
  0
VERTEX
  8
case
  10
1.4203
  20
1.2251
  42
0
  0
VERTEX
  8
case
  10
1.4187
  20
1.23
  42
0
  0
VERTEX
  8
case
  10
1.4177
  20
1.235
  42
0
  0
VERTEX
  8
case
  10
1.4173
  20
1.2402
  42
0
  0
VERTEX
  8
case
  10
1.4173
  20
1.2402
  42
0
  0
SEQEND
  0
POLYLINE
  8
case
  6
CONTINUOUS
  66
1
  70
0
  40
0.0047
  41
0.0047
  0
VERTEX
  8
case
  10
1.5143
  20
0.3706
  42
0
  0
VERTEX
  8
case
  10
1.5979
  20
0.4542
  42
0
  0
SEQEND
  0
POLYLINE
  8
case
  6
CONTINUOUS
  66
1
  70
0
  40
0.0047
  41
0.0047
  0
VERTEX
  8
case
  10
1.7092
  20
0.4542
  42
0
  0
VERTEX
  8
case
  10
1.7927
  20
0.3706
  42
0
  0
SEQEND
  0
POLYLINE
  8
case
  6
CONTINUOUS
  66
1
  70
0
  40
0.0047
  41
0.0047
  0
VERTEX
  8
case
  10
1.7927
  20
0.2593
  42
0
  0
VERTEX
  8
case
  10
1.7092
  20
0.1758
  42
0
  0
SEQEND
  0
POLYLINE
  8
case
  6
CONTINUOUS
  66
1
  70
0
  40
0.0047
  41
0.0047
  0
VERTEX
  8
case
  10
1.5979
  20
0.1758
  42
0
  0
VERTEX
  8
case
  10
1.5143
  20
0.2593
  42
0
  0
SEQEND
  0
POLYLINE
  8
case
  6
CONTINUOUS
  66
1
  70
0
  40
0.0047
  41
0.0047
  0
VERTEX
  8
case
  10
1.5143
  20
0.3706
  42
0
  0
VERTEX
  8
case
  10
1.5102
  20
0.3661
  42
0
  0
VERTEX
  8
case
  10
1.5063
  20
0.3612
  42
0
  0
VERTEX
  8
case
  10
1.5029
  20
0.3561
  42
0
  0
VERTEX
  8
case
  10
1.4999
  20
0.3507
  42
0
  0
VERTEX
  8
case
  10
1.4973
  20
0.3451
  42
0
  0
VERTEX
  8
case
  10
1.4951
  20
0.3393
  42
0
  0
VERTEX
  8
case
  10
1.4935
  20
0.3333
  42
0
  0
VERTEX
  8
case
  10
1.4923
  20
0.3273
  42
0
  0
VERTEX
  8
case
  10
1.4915
  20
0.3211
  42
0
  0
VERTEX
  8
case
  10
1.4913
  20
0.315
  42
0
  0
VERTEX
  8
case
  10
1.4915
  20
0.3088
  42
0
  0
VERTEX
  8
case
  10
1.4923
  20
0.3026
  42
0
  0
VERTEX
  8
case
  10
1.4935
  20
0.2966
  42
0
  0
VERTEX
  8
case
  10
1.4951
  20
0.2906
  42
0
  0
VERTEX
  8
case
  10
1.4973
  20
0.2848
  42
0
  0
VERTEX
  8
case
  10
1.4999
  20
0.2792
  42
0
  0
VERTEX
  8
case
  10
1.5029
  20
0.2738
  42
0
  0
VERTEX
  8
case
  10
1.5063
  20
0.2687
  42
0
  0
VERTEX
  8
case
  10
1.5102
  20
0.2638
  42
0
  0
VERTEX
  8
case
  10
1.5143
  20
0.2593
  42
0
  0
SEQEND
  0
POLYLINE
  8
case
  6
CONTINUOUS
  66
1
  70
0
  40
0.0047
  41
0.0047
  0
VERTEX
  8
case
  10
1.5979
  20
0.1758
  42
0
  0
VERTEX
  8
case
  10
1.6024
  20
0.1716
  42
0
  0
VERTEX
  8
case
  10
1.6073
  20
0.1677
  42
0
  0
VERTEX
  8
case
  10
1.6124
  20
0.1643
  42
0
  0
VERTEX
  8
case
  10
1.6178
  20
0.1613
  42
0
  0
VERTEX
  8
case
  10
1.6234
  20
0.1587
  42
0
  0
VERTEX
  8
case
  10
1.6292
  20
0.1566
  42
0
  0
VERTEX
  8
case
  10
1.6352
  20
0.1549
  42
0
  0
VERTEX
  8
case
  10
1.6412
  20
0.1537
  42
0
  0
VERTEX
  8
case
  10
1.6474
  20
0.1529
  42
0
  0
VERTEX
  8
case
  10
1.6535
  20
0.1527
  42
0
  0
VERTEX
  8
case
  10
1.6597
  20
0.1529
  42
0
  0
VERTEX
  8
case
  10
1.6659
  20
0.1537
  42
0
  0
VERTEX
  8
case
  10
1.6719
  20
0.1549
  42
0
  0
VERTEX
  8
case
  10
1.6779
  20
0.1566
  42
0
  0
VERTEX
  8
case
  10
1.6837
  20
0.1587
  42
0
  0
VERTEX
  8
case
  10
1.6893
  20
0.1613
  42
0
  0
VERTEX
  8
case
  10
1.6947
  20
0.1643
  42
0
  0
VERTEX
  8
case
  10
1.6998
  20
0.1677
  42
0
  0
VERTEX
  8
case
  10
1.7047
  20
0.1716
  42
0
  0
VERTEX
  8
case
  10
1.7092
  20
0.1758
  42
0
  0
SEQEND
  0
POLYLINE
  8
case
  6
CONTINUOUS
  66
1
  70
0
  40
0.0047
  41
0.0047
  0
VERTEX
  8
case
  10
1.7927
  20
0.2593
  42
0
  0
VERTEX
  8
case
  10
1.7969
  20
0.2638
  42
0
  0
VERTEX
  8
case
  10
1.8008
  20
0.2687
  42
0
  0
VERTEX
  8
case
  10
1.8042
  20
0.2738
  42
0
  0
VERTEX
  8
case
  10
1.8072
  20
0.2792
  42
0
  0
VERTEX
  8
case
  10
1.8098
  20
0.2848
  42
0
  0
VERTEX
  8
case
  10
1.8119
  20
0.2906
  42
0
  0
VERTEX
  8
case
  10
1.8136
  20
0.2966
  42
0
  0
VERTEX
  8
case
  10
1.8148
  20
0.3026
  42
0
  0
VERTEX
  8
case
  10
1.8156
  20
0.3088
  42
0
  0
VERTEX
  8
case
  10
1.8158
  20
0.315
  42
0
  0
VERTEX
  8
case
  10
1.8156
  20
0.3211
  42
0
  0
VERTEX
  8
case
  10
1.8148
  20
0.3273
  42
0
  0
VERTEX
  8
case
  10
1.8136
  20
0.3333
  42
0
  0
VERTEX
  8
case
  10
1.8119
  20
0.3393
  42
0
  0
VERTEX
  8
case
  10
1.8098
  20
0.3451
  42
0
  0
VERTEX
  8
case
  10
1.8072
  20
0.3507
  42
0
  0
VERTEX
  8
case
  10
1.8042
  20
0.3561
  42
0
  0
VERTEX
  8
case
  10
1.8008
  20
0.3612
  42
0
  0
VERTEX
  8
case
  10
1.7969
  20
0.3661
  42
0
  0
VERTEX
  8
case
  10
1.7927
  20
0.3706
  42
0
  0
SEQEND
  0
POLYLINE
  8
case
  6
CONTINUOUS
  66
1
  70
0
  40
0.0047
  41
0.0047
  0
VERTEX
  8
case
  10
1.7092
  20
0.4542
  42
0
  0
VERTEX
  8
case
  10
1.7047
  20
0.4584
  42
0
  0
VERTEX
  8
case
  10
1.6998
  20
0.4622
  42
0
  0
VERTEX
  8
case
  10
1.6947
  20
0.4656
  42
0
  0
VERTEX
  8
case
  10
1.6893
  20
0.4686
  42
0
  0
VERTEX
  8
case
  10
1.6837
  20
0.4712
  42
0
  0
VERTEX
  8
case
  10
1.6779
  20
0.4734
  42
0
  0
VERTEX
  8
case
  10
1.6719
  20
0.475
  42
0
  0
VERTEX
  8
case
  10
1.6659
  20
0.4762
  42
0
  0
VERTEX
  8
case
  10
1.6597
  20
0.477
  42
0
  0
VERTEX
  8
case
  10
1.6535
  20
0.4772
  42
0
  0
VERTEX
  8
case
  10
1.6474
  20
0.477
  42
0
  0
VERTEX
  8
case
  10
1.6412
  20
0.4762
  42
0
  0
VERTEX
  8
case
  10
1.6352
  20
0.475
  42
0
  0
VERTEX
  8
case
  10
1.6292
  20
0.4734
  42
0
  0
VERTEX
  8
case
  10
1.6234
  20
0.4712
  42
0
  0
VERTEX
  8
case
  10
1.6178
  20
0.4686
  42
0
  0
VERTEX
  8
case
  10
1.6124
  20
0.4656
  42
0
  0
VERTEX
  8
case
  10
1.6073
  20
0.4622
  42
0
  0
VERTEX
  8
case
  10
1.6024
  20
0.4584
  42
0
  0
VERTEX
  8
case
  10
1.5979
  20
0.4542
  42
0
  0
SEQEND
  0
POLYLINE
  8
case
  6
CONTINUOUS
  66
1
  70
0
  40
0.0047
  41
0.0047
  0
VERTEX
  8
case
  10
2.8622
  20
0.3228
  42
0
  0
VERTEX
  8
case
  10
2.8625
  20
0.328
  42
0
  0
VERTEX
  8
case
  10
2.8635
  20
0.333
  42
0
  0
VERTEX
  8
case
  10
2.8652
  20
0.3379
  42
0
  0
VERTEX
  8
case
  10
2.8675
  20
0.3425
  42
0
  0
VERTEX
  8
case
  10
2.8703
  20
0.3468
  42
0
  0
VERTEX
  8
case
  10
2.8737
  20
0.3507
  42
0
  0
VERTEX
  8
case
  10
2.8776
  20
0.3541
  42
0
  0
VERTEX
  8
case
  10
2.8819
  20
0.3569
  42
0
  0
VERTEX
  8
case
  10
2.8865
  20
0.3592
  42
0
  0
VERTEX
  8
case
  10
2.8914
  20
0.3609
  42
0
  0
VERTEX
  8
case
  10
2.8964
  20
0.3619
  42
0
  0
VERTEX
  8
case
  10
2.9016
  20
0.3622
  42
0
  0
VERTEX
  8
case
  10
2.9067
  20
0.3619
  42
0
  0
VERTEX
  8
case
  10
2.9118
  20
0.3609
  42
0
  0
VERTEX
  8
case
  10
2.9166
  20
0.3592
  42
0
  0
VERTEX
  8
case
  10
2.9213
  20
0.3569
  42
0
  0
VERTEX
  8
case
  10
2.9255
  20
0.3541
  42
0
  0
VERTEX
  8
case
  10
2.9294
  20
0.3507
  42
0
  0
VERTEX
  8
case
  10
2.9328
  20
0.3468
  42
0
  0
VERTEX
  8
case
  10
2.9357
  20
0.3425
  42
0
  0
VERTEX
  8
case
  10
2.9379
  20
0.3379
  42
0
  0
VERTEX
  8
case
  10
2.9396
  20
0.333
  42
0
  0
VERTEX
  8
case
  10
2.9406
  20
0.328
  42
0
  0
VERTEX
  8
case
  10
2.9409
  20
0.3228
  42
0
  0
VERTEX
  8
case
  10
2.9409
  20
0.3228
  42
0
  0
VERTEX
  8
case
  10
2.9406
  20
0.3177
  42
0
  0
VERTEX
  8
case
  10
2.9396
  20
0.3126
  42
0
  0
VERTEX
  8
case
  10
2.9379
  20
0.3078
  42
0
  0
VERTEX
  8
case
  10
2.9357
  20
0.3031
  42
0
  0
VERTEX
  8
case
  10
2.9328
  20
0.2989
  42
0
  0
VERTEX
  8
case
  10
2.9294
  20
0.295
  42
0
  0
VERTEX
  8
case
  10
2.9255
  20
0.2916
  42
0
  0
VERTEX
  8
case
  10
2.9213
  20
0.2887
  42
0
  0
VERTEX
  8
case
  10
2.9166
  20
0.2865
  42
0
  0
VERTEX
  8
case
  10
2.9118
  20
0.2848
  42
0
  0
VERTEX
  8
case
  10
2.9067
  20
0.2838
  42
0
  0
VERTEX
  8
case
  10
2.9016
  20
0.2835
  42
0
  0
VERTEX
  8
case
  10
2.8964
  20
0.2838
  42
0
  0
VERTEX
  8
case
  10
2.8914
  20
0.2848
  42
0
  0
VERTEX
  8
case
  10
2.8865
  20
0.2865
  42
0
  0
VERTEX
  8
case
  10
2.8819
  20
0.2887
  42
0
  0
VERTEX
  8
case
  10
2.8776
  20
0.2916
  42
0
  0
VERTEX
  8
case
  10
2.8737
  20
0.295
  42
0
  0
VERTEX
  8
case
  10
2.8703
  20
0.2989
  42
0
  0
VERTEX
  8
case
  10
2.8675
  20
0.3031
  42
0
  0
VERTEX
  8
case
  10
2.8652
  20
0.3078
  42
0
  0
VERTEX
  8
case
  10
2.8635
  20
0.3126
  42
0
  0
VERTEX
  8
case
  10
2.8625
  20
0.3177
  42
0
  0
VERTEX
  8
case
  10
2.8622
  20
0.3228
  42
0
  0
VERTEX
  8
case
  10
2.8622
  20
0.3228
  42
0
  0
SEQEND
  0
ENDSEC
  0
EOF
